<svg xmlns="http://www.w3.org/2000/svg" id="Layer_1" viewBox="0 0 630 375" width="630" height="375">
  <defs>
    <style>
      .cls-1 {
        fill: #333e48;
      }

      .cls-2 {
        fill: #e5eceb;
      }

      .cls-3 {
        fill: #28bad9;
      }

      .cls-4 {
        fill: #ffc700;
      }
    </style>
  </defs>
  <g>
    <polygon class="cls-1" points="600.5 345.5 597.5 345.5 597.5 344.5 599.5 344.5 599.5 342.29 600.5 342.29 600.5 345.5"/>
    <path class="cls-1" d="M594.53,345.5h-4.95v-1h4.95v1ZM586.62,345.5h-4.95v-1h4.95v1ZM578.7,345.5h-4.95v-1h4.95v1ZM570.79,345.5h-4.95v-1h4.95v1ZM562.87,345.5h-4.95v-1h4.95v1ZM554.96,345.5h-4.95v-1h4.95v1ZM547.04,345.5h-4.95v-1h4.95v1ZM539.13,345.5h-4.95v-1h4.95v1ZM531.21,345.5h-4.95v-1h4.95v1ZM523.3,345.5h-4.95v-1h4.95v1ZM515.38,345.5h-4.95v-1h4.95v1ZM507.46,345.5h-4.95v-1h4.95v1ZM499.55,345.5h-4.95v-1h4.95v1ZM491.63,345.5h-4.95v-1h4.95v1ZM483.72,345.5h-4.95v-1h4.95v1ZM475.8,345.5h-4.95v-1h4.95v1ZM467.89,345.5h-4.95v-1h4.95v1ZM459.97,345.5h-4.95v-1h4.95v1ZM452.06,345.5h-4.95v-1h4.95v1ZM444.14,345.5h-4.95v-1h4.95v1ZM436.23,345.5h-4.95v-1h4.95v1ZM428.31,345.5h-4.95v-1h4.95v1ZM420.4,345.5h-4.95v-1h4.95v1ZM412.48,345.5h-4.95v-1h4.95v1ZM404.57,345.5h-4.95v-1h4.95v1ZM396.65,345.5h-4.95v-1h4.95v1ZM388.74,345.5h-4.95v-1h4.95v1ZM380.82,345.5h-4.95v-1h4.95v1ZM372.91,345.5h-4.95v-1h4.95v1ZM364.99,345.5h-4.95v-1h4.95v1ZM357.08,345.5h-4.95v-1h4.95v1ZM349.16,345.5h-4.95v-1h4.95v1ZM341.25,345.5h-4.95v-1h4.95v1ZM333.33,345.5h-4.95v-1h4.95v1ZM325.42,345.5h-4.95v-1h4.95v1Z"/>
    <polygon class="cls-1" points="317.5 345.5 314.5 345.5 314.5 342.29 315.5 342.29 315.5 344.5 317.5 344.5 317.5 345.5"/>
    <path class="cls-1" d="M315.5,339.11h-1v-4.89h1v4.89ZM315.5,331.29h-1v-4.89h1v4.89ZM315.5,323.47h-1v-4.89h1v4.89ZM315.5,315.65h-1v-4.89h1v4.89ZM315.5,307.83h-1v-4.89h1v4.89ZM315.5,300.01h-1v-4.89h1v4.89ZM315.5,292.19h-1v-4.89h1v4.89ZM315.5,284.37h-1v-4.89h1v4.89ZM315.5,276.54h-1v-4.89h1v4.89ZM315.5,268.72h-1v-4.89h1v4.89ZM315.5,260.9h-1v-4.89h1v4.89ZM315.5,253.08h-1v-4.89h1v4.89ZM315.5,245.26h-1v-4.89h1v4.89ZM315.5,237.44h-1v-4.89h1v4.89ZM315.5,229.62h-1v-4.89h1v4.89ZM315.5,221.8h-1v-4.89h1v4.89ZM315.5,213.97h-1v-4.89h1v4.89ZM315.5,206.15h-1v-4.89h1v4.89ZM315.5,198.33h-1v-4.89h1v4.89ZM315.5,190.51h-1v-4.89h1v4.89ZM315.5,182.69h-1v-4.89h1v4.89ZM315.5,174.87h-1v-4.89h1v4.89ZM315.5,167.05h-1v-4.89h1v4.89ZM315.5,159.23h-1v-4.89h1v4.89Z"/>
    <polygon class="cls-1" points="315.5 152.71 314.5 152.71 314.5 149.5 317.5 149.5 317.5 150.5 315.5 150.5 315.5 152.71"/>
    <path class="cls-1" d="M594.53,150.5h-4.95v-1h4.95v1ZM586.62,150.5h-4.95v-1h4.95v1ZM578.7,150.5h-4.95v-1h4.95v1ZM570.79,150.5h-4.95v-1h4.95v1ZM562.87,150.5h-4.95v-1h4.95v1ZM554.96,150.5h-4.95v-1h4.95v1ZM547.04,150.5h-4.95v-1h4.95v1ZM539.12,150.5h-4.95v-1h4.95v1ZM531.21,150.5h-4.95v-1h4.95v1ZM523.29,150.5h-4.95v-1h4.95v1ZM515.38,150.5h-4.95v-1h4.95v1ZM507.46,150.5h-4.95v-1h4.95v1ZM499.55,150.5h-4.95v-1h4.95v1ZM491.63,150.5h-4.95v-1h4.95v1ZM483.72,150.5h-4.95v-1h4.95v1ZM475.8,150.5h-4.95v-1h4.95v1ZM467.89,150.5h-4.95v-1h4.95v1ZM459.97,150.5h-4.95v-1h4.95v1ZM452.06,150.5h-4.95v-1h4.95v1ZM444.14,150.5h-4.95v-1h4.95v1ZM436.23,150.5h-4.95v-1h4.95v1ZM428.31,150.5h-4.95v-1h4.95v1ZM420.4,150.5h-4.95v-1h4.95v1ZM412.48,150.5h-4.95v-1h4.95v1ZM404.57,150.5h-4.95v-1h4.95v1ZM396.65,150.5h-4.95v-1h4.95v1ZM388.74,150.5h-4.95v-1h4.95v1ZM380.82,150.5h-4.95v-1h4.95v1ZM372.91,150.5h-4.95v-1h4.95v1ZM364.99,150.5h-4.95v-1h4.95v1ZM357.08,150.5h-4.95v-1h4.95v1ZM349.16,150.5h-4.95v-1h4.95v1ZM341.25,150.5h-4.95v-1h4.95v1ZM333.33,150.5h-4.95v-1h4.95v1ZM325.42,150.5h-4.95v-1h4.95v1Z"/>
    <polygon class="cls-1" points="600.5 152.71 599.5 152.71 599.5 150.5 597.5 150.5 597.5 149.5 600.5 149.5 600.5 152.71"/>
    <path class="cls-1" d="M600.5,340.66h-1v-4.89h1v4.89ZM600.5,332.84h-1v-4.89h1v4.89ZM600.5,325.02h-1v-4.89h1v4.89ZM600.5,317.2h-1v-4.89h1v4.89ZM600.5,309.38h-1v-4.89h1v4.89ZM600.5,301.56h-1v-4.89h1v4.89ZM600.5,293.73h-1v-4.89h1v4.89ZM600.5,285.91h-1v-4.89h1v4.89ZM600.5,278.09h-1v-4.89h1v4.89ZM600.5,270.27h-1v-4.89h1v4.89ZM600.5,262.45h-1v-4.89h1v4.89ZM600.5,254.63h-1v-4.89h1v4.89ZM600.5,246.81h-1v-4.89h1v4.89ZM600.5,238.99h-1v-4.89h1v4.89ZM600.5,231.17h-1v-4.89h1v4.89ZM600.5,223.34h-1v-4.89h1v4.89ZM600.5,215.52h-1v-4.89h1v4.89ZM600.5,207.7h-1v-4.89h1v4.89ZM600.5,199.88h-1v-4.89h1v4.89ZM600.5,192.06h-1v-4.89h1v4.89ZM600.5,184.24h-1v-4.89h1v4.89ZM600.5,176.42h-1v-4.89h1v4.89ZM600.5,168.6h-1v-4.89h1v4.89ZM600.5,160.77h-1v-4.89h1v4.89Z"/>
  </g>
  <g>
    <rect class="cls-1" x="155.74" y="74.5" width="219.26" height="1"/>
    <polygon class="cls-1" points="156.91 78.99 150 75 156.91 71.01 156.91 78.99"/>
  </g>
  <g>
    <rect class="cls-1" x="457" y="120" width="1" height="54.26"/>
    <polygon class="cls-1" points="461.49 173.09 457.5 180 453.51 173.09 461.49 173.09"/>
  </g>
  <g>
    <rect class="cls-1" x="404.5" y="225" width="1" height="39.26"/>
    <polygon class="cls-1" points="408.99 263.09 405 270 401.01 263.09 408.99 263.09"/>
  </g>
  <g>
    <rect class="cls-1" x="509.5" y="225" width="1" height="39.26"/>
    <polygon class="cls-1" points="513.99 263.09 510 270 506.01 263.09 513.99 263.09"/>
  </g>
  <g>
    <path class="cls-1" d="M70.14,59.01c.83,0,1.55.1,2.16.29.61.19,1.12.46,1.52.81.4.35.7.78.9,1.27.19.5.29,1.05.29,1.66s-.11,1.16-.32,1.67-.52.94-.93,1.31-.92.65-1.53.85-1.31.3-2.1.3h-2v4.76h-1.92v-12.92h3.92ZM70.14,65.66c.49,0,.91-.06,1.28-.19.37-.13.68-.3.93-.54.25-.23.44-.51.56-.83.13-.32.19-.68.19-1.07,0-.79-.24-1.4-.73-1.85s-1.23-.67-2.23-.67h-2v5.15h2Z"/>
    <path class="cls-1" d="M80.19,62.64c.67,0,1.28.11,1.82.33.54.22,1,.53,1.39.95.38.41.67.91.88,1.49s.31,1.23.31,1.95-.1,1.37-.31,1.95-.5,1.08-.88,1.49c-.38.41-.84.72-1.39.94-.54.22-1.15.33-1.82.33s-1.29-.11-1.83-.33c-.54-.22-1.01-.53-1.39-.94-.38-.41-.68-.9-.89-1.49s-.31-1.23-.31-1.95.1-1.37.31-1.95.5-1.07.89-1.49.85-.73,1.39-.95c.54-.22,1.15-.33,1.83-.33ZM80.19,70.69c.86,0,1.51-.29,1.94-.87.43-.58.64-1.4.64-2.46s-.21-1.88-.64-2.46c-.43-.58-1.07-.88-1.94-.88s-1.53.29-1.96.88c-.43.58-.64,1.41-.64,2.46s.21,1.88.64,2.46c.43.58,1.08.87,1.96.87Z"/>
    <path class="cls-1" d="M99.12,62.79l-2.94,9.14h-1.4c-.17,0-.28-.11-.34-.33l-1.93-5.96c-.05-.15-.09-.3-.13-.45-.04-.15-.07-.3-.1-.45-.05.31-.13.61-.23.91l-1.95,5.94c-.06.22-.19.33-.39.33h-1.33l-2.95-9.14h1.39c.14,0,.25.03.35.1.09.07.15.15.18.25l1.65,5.62c.05.23.1.45.14.67s.08.43.12.65c.05-.22.11-.43.18-.65.06-.22.13-.44.19-.67l1.83-5.65c.03-.1.09-.18.17-.25.08-.06.19-.09.31-.09h.77c.13,0,.24.03.33.09.09.06.15.15.18.25l1.78,5.65c.07.23.13.45.19.67.06.22.11.44.16.66.04-.22.08-.43.13-.65.05-.22.1-.45.16-.68l1.67-5.62c.03-.1.09-.19.18-.25s.2-.1.32-.1h1.32Z"/>
    <path class="cls-1" d="M107.98,70.63c-.22.25-.46.47-.75.65-.28.18-.58.33-.9.45s-.65.2-.99.25-.67.08-1,.08c-.63,0-1.21-.11-1.75-.32s-1-.53-1.4-.94c-.39-.41-.7-.92-.92-1.53-.22-.61-.33-1.31-.33-2.1,0-.64.1-1.23.3-1.78.2-.55.48-1.03.85-1.44s.82-.73,1.35-.96c.53-.23,1.13-.35,1.8-.35.56,0,1.07.09,1.54.27.47.18.88.45,1.22.8.34.35.61.78.8,1.29.2.51.29,1.09.29,1.75,0,.27-.03.45-.09.54-.06.09-.17.14-.33.14h-5.99c.02.55.1,1.02.23,1.43.14.4.33.74.57,1.01.24.27.53.47.87.6s.71.2,1.12.2c.39,0,.73-.04,1.01-.13.29-.09.53-.19.74-.29.21-.1.38-.2.52-.29.14-.09.27-.13.37-.13.14,0,.25.05.33.16l.5.65ZM106.53,66.34c0-.35-.05-.67-.15-.96s-.25-.55-.44-.77c-.19-.22-.43-.38-.7-.5s-.59-.18-.95-.18c-.74,0-1.32.21-1.74.64-.42.43-.69,1.02-.81,1.77h4.79Z"/>
    <path class="cls-1" d="M111.66,64.54c.29-.6.65-1.07,1.06-1.41s.91-.51,1.49-.51c.2,0,.38.02.56.07.18.04.33.11.46.2l-.12,1.32c-.04.16-.14.24-.3.24-.08,0-.21-.02-.38-.05s-.35-.05-.54-.05c-.28,0-.53.04-.75.12-.22.08-.41.2-.58.36s-.32.35-.45.58c-.13.23-.26.49-.37.79v5.72h-1.75v-9.14h1.01c.19,0,.32.03.39.1s.12.19.15.36l.11,1.29Z"/>
    <path class="cls-1" d="M60.75,90.76c.11,0,.2.04.28.13l.76.83c-.53.62-1.17,1.11-1.93,1.45s-1.67.51-2.74.51c-.94,0-1.78-.16-2.54-.49s-1.41-.78-1.94-1.36c-.54-.58-.95-1.28-1.25-2.09-.29-.81-.44-1.7-.44-2.67s.16-1.86.46-2.67c.31-.81.74-1.51,1.3-2.09.56-.58,1.23-1.04,2-1.36.78-.32,1.64-.49,2.58-.49s1.73.15,2.45.45c.71.3,1.33.7,1.86,1.2l-.63.89c-.04.07-.09.12-.16.16-.06.04-.15.06-.25.06-.11,0-.25-.06-.4-.17-.15-.11-.35-.24-.6-.38s-.56-.27-.92-.38c-.37-.11-.82-.17-1.37-.17-.64,0-1.23.11-1.76.34-.53.22-.99.55-1.38.97-.39.42-.69.94-.9,1.56-.21.62-.32,1.31-.32,2.08s.11,1.49.33,2.1c.22.61.53,1.13.92,1.56.39.43.85.75,1.38.97.53.22,1.1.33,1.71.33.37,0,.71-.02,1-.07s.57-.11.82-.2c.25-.09.48-.21.71-.35.22-.14.44-.31.66-.51.05-.04.1-.08.15-.1.05-.03.11-.04.17-.04Z"/>
    <path class="cls-1" d="M67.07,84.24c.67,0,1.28.11,1.82.33.54.22,1,.53,1.39.95.38.41.67.91.88,1.49s.31,1.23.31,1.95-.1,1.37-.31,1.95-.5,1.08-.88,1.49c-.38.41-.84.72-1.39.94-.54.22-1.15.33-1.82.33s-1.29-.11-1.83-.33c-.54-.22-1.01-.53-1.39-.94-.38-.41-.68-.9-.89-1.49s-.31-1.23-.31-1.95.1-1.37.31-1.95.5-1.07.89-1.49.85-.73,1.39-.95c.54-.22,1.15-.33,1.83-.33ZM67.07,92.29c.86,0,1.51-.29,1.94-.87.43-.58.64-1.4.64-2.46s-.21-1.88-.64-2.46c-.43-.58-1.07-.88-1.94-.88s-1.53.29-1.96.88c-.43.58-.64,1.41-.64,2.46s.21,1.88.64,2.46c.43.58,1.08.87,1.96.87Z"/>
    <path class="cls-1" d="M75.07,85.66c.2-.21.41-.4.62-.58s.45-.32.69-.45.5-.22.78-.29c.28-.07.58-.1.9-.1.5,0,.95.08,1.33.25s.7.4.96.71c.26.3.45.67.58,1.09.13.43.2.9.2,1.41v5.82h-1.76v-5.82c0-.65-.15-1.16-.45-1.53-.3-.36-.76-.54-1.38-.54-.45,0-.87.11-1.26.32-.39.21-.76.5-1.09.87v6.71h-1.75v-9.14h1.05c.25,0,.4.12.46.35l.13.92Z"/>
    <path class="cls-1" d="M86.23,93.67c-.74,0-1.31-.21-1.71-.62-.4-.41-.6-1-.6-1.77v-5.47h-1.06c-.1,0-.19-.03-.26-.09-.07-.06-.1-.16-.1-.28v-.71l1.48-.21.4-2.73c.02-.1.07-.18.14-.24.07-.06.16-.09.27-.09h.89v3.07h2.59v1.28h-2.59v5.35c0,.36.09.63.27.81s.4.27.68.27c.16,0,.3-.02.42-.06.12-.04.22-.09.3-.14.08-.05.16-.1.22-.14.06-.04.11-.06.16-.06.06,0,.11.01.14.04.03.03.07.07.1.13l.52.85c-.29.26-.63.47-1.03.61-.4.14-.81.22-1.23.22Z"/>
    <path class="cls-1" d="M91.54,86.14c.29-.6.65-1.07,1.06-1.41s.91-.51,1.49-.51c.2,0,.38.02.56.07.18.04.33.11.46.2l-.12,1.32c-.04.16-.14.24-.3.24-.08,0-.21-.02-.38-.05s-.35-.05-.54-.05c-.28,0-.53.04-.75.12-.22.08-.41.2-.58.36s-.32.35-.45.58c-.13.23-.26.49-.37.79v5.72h-1.75v-9.14h1.01c.19,0,.32.03.39.1s.12.19.15.36l.11,1.29Z"/>
    <path class="cls-1" d="M100.03,84.24c.67,0,1.28.11,1.82.33.54.22,1,.53,1.39.95.38.41.67.91.88,1.49s.31,1.23.31,1.95-.1,1.37-.31,1.95-.5,1.08-.88,1.49c-.38.41-.84.72-1.39.94-.54.22-1.15.33-1.82.33s-1.29-.11-1.83-.33c-.54-.22-1.01-.53-1.39-.94-.38-.41-.68-.9-.89-1.49s-.31-1.23-.31-1.95.1-1.37.31-1.95.5-1.07.89-1.49.85-.73,1.39-.95c.54-.22,1.15-.33,1.83-.33ZM100.03,92.29c.86,0,1.51-.29,1.94-.87.43-.58.64-1.4.64-2.46s-.21-1.88-.64-2.46c-.43-.58-1.07-.88-1.94-.88s-1.53.29-1.96.88c-.43.58-.64,1.41-.64,2.46s.21,1.88.64,2.46c.43.58,1.08.87,1.96.87Z"/>
    <path class="cls-1" d="M108.18,80.25v13.28h-1.76v-13.28h1.76Z"/>
    <path class="cls-1" d="M112.48,80.25v13.28h-1.76v-13.28h1.76Z"/>
    <path class="cls-1" d="M122.49,92.23c-.22.25-.46.47-.75.65-.28.18-.58.33-.9.45s-.65.2-.99.25-.67.08-1,.08c-.63,0-1.21-.11-1.75-.32s-1-.53-1.4-.94c-.39-.41-.7-.92-.92-1.53-.22-.61-.33-1.31-.33-2.1,0-.64.1-1.23.3-1.78.2-.55.48-1.03.85-1.44s.82-.73,1.35-.96c.53-.23,1.13-.35,1.8-.35.56,0,1.07.09,1.54.27.47.18.88.45,1.22.8.34.35.61.78.8,1.29.2.51.29,1.09.29,1.75,0,.27-.03.45-.09.54-.06.09-.17.14-.33.14h-5.99c.02.55.1,1.02.23,1.43.14.4.33.74.57,1.01.24.27.53.47.87.6s.71.2,1.12.2c.39,0,.73-.04,1.01-.13.29-.09.53-.19.74-.29.21-.1.38-.2.52-.29.14-.09.27-.13.37-.13.14,0,.25.05.33.16l.5.65ZM121.04,87.94c0-.35-.05-.67-.15-.96s-.25-.55-.44-.77c-.19-.22-.43-.38-.7-.5s-.59-.18-.95-.18c-.74,0-1.32.21-1.74.64-.42.43-.69,1.02-.81,1.77h4.79Z"/>
    <path class="cls-1" d="M126.17,86.14c.29-.6.65-1.07,1.06-1.41s.91-.51,1.49-.51c.2,0,.38.02.56.07.18.04.33.11.46.2l-.12,1.32c-.04.16-.14.24-.3.24-.08,0-.21-.02-.38-.05s-.35-.05-.54-.05c-.28,0-.53.04-.75.12-.22.08-.41.2-.58.36s-.32.35-.45.58c-.13.23-.26.49-.37.79v5.72h-1.75v-9.14h1.01c.19,0,.32.03.39.1s.12.19.15.36l.11,1.29Z"/>
  </g>
  <g>
    <path class="cls-1" d="M116.29,276.91h-1.71c-.34,0-.59-.13-.75-.41l-3.2-4.48c-.1-.15-.21-.26-.33-.32-.12-.06-.3-.09-.54-.09h-1.25v5.3h-1.92v-12.92h3.73c.83,0,1.55.08,2.16.26.6.17,1.1.41,1.49.73.39.32.68.69.87,1.14.19.44.28.94.28,1.49,0,.45-.07.87-.21,1.27-.14.4-.34.75-.61,1.07-.27.32-.59.59-.98.81-.38.23-.82.4-1.3.52.24.14.45.34.62.6l3.64,5.03ZM110.26,270.22c.49,0,.93-.06,1.3-.18s.69-.29.94-.51c.25-.22.44-.48.57-.78.13-.3.19-.64.19-1,0-.74-.24-1.3-.73-1.68-.49-.38-1.22-.57-2.2-.57h-1.81v4.72h1.75Z"/>
    <path class="cls-1" d="M124.49,275.61c-.22.25-.46.47-.75.65-.28.18-.58.33-.9.45s-.65.2-.99.25-.67.08-1,.08c-.63,0-1.21-.11-1.75-.32s-1-.53-1.4-.94c-.39-.41-.7-.92-.92-1.53-.22-.61-.33-1.31-.33-2.1,0-.64.1-1.23.3-1.78.2-.55.48-1.03.85-1.44s.82-.73,1.35-.96c.53-.23,1.13-.35,1.8-.35.56,0,1.07.09,1.54.27.47.18.88.45,1.22.8.34.35.61.78.8,1.29.2.51.29,1.09.29,1.75,0,.27-.03.45-.09.54-.06.09-.17.14-.33.14h-5.99c.02.55.1,1.02.23,1.43.14.4.33.74.57,1.01.24.27.53.47.87.6s.71.2,1.12.2c.39,0,.73-.04,1.01-.13.29-.09.53-.19.74-.29.21-.1.38-.2.52-.29.14-.09.27-.13.37-.13.14,0,.25.05.33.16l.5.65ZM123.04,271.32c0-.35-.05-.67-.15-.96s-.25-.55-.44-.77c-.19-.22-.43-.38-.7-.5s-.59-.18-.95-.18c-.74,0-1.32.21-1.74.64-.42.43-.69,1.02-.81,1.77h4.79Z"/>
    <path class="cls-1" d="M131.91,269.34c-.05.08-.1.13-.15.17-.05.03-.12.05-.21.05-.1,0-.2-.03-.32-.1-.12-.07-.26-.14-.42-.22s-.36-.15-.58-.22c-.22-.07-.49-.1-.79-.1-.25,0-.48.03-.69.09-.21.06-.38.15-.53.26-.14.11-.25.24-.33.4-.08.15-.12.32-.12.49,0,.23.07.42.2.57.13.15.31.28.53.39.22.11.47.21.75.29.28.09.56.18.85.27s.58.21.86.33c.28.12.53.28.75.46.22.18.4.4.53.66.14.26.2.57.2.95,0,.43-.08.82-.23,1.18-.15.36-.38.68-.67.94-.3.26-.67.47-1.1.62-.44.15-.94.22-1.5.22-.63,0-1.21-.1-1.75-.31-.53-.21-.98-.48-1.34-.8l.41-.68c.05-.08.11-.15.18-.19.07-.04.17-.07.29-.07.11,0,.23.04.35.13s.26.18.43.27c.17.1.37.19.61.27s.54.12.9.12c.3,0,.56-.04.78-.11.22-.08.41-.18.55-.31.15-.13.26-.28.33-.45.07-.17.11-.34.11-.53,0-.24-.07-.44-.2-.6s-.31-.3-.53-.41c-.22-.11-.47-.21-.75-.3-.28-.08-.57-.17-.86-.27s-.58-.21-.86-.33-.53-.29-.75-.48c-.22-.19-.4-.43-.53-.7-.13-.28-.2-.61-.2-1.01,0-.35.07-.69.22-1.02.15-.32.36-.61.64-.85.28-.25.62-.44,1.03-.59s.88-.22,1.41-.22c.61,0,1.15.1,1.64.29.49.19.91.46,1.25.79l-.39.64Z"/>
    <path class="cls-1" d="M141.85,275.61c-.22.25-.46.47-.75.65-.28.18-.58.33-.9.45s-.65.2-.99.25-.67.08-1,.08c-.63,0-1.21-.11-1.75-.32s-1-.53-1.4-.94c-.39-.41-.7-.92-.92-1.53-.22-.61-.33-1.31-.33-2.1,0-.64.1-1.23.3-1.78.2-.55.48-1.03.85-1.44s.82-.73,1.35-.96c.53-.23,1.13-.35,1.8-.35.56,0,1.07.09,1.54.27.47.18.88.45,1.22.8.34.35.61.78.8,1.29.2.51.29,1.09.29,1.75,0,.27-.03.45-.09.54-.06.09-.17.14-.33.14h-5.99c.02.55.1,1.02.23,1.43.14.4.33.74.57,1.01.24.27.53.47.87.6s.71.2,1.12.2c.39,0,.73-.04,1.01-.13.29-.09.53-.19.74-.29.21-.1.38-.2.52-.29.14-.09.27-.13.37-.13.14,0,.25.05.33.16l.5.65ZM140.4,271.32c0-.35-.05-.67-.15-.96s-.25-.55-.44-.77c-.19-.22-.43-.38-.7-.5s-.59-.18-.95-.18c-.74,0-1.32.21-1.74.64-.42.43-.69,1.02-.81,1.77h4.79Z"/>
    <path class="cls-1" d="M146.66,277.06c-.74,0-1.31-.21-1.71-.62-.4-.41-.6-1-.6-1.77v-5.47h-1.06c-.1,0-.19-.03-.26-.09-.07-.06-.1-.16-.1-.28v-.71l1.48-.21.4-2.73c.02-.1.07-.18.14-.24.07-.06.16-.09.27-.09h.89v3.07h2.59v1.28h-2.59v5.35c0,.36.09.63.27.81s.4.27.68.27c.16,0,.3-.02.42-.06.12-.04.22-.09.3-.14.08-.05.16-.1.22-.14.06-.04.11-.06.16-.06.06,0,.11.01.14.04.03.03.07.07.1.13l.52.85c-.29.26-.63.47-1.03.61-.4.14-.81.22-1.23.22Z"/>
    <path class="cls-1" d="M154.63,269.05c.51-.49,1.06-.85,1.66-1.09.6-.24,1.25-.36,1.97-.36.52,0,.98.09,1.39.26.4.17.74.41,1.02.72.28.31.48.67.62,1.1s.21.9.21,1.41v5.83h-.78c-.17,0-.31-.03-.4-.09-.09-.06-.16-.16-.22-.32l-.19-.8c-.23.22-.46.41-.69.57-.23.17-.47.31-.72.42-.25.12-.51.21-.8.27-.28.06-.59.09-.94.09s-.7-.05-1.01-.15c-.32-.1-.59-.25-.82-.45-.23-.2-.42-.46-.55-.76-.14-.31-.2-.66-.2-1.07,0-.36.1-.71.29-1.04.19-.33.51-.63.95-.9.44-.26,1.02-.48,1.73-.65s1.59-.26,2.62-.29v-.67c0-.69-.15-1.21-.44-1.55s-.73-.51-1.3-.51c-.38,0-.71.05-.97.14s-.49.2-.67.32c-.19.12-.35.22-.5.32-.14.1-.29.14-.44.14-.12,0-.22-.03-.31-.1-.09-.07-.16-.14-.21-.23l-.32-.57ZM159.77,272.85c-.71.02-1.32.08-1.82.17s-.9.2-1.21.35c-.31.14-.54.31-.67.51-.14.19-.21.41-.21.65,0,.23.04.42.11.59s.18.3.31.41c.13.11.28.18.46.23.17.05.36.07.57.07.27,0,.52-.03.74-.08.23-.05.44-.13.63-.23s.39-.22.57-.36c.18-.14.36-.31.53-.5v-1.8Z"/>
    <path class="cls-1" d="M165.5,269.04c.2-.21.41-.4.62-.58s.45-.32.69-.45.5-.22.78-.29c.28-.07.58-.1.9-.1.5,0,.95.08,1.33.25s.7.4.96.71c.26.3.45.67.58,1.09.13.43.2.9.2,1.41v5.82h-1.76v-5.82c0-.65-.15-1.16-.45-1.53-.3-.36-.76-.54-1.38-.54-.45,0-.87.11-1.26.32-.39.21-.76.5-1.09.87v6.71h-1.75v-9.14h1.05c.25,0,.4.12.46.35l.13.92Z"/>
    <path class="cls-1" d="M181.58,263.63v13.28h-1.06c-.25,0-.4-.12-.46-.35l-.15-1.05c-.39.46-.83.83-1.33,1.11-.5.28-1.07.42-1.71.42-.52,0-.99-.1-1.42-.31-.42-.2-.79-.5-1.08-.9-.3-.39-.53-.88-.69-1.46-.16-.58-.24-1.25-.24-2.01,0-.68.09-1.31.27-1.89.18-.58.44-1.09.78-1.51.34-.43.76-.76,1.24-1,.49-.24,1.04-.37,1.65-.37.55,0,1.02.09,1.41.27.39.18.73.43,1.04.76v-5h1.76ZM179.82,269.98c-.29-.38-.6-.64-.93-.79-.33-.15-.71-.23-1.12-.23-.8,0-1.43.29-1.87.87-.44.58-.66,1.42-.66,2.53,0,.58.05,1.08.15,1.49.1.41.24.75.43,1.01.19.26.42.45.7.58.28.12.59.18.94.18.51,0,.95-.11,1.32-.34.37-.23.72-.55,1.04-.96v-4.34Z"/>
    <path class="cls-1" d="M192.86,263.99c.83,0,1.55.1,2.16.29.61.19,1.12.46,1.52.81.4.35.7.78.9,1.27.19.5.29,1.05.29,1.66s-.11,1.16-.32,1.67-.52.94-.93,1.31-.92.65-1.53.85-1.31.3-2.1.3h-2v4.76h-1.92v-12.92h3.92ZM192.86,270.64c.49,0,.91-.06,1.28-.19.37-.13.68-.3.93-.54.25-.23.44-.51.56-.83.13-.32.19-.68.19-1.07,0-.79-.24-1.4-.73-1.85s-1.23-.67-2.23-.67h-2v5.15h2Z"/>
    <path class="cls-1" d="M202.91,267.63c.67,0,1.28.11,1.82.33.54.22,1,.53,1.39.95.38.41.67.91.88,1.49s.31,1.23.31,1.95-.1,1.37-.31,1.95-.5,1.08-.88,1.49c-.38.41-.84.72-1.39.94-.54.22-1.15.33-1.82.33s-1.29-.11-1.83-.33c-.54-.22-1.01-.53-1.39-.94-.38-.41-.68-.9-.89-1.49s-.31-1.23-.31-1.95.1-1.37.31-1.95.5-1.07.89-1.49.85-.73,1.39-.95c.54-.22,1.15-.33,1.83-.33ZM202.91,275.67c.86,0,1.51-.29,1.94-.87.43-.58.64-1.4.64-2.46s-.21-1.88-.64-2.46c-.43-.58-1.07-.88-1.94-.88s-1.53.29-1.96.88c-.43.58-.64,1.41-.64,2.46s.21,1.88.64,2.46c.43.58,1.08.87,1.96.87Z"/>
    <path class="cls-1" d="M221.84,267.77l-2.94,9.14h-1.4c-.17,0-.28-.11-.34-.33l-1.93-5.96c-.05-.15-.09-.3-.13-.45-.04-.15-.07-.3-.1-.45-.05.31-.13.61-.23.91l-1.95,5.94c-.06.22-.19.33-.39.33h-1.33l-2.95-9.14h1.39c.14,0,.25.03.35.1.09.07.15.15.18.25l1.65,5.62c.05.23.1.45.14.67s.08.43.12.65c.05-.22.11-.43.18-.65.06-.22.13-.44.19-.67l1.83-5.65c.03-.1.09-.18.17-.25.08-.06.19-.09.31-.09h.77c.13,0,.24.03.33.09.09.06.15.15.18.25l1.78,5.65c.07.23.13.45.19.67.06.22.11.44.16.66.04-.22.08-.43.13-.65.05-.22.1-.45.16-.68l1.67-5.62c.03-.1.09-.19.18-.25s.2-.1.32-.1h1.32Z"/>
    <path class="cls-1" d="M230.7,275.61c-.22.25-.46.47-.75.65-.28.18-.58.33-.9.45s-.65.2-.99.25-.67.08-1,.08c-.63,0-1.21-.11-1.75-.32s-1-.53-1.4-.94c-.39-.41-.7-.92-.92-1.53-.22-.61-.33-1.31-.33-2.1,0-.64.1-1.23.3-1.78.2-.55.48-1.03.85-1.44s.82-.73,1.35-.96c.53-.23,1.13-.35,1.8-.35.56,0,1.07.09,1.54.27.47.18.88.45,1.22.8.34.35.61.78.8,1.29.2.51.29,1.09.29,1.75,0,.27-.03.45-.09.54-.06.09-.17.14-.33.14h-5.99c.02.55.1,1.02.23,1.43.14.4.33.74.57,1.01.24.27.53.47.87.6s.71.2,1.12.2c.39,0,.73-.04,1.01-.13.29-.09.53-.19.74-.29.21-.1.38-.2.52-.29.14-.09.27-.13.37-.13.14,0,.25.05.33.16l.5.65ZM229.25,271.32c0-.35-.05-.67-.15-.96s-.25-.55-.44-.77c-.19-.22-.43-.38-.7-.5s-.59-.18-.95-.18c-.74,0-1.32.21-1.74.64-.42.43-.69,1.02-.81,1.77h4.79Z"/>
    <path class="cls-1" d="M234.38,269.52c.29-.6.65-1.07,1.06-1.41s.91-.51,1.49-.51c.2,0,.38.02.56.07.18.04.33.11.46.2l-.12,1.32c-.04.16-.14.24-.3.24-.08,0-.21-.02-.38-.05s-.35-.05-.54-.05c-.28,0-.53.04-.75.12-.22.08-.41.2-.58.36s-.32.35-.45.58c-.13.23-.26.49-.37.79v5.72h-1.75v-9.14h1.01c.19,0,.32.03.39.1s.12.19.15.36l.11,1.29Z"/>
  </g>
  <g>
    <path class="cls-1" d="M423.52,255.23h-1.93v-12.92h1.93v12.92Z"/>
    <path class="cls-1" d="M436.4,255.23h-1.71c-.34,0-.59-.13-.75-.41l-3.2-4.48c-.1-.15-.21-.26-.33-.32-.12-.06-.3-.09-.54-.09h-1.25v5.3h-1.92v-12.92h3.73c.83,0,1.55.08,2.16.26.6.17,1.1.41,1.49.73.39.32.68.69.87,1.14.19.44.28.94.28,1.49,0,.45-.07.87-.21,1.27-.14.4-.34.75-.61,1.07-.27.32-.59.59-.98.81-.38.23-.82.4-1.3.52.24.14.45.34.62.6l3.64,5.03ZM430.37,248.53c.49,0,.93-.06,1.3-.18s.69-.29.94-.51c.25-.22.44-.48.57-.78.13-.3.19-.64.19-1,0-.74-.24-1.3-.73-1.68-.49-.38-1.22-.57-2.2-.57h-1.81v4.72h1.75Z"/>
    <path class="cls-1" d="M450.58,257.86h-1.58c-.23,0-.44-.03-.62-.09-.18-.06-.35-.18-.5-.35l-2.18-2.38c-.66.22-1.38.32-2.15.32-.95,0-1.83-.16-2.61-.49-.79-.32-1.46-.78-2.02-1.36-.56-.58-1-1.28-1.31-2.09-.31-.81-.47-1.69-.47-2.66s.16-1.84.47-2.66c.31-.81.75-1.51,1.31-2.09.56-.58,1.24-1.04,2.02-1.37s1.66-.49,2.61-.49,1.83.16,2.62.49,1.46.78,2.03,1.37c.56.59,1,1.28,1.31,2.09.31.81.46,1.7.46,2.66,0,.6-.06,1.17-.18,1.71-.12.54-.3,1.05-.53,1.52-.23.47-.51.89-.84,1.28s-.71.72-1.13,1.01l3.3,3.57ZM439.08,248.77c0,.77.11,1.47.32,2.07.21.61.51,1.13.9,1.55.39.43.86.75,1.41.98.55.22,1.16.34,1.84.34s1.29-.11,1.84-.34c.55-.23,1.02-.55,1.4-.98s.69-.94.9-1.55c.21-.61.31-1.3.31-2.07s-.1-1.46-.31-2.07c-.21-.61-.51-1.13-.9-1.56s-.86-.75-1.4-.98c-.55-.23-1.16-.34-1.84-.34s-1.29.11-1.84.34c-.55.23-1.02.56-1.41.98-.39.43-.69.95-.9,1.56-.21.61-.32,1.3-.32,2.07Z"/>
  </g>
  <g>
    <path class="cls-1" d="M528.52,243.86v4.33h5.18v1.56h-5.18v5.48h-1.93v-12.92h8.01v1.56h-6.08Z"/>
    <path class="cls-1" d="M538.7,255.23h-1.93v-12.92h1.93v12.92Z"/>
    <path class="cls-1" d="M554.56,257.86h-1.58c-.23,0-.44-.03-.62-.09-.18-.06-.35-.18-.5-.35l-2.18-2.38c-.66.22-1.38.32-2.15.32-.95,0-1.83-.16-2.61-.49-.79-.32-1.46-.78-2.02-1.36-.56-.58-1-1.28-1.31-2.09-.31-.81-.47-1.69-.47-2.66s.16-1.84.47-2.66c.31-.81.75-1.51,1.31-2.09.56-.58,1.24-1.04,2.02-1.37s1.66-.49,2.61-.49,1.83.16,2.62.49,1.46.78,2.03,1.37c.56.59,1,1.28,1.31,2.09.31.81.46,1.7.46,2.66,0,.6-.06,1.17-.18,1.71-.12.54-.3,1.05-.53,1.52-.23.47-.51.89-.84,1.28s-.71.72-1.13,1.01l3.3,3.57ZM543.05,248.77c0,.77.11,1.47.32,2.07.21.61.51,1.13.9,1.55.39.43.86.75,1.41.98.55.22,1.16.34,1.84.34s1.29-.11,1.84-.34c.55-.23,1.02-.55,1.4-.98s.69-.94.9-1.55c.21-.61.31-1.3.31-2.07s-.1-1.46-.31-2.07c-.21-.61-.51-1.13-.9-1.56s-.86-.75-1.4-.98c-.55-.23-1.16-.34-1.84-.34s-1.29.11-1.84.34c-.55.23-1.02.56-1.41.98-.39.43-.69.95-.9,1.56-.21.61-.32,1.3-.32,2.07Z"/>
  </g>
  <g>
    <path class="cls-1" d="M209.06,54.81l-4.03,12.92h-1.73l-3.15-9.58c-.07-.19-.13-.42-.19-.69-.07.28-.13.51-.19.69l-3.19,9.58h-1.72l-4.03-12.92h1.6c.17,0,.31.04.42.12.11.08.19.19.23.33l2.55,8.65c.05.17.09.35.13.55.04.2.08.41.12.62.04-.22.09-.42.13-.62.04-.2.1-.38.16-.55l2.92-8.65c.04-.12.11-.23.23-.32s.26-.13.42-.13h.55c.17,0,.31.04.41.13.11.08.19.19.23.32l2.91,8.65c.11.33.2.71.29,1.12.07-.41.15-.79.23-1.12l2.56-8.65c.03-.12.1-.23.22-.32s.26-.13.42-.13h1.49Z"/>
    <path class="cls-1" d="M209.26,59.86c.51-.49,1.06-.85,1.66-1.09.6-.24,1.25-.36,1.97-.36.52,0,.98.09,1.39.26.4.17.74.41,1.02.72.28.31.48.67.62,1.1s.21.9.21,1.41v5.83h-.78c-.17,0-.31-.03-.4-.09-.09-.06-.16-.16-.22-.32l-.19-.8c-.23.22-.46.41-.69.57-.23.17-.47.31-.72.42-.25.12-.51.21-.8.27-.28.06-.59.09-.94.09s-.7-.05-1.01-.15c-.32-.1-.59-.25-.82-.45-.23-.2-.42-.46-.55-.76-.14-.31-.2-.66-.2-1.07,0-.36.1-.71.29-1.04.19-.33.51-.63.95-.9.44-.26,1.02-.48,1.73-.65s1.59-.26,2.62-.29v-.67c0-.69-.15-1.21-.44-1.55s-.73-.51-1.3-.51c-.38,0-.71.05-.97.14s-.49.2-.67.32c-.19.12-.35.22-.5.32-.14.1-.29.14-.44.14-.12,0-.22-.03-.31-.1-.09-.07-.16-.14-.21-.23l-.32-.57ZM214.41,63.67c-.71.02-1.32.08-1.82.17s-.9.2-1.21.35c-.31.14-.54.31-.67.51-.14.19-.21.41-.21.65,0,.23.04.42.11.59s.18.3.31.41c.13.11.28.18.46.23.17.05.36.07.57.07.27,0,.52-.03.74-.08.23-.05.44-.13.63-.23s.39-.22.57-.36c.18-.14.36-.31.53-.5v-1.8Z"/>
    <path class="cls-1" d="M220.24,54.45v7.77h.41c.13,0,.23-.02.31-.05s.17-.11.26-.22l2.74-3.01c.08-.11.18-.2.28-.26.1-.06.23-.08.39-.08h1.6l-3.23,3.54c-.17.22-.36.39-.56.51.11.08.21.17.3.27.09.1.17.21.26.33l3.44,4.49h-1.58c-.14,0-.27-.02-.37-.07-.1-.05-.2-.13-.28-.26l-2.83-3.67c-.09-.14-.18-.23-.27-.27s-.23-.06-.41-.06h-.47v4.33h-1.75v-13.28h1.75Z"/>
    <path class="cls-1" d="M234.75,66.43c-.22.25-.46.47-.75.65-.28.18-.58.33-.9.45s-.65.2-.99.25-.67.08-1,.08c-.63,0-1.21-.11-1.75-.32s-1-.53-1.4-.94c-.39-.41-.7-.92-.92-1.53-.22-.61-.33-1.31-.33-2.1,0-.64.1-1.23.3-1.78.2-.55.48-1.03.85-1.44s.82-.73,1.35-.96c.53-.23,1.13-.35,1.8-.35.56,0,1.07.09,1.54.27.47.18.88.45,1.22.8.34.35.61.78.8,1.29.2.51.29,1.09.29,1.75,0,.27-.03.45-.09.54-.06.09-.17.14-.33.14h-5.99c.02.55.1,1.02.23,1.43.14.4.33.74.57,1.01.24.27.53.47.87.6s.71.2,1.12.2c.39,0,.73-.04,1.01-.13.29-.09.53-.19.74-.29.21-.1.38-.2.52-.29.14-.09.27-.13.37-.13.14,0,.25.05.33.16l.5.65ZM233.3,62.14c0-.35-.05-.67-.15-.96s-.25-.55-.44-.77c-.19-.22-.43-.38-.7-.5s-.59-.18-.95-.18c-.74,0-1.32.21-1.74.64-.42.43-.69,1.02-.81,1.77h4.79Z"/>
    <path class="cls-1" d="M251.38,67.73h-1.71c-.34,0-.59-.13-.75-.41l-3.2-4.48c-.1-.15-.21-.26-.33-.32-.12-.06-.3-.09-.54-.09h-1.25v5.3h-1.92v-12.92h3.73c.83,0,1.55.08,2.16.26.6.17,1.1.41,1.49.73.39.32.68.69.87,1.14.19.44.28.94.28,1.49,0,.45-.07.87-.21,1.27-.14.4-.34.75-.61,1.07-.27.32-.59.59-.98.81-.38.23-.82.4-1.3.52.24.14.45.34.62.6l3.64,5.03ZM245.34,61.03c.49,0,.93-.06,1.3-.18s.69-.29.94-.51c.25-.22.44-.48.57-.78.13-.3.19-.64.19-1,0-.74-.24-1.3-.73-1.68-.49-.38-1.22-.57-2.2-.57h-1.81v4.72h1.75Z"/>
    <path class="cls-1" d="M259.58,66.43c-.22.25-.46.47-.75.65-.28.18-.58.33-.9.45s-.65.2-.99.25-.67.08-1,.08c-.63,0-1.21-.11-1.75-.32s-1-.53-1.4-.94c-.39-.41-.7-.92-.92-1.53-.22-.61-.33-1.31-.33-2.1,0-.64.1-1.23.3-1.78.2-.55.48-1.03.85-1.44s.82-.73,1.35-.96c.53-.23,1.13-.35,1.8-.35.56,0,1.07.09,1.54.27.47.18.88.45,1.22.8.34.35.61.78.8,1.29.2.51.29,1.09.29,1.75,0,.27-.03.45-.09.54-.06.09-.17.14-.33.14h-5.99c.02.55.1,1.02.23,1.43.14.4.33.74.57,1.01.24.27.53.47.87.6s.71.2,1.12.2c.39,0,.73-.04,1.01-.13.29-.09.53-.19.74-.29.21-.1.38-.2.52-.29.14-.09.27-.13.37-.13.14,0,.25.05.33.16l.5.65ZM258.13,62.14c0-.35-.05-.67-.15-.96s-.25-.55-.44-.77c-.19-.22-.43-.38-.7-.5s-.59-.18-.95-.18c-.74,0-1.32.21-1.74.64-.42.43-.69,1.02-.81,1.77h4.79Z"/>
    <path class="cls-1" d="M269.27,58.59v12.21h-1.76v-4.37c-.38.43-.81.78-1.29,1.04-.48.26-1.04.39-1.67.39-.52,0-.99-.1-1.42-.31-.42-.2-.79-.5-1.08-.9-.3-.39-.53-.88-.69-1.46-.16-.58-.24-1.25-.24-2.01,0-.68.09-1.31.27-1.89.18-.58.44-1.09.78-1.51.34-.43.76-.76,1.24-1,.49-.24,1.04-.37,1.65-.37.29,0,.56.03.81.08.25.05.47.13.68.23.21.1.4.22.58.37.18.14.34.31.5.5l.12-.66c.06-.23.21-.35.46-.35h1.06ZM267.5,60.8c-.27-.37-.58-.63-.92-.78-.34-.16-.72-.23-1.13-.23-.8,0-1.43.29-1.87.87-.44.58-.66,1.42-.66,2.53,0,.58.05,1.08.15,1.49.1.41.24.75.43,1.01.19.26.42.45.7.58.28.12.59.18.94.18.51,0,.95-.11,1.32-.34.37-.23.72-.55,1.04-.96v-4.34Z"/>
    <path class="cls-1" d="M279.32,58.59v9.14h-1.05c-.24,0-.4-.12-.47-.35l-.13-.92c-.2.21-.41.4-.62.58-.22.17-.45.32-.69.45s-.51.22-.78.29c-.28.07-.57.1-.89.1-.5,0-.95-.08-1.33-.25-.38-.17-.7-.4-.96-.71s-.45-.67-.58-1.09c-.13-.43-.2-.9-.2-1.41v-5.82h1.76v5.82c0,.65.15,1.16.45,1.53.3.36.76.54,1.38.54.45,0,.87-.11,1.26-.32.39-.21.76-.51,1.1-.88v-6.7h1.75Z"/>
    <path class="cls-1" d="M289.28,66.43c-.22.25-.46.47-.75.65-.28.18-.58.33-.9.45s-.65.2-.99.25-.67.08-1,.08c-.63,0-1.21-.11-1.75-.32s-1-.53-1.4-.94c-.39-.41-.7-.92-.92-1.53-.22-.61-.33-1.31-.33-2.1,0-.64.1-1.23.3-1.78.2-.55.48-1.03.85-1.44s.82-.73,1.35-.96c.53-.23,1.13-.35,1.8-.35.56,0,1.07.09,1.54.27.47.18.88.45,1.22.8.34.35.61.78.8,1.29.2.51.29,1.09.29,1.75,0,.27-.03.45-.09.54-.06.09-.17.14-.33.14h-5.99c.02.55.1,1.02.23,1.43.14.4.33.74.57,1.01.24.27.53.47.87.6s.71.2,1.12.2c.39,0,.73-.04,1.01-.13.29-.09.53-.19.74-.29.21-.1.38-.2.52-.29.14-.09.27-.13.37-.13.14,0,.25.05.33.16l.5.65ZM287.83,62.14c0-.35-.05-.67-.15-.96s-.25-.55-.44-.77c-.19-.22-.43-.38-.7-.5s-.59-.18-.95-.18c-.74,0-1.32.21-1.74.64-.42.43-.69,1.02-.81,1.77h4.79Z"/>
    <path class="cls-1" d="M296.7,60.16c-.05.08-.1.13-.15.17-.05.03-.12.05-.21.05-.1,0-.2-.03-.32-.1-.12-.07-.26-.14-.42-.22s-.36-.15-.58-.22c-.22-.07-.49-.1-.79-.1-.25,0-.48.03-.69.09-.21.06-.38.15-.53.26-.14.11-.25.24-.33.4-.08.15-.12.32-.12.49,0,.23.07.42.2.57.13.15.31.28.53.39.22.11.47.21.75.29.28.09.56.18.85.27s.58.21.86.33c.28.12.53.28.75.46.22.18.4.4.53.66.14.26.2.57.2.95,0,.43-.08.82-.23,1.18-.15.36-.38.68-.67.94-.3.26-.67.47-1.1.62-.44.15-.94.22-1.5.22-.63,0-1.21-.1-1.75-.31-.53-.21-.98-.48-1.34-.8l.41-.68c.05-.08.11-.15.18-.19.07-.04.17-.07.29-.07.11,0,.23.04.35.13s.26.18.43.27c.17.1.37.19.61.27s.54.12.9.12c.3,0,.56-.04.78-.11.22-.08.41-.18.55-.31.15-.13.26-.28.33-.45.07-.17.11-.34.11-.53,0-.24-.07-.44-.2-.6s-.31-.3-.53-.41c-.22-.11-.47-.21-.75-.3-.28-.08-.57-.17-.86-.27s-.58-.21-.86-.33-.53-.29-.75-.48c-.22-.19-.4-.43-.53-.7-.13-.28-.2-.61-.2-1.01,0-.35.07-.69.22-1.02.15-.32.36-.61.64-.85.28-.25.62-.44,1.03-.59s.88-.22,1.41-.22c.61,0,1.15.1,1.64.29.49.19.91.46,1.25.79l-.39.64Z"/>
    <path class="cls-1" d="M301.99,67.87c-.74,0-1.31-.21-1.71-.62-.4-.41-.6-1-.6-1.77v-5.47h-1.06c-.1,0-.19-.03-.26-.09-.07-.06-.1-.16-.1-.28v-.71l1.48-.21.4-2.73c.02-.1.07-.18.14-.24.07-.06.16-.09.27-.09h.89v3.07h2.59v1.28h-2.59v5.35c0,.36.09.63.27.81s.4.27.68.27c.16,0,.3-.02.42-.06.12-.04.22-.09.3-.14.08-.05.16-.1.22-.14.06-.04.11-.06.16-.06.06,0,.11.01.14.04.03.03.07.07.1.13l.52.85c-.29.26-.63.47-1.03.61-.4.14-.81.22-1.23.22Z"/>
  </g>
  <path class="cls-1" d="M150.5,120.5H29.5V29.5h121v91ZM30.5,119.5h119V30.5H30.5v89Z"/>
  <path class="cls-1" d="M570.5,315.5h-226v-46h226v46ZM345.5,314.5h224v-44h-224v44Z"/>
  <rect class="cls-3" x="345" y="30" width="225" height="90"/>
  <rect class="cls-4" x="345" y="180" width="225" height="45"/>
  <g>
    <path class="cls-1" d="M417,67.73h-1.71c-.34,0-.59-.13-.75-.41l-3.2-4.48c-.1-.15-.21-.26-.33-.32-.12-.06-.3-.09-.54-.09h-1.25v5.3h-1.92v-12.92h3.73c.83,0,1.55.08,2.16.26.6.17,1.1.41,1.49.73.39.32.68.69.87,1.14.19.44.28.94.28,1.49,0,.45-.07.87-.21,1.27-.14.4-.34.75-.61,1.07-.27.32-.59.59-.98.81-.38.23-.82.4-1.3.52.24.14.45.34.62.6l3.64,5.03ZM410.97,61.03c.49,0,.93-.06,1.3-.18s.69-.29.94-.51c.25-.22.44-.48.57-.78.13-.3.19-.64.19-1,0-.74-.24-1.3-.73-1.68-.49-.38-1.22-.57-2.2-.57h-1.81v4.72h1.75Z"/>
    <path class="cls-1" d="M425.2,66.43c-.22.25-.46.47-.75.65-.28.18-.58.33-.9.45s-.65.2-.99.25-.67.08-1,.08c-.63,0-1.21-.11-1.75-.32s-1-.53-1.4-.94c-.39-.41-.7-.92-.92-1.53-.22-.61-.33-1.31-.33-2.1,0-.64.1-1.23.3-1.78.2-.55.48-1.03.85-1.44s.82-.73,1.35-.96c.53-.23,1.13-.35,1.8-.35.56,0,1.07.09,1.54.27.47.18.88.45,1.22.8.34.35.61.78.8,1.29.2.51.29,1.09.29,1.75,0,.27-.03.45-.09.54-.06.09-.17.14-.33.14h-5.99c.02.55.1,1.02.23,1.43.14.4.33.74.57,1.01.24.27.53.47.87.6s.71.2,1.12.2c.39,0,.73-.04,1.01-.13.29-.09.53-.19.74-.29.21-.1.38-.2.52-.29.14-.09.27-.13.37-.13.14,0,.25.05.33.16l.5.65ZM423.75,62.14c0-.35-.05-.67-.15-.96s-.25-.55-.44-.77c-.19-.22-.43-.38-.7-.5s-.59-.18-.95-.18c-.74,0-1.32.21-1.74.64-.42.43-.69,1.02-.81,1.77h4.79Z"/>
    <path class="cls-1" d="M434.89,54.45v13.28h-1.06c-.25,0-.4-.12-.46-.35l-.15-1.05c-.39.46-.83.83-1.33,1.11-.5.28-1.07.42-1.71.42-.52,0-.99-.1-1.42-.31-.42-.2-.79-.5-1.08-.9-.3-.39-.53-.88-.69-1.46-.16-.58-.24-1.25-.24-2.01,0-.68.09-1.31.27-1.89.18-.58.44-1.09.78-1.51.34-.43.76-.76,1.24-1,.49-.24,1.04-.37,1.65-.37.55,0,1.02.09,1.41.27.39.18.73.43,1.04.76v-5h1.76ZM433.12,60.8c-.29-.38-.6-.64-.93-.79-.33-.15-.71-.23-1.12-.23-.8,0-1.43.29-1.87.87-.44.58-.66,1.42-.66,2.53,0,.58.05,1.08.15,1.49.1.41.24.75.43,1.01.19.26.42.45.7.58.28.12.59.18.94.18.51,0,.95-.11,1.32-.34.37-.23.72-.55,1.04-.96v-4.34Z"/>
    <path class="cls-1" d="M439.51,55.76c0,.16-.03.32-.1.46-.07.15-.15.28-.27.39s-.24.2-.39.26c-.15.06-.31.09-.47.09s-.31-.03-.46-.09c-.14-.06-.27-.15-.38-.26s-.2-.24-.26-.39c-.06-.15-.09-.3-.09-.46s.03-.33.09-.47c.06-.15.15-.28.26-.39.11-.11.24-.2.38-.26.14-.06.3-.09.46-.09s.32.03.47.09c.15.06.28.15.39.26.11.11.2.24.27.39.07.15.1.3.1.47ZM439.18,58.59v9.14h-1.75v-9.14h1.75Z"/>
    <path class="cls-1" d="M447.12,60.16c-.05.08-.1.13-.15.17-.05.03-.12.05-.21.05-.1,0-.2-.03-.32-.1-.12-.07-.26-.14-.42-.22s-.36-.15-.58-.22c-.22-.07-.49-.1-.79-.1-.25,0-.48.03-.69.09-.21.06-.38.15-.53.26-.14.11-.25.24-.33.4-.08.15-.12.32-.12.49,0,.23.07.42.2.57.13.15.31.28.53.39.22.11.47.21.75.29.28.09.56.18.85.27s.58.21.86.33c.28.12.53.28.75.46.22.18.4.4.53.66.14.26.2.57.2.95,0,.43-.08.82-.23,1.18-.15.36-.38.68-.67.94-.3.26-.67.47-1.1.62-.44.15-.94.22-1.5.22-.63,0-1.21-.1-1.75-.31-.53-.21-.98-.48-1.34-.8l.41-.68c.05-.08.11-.15.18-.19.07-.04.17-.07.29-.07.11,0,.23.04.35.13s.26.18.43.27c.17.1.37.19.61.27s.54.12.9.12c.3,0,.56-.04.78-.11.22-.08.41-.18.55-.31.15-.13.26-.28.33-.45.07-.17.11-.34.11-.53,0-.24-.07-.44-.2-.6s-.31-.3-.53-.41c-.22-.11-.47-.21-.75-.3-.28-.08-.57-.17-.86-.27s-.58-.21-.86-.33-.53-.29-.75-.48c-.22-.19-.4-.43-.53-.7-.13-.28-.2-.61-.2-1.01,0-.35.07-.69.22-1.02.15-.32.36-.61.64-.85.28-.25.62-.44,1.03-.59s.88-.22,1.41-.22c.61,0,1.15.1,1.64.29.49.19.91.46,1.25.79l-.39.64Z"/>
    <path class="cls-1" d="M452.41,67.87c-.74,0-1.31-.21-1.71-.62-.4-.41-.6-1-.6-1.77v-5.47h-1.06c-.1,0-.19-.03-.26-.09-.07-.06-.1-.16-.1-.28v-.71l1.48-.21.4-2.73c.02-.1.07-.18.14-.24.07-.06.16-.09.27-.09h.89v3.07h2.59v1.28h-2.59v5.35c0,.36.09.63.27.81s.4.27.68.27c.16,0,.3-.02.42-.06.12-.04.22-.09.3-.14.08-.05.16-.1.22-.14.06-.04.11-.06.16-.06.06,0,.11.01.14.04.03.03.07.07.1.13l.52.85c-.29.26-.63.47-1.03.61-.4.14-.81.22-1.23.22Z"/>
    <path class="cls-1" d="M457.72,60.34c.29-.6.65-1.07,1.06-1.41s.91-.51,1.49-.51c.2,0,.38.02.56.07.18.04.33.11.46.2l-.12,1.32c-.04.16-.14.24-.3.24-.08,0-.21-.02-.38-.05s-.35-.05-.54-.05c-.28,0-.53.04-.75.12-.22.08-.41.2-.58.36s-.32.35-.45.58c-.13.23-.26.49-.37.79v5.72h-1.75v-9.14h1.01c.19,0,.32.03.39.1s.12.19.15.36l.11,1.29Z"/>
    <path class="cls-1" d="M464.83,55.76c0,.16-.03.32-.1.46-.07.15-.15.28-.27.39s-.24.2-.39.26c-.15.06-.31.09-.47.09s-.31-.03-.46-.09c-.14-.06-.27-.15-.38-.26s-.2-.24-.26-.39c-.06-.15-.09-.3-.09-.46s.03-.33.09-.47c.06-.15.15-.28.26-.39.11-.11.24-.2.38-.26.14-.06.3-.09.46-.09s.32.03.47.09c.15.06.28.15.39.26.11.11.2.24.27.39.07.15.1.3.1.47ZM464.5,58.59v9.14h-1.75v-9.14h1.75Z"/>
    <path class="cls-1" d="M468.8,59.85c.38-.42.81-.76,1.29-1.02.48-.26,1.03-.39,1.64-.39.53,0,1.02.1,1.44.31s.79.5,1.09.89c.3.39.53.86.69,1.41.16.55.24,1.18.24,1.87,0,.74-.09,1.41-.27,2.02-.18.61-.44,1.12-.78,1.56-.34.43-.75.77-1.24,1-.49.24-1.03.36-1.64.36-.29,0-.56-.03-.81-.09-.25-.06-.47-.14-.68-.25s-.4-.24-.57-.4c-.17-.16-.34-.33-.49-.53l-.08.76c-.05.25-.2.37-.45.37h-1.13v-13.28h1.75v5.4ZM468.8,65.48c.29.38.6.64.94.79.34.15.7.22,1.1.22.82,0,1.44-.29,1.88-.87.44-.58.66-1.46.66-2.64,0-1.09-.2-1.88-.58-2.39-.39-.51-.94-.76-1.66-.76-.5,0-.94.11-1.31.34-.37.23-.71.55-1.03.97v4.33Z"/>
    <path class="cls-1" d="M484.77,58.59v9.14h-1.05c-.24,0-.4-.12-.47-.35l-.13-.92c-.2.21-.41.4-.62.58-.22.17-.45.32-.69.45s-.51.22-.78.29c-.28.07-.57.1-.89.1-.5,0-.95-.08-1.33-.25-.38-.17-.7-.4-.96-.71s-.45-.67-.58-1.09c-.13-.43-.2-.9-.2-1.41v-5.82h1.76v5.82c0,.65.15,1.16.45,1.53.3.36.76.54,1.38.54.45,0,.87-.11,1.26-.32.39-.21.76-.51,1.1-.88v-6.7h1.75Z"/>
    <path class="cls-1" d="M490.08,67.87c-.74,0-1.31-.21-1.71-.62-.4-.41-.6-1-.6-1.77v-5.47h-1.06c-.1,0-.19-.03-.26-.09-.07-.06-.1-.16-.1-.28v-.71l1.48-.21.4-2.73c.02-.1.07-.18.14-.24.07-.06.16-.09.27-.09h.89v3.07h2.59v1.28h-2.59v5.35c0,.36.09.63.27.81s.4.27.68.27c.16,0,.3-.02.42-.06.12-.04.22-.09.3-.14.08-.05.16-.1.22-.14.06-.04.11-.06.16-.06.06,0,.11.01.14.04.03.03.07.07.1.13l.52.85c-.29.26-.63.47-1.03.61-.4.14-.81.22-1.23.22Z"/>
    <path class="cls-1" d="M497.58,58.44c.67,0,1.28.11,1.82.33.54.22,1,.53,1.39.95.38.41.67.91.88,1.49s.31,1.23.31,1.95-.1,1.37-.31,1.95-.5,1.08-.88,1.49c-.38.41-.84.72-1.39.94-.54.22-1.15.33-1.82.33s-1.29-.11-1.83-.33c-.54-.22-1.01-.53-1.39-.94-.38-.41-.68-.9-.89-1.49s-.31-1.23-.31-1.95.1-1.37.31-1.95.5-1.07.89-1.49.85-.73,1.39-.95c.54-.22,1.15-.33,1.83-.33ZM497.58,66.49c.86,0,1.51-.29,1.94-.87.43-.58.64-1.4.64-2.46s-.21-1.88-.64-2.46c-.43-.58-1.07-.88-1.94-.88s-1.53.29-1.96.88c-.43.58-.64,1.41-.64,2.46s.21,1.88.64,2.46c.43.58,1.08.87,1.96.87Z"/>
    <path class="cls-1" d="M505.58,60.34c.29-.6.65-1.07,1.06-1.41s.91-.51,1.49-.51c.2,0,.38.02.56.07.18.04.33.11.46.2l-.12,1.32c-.04.16-.14.24-.3.24-.08,0-.21-.02-.38-.05s-.35-.05-.54-.05c-.28,0-.53.04-.75.12-.22.08-.41.2-.58.36s-.32.35-.45.58c-.13.23-.26.49-.37.79v5.72h-1.75v-9.14h1.01c.19,0,.32.03.39.1s.12.19.15.36l.11,1.29Z"/>
  </g>
  <g>
    <path class="cls-1" d="M412.67,207.46c.11,0,.2.04.28.13l.76.83c-.53.62-1.17,1.11-1.93,1.45s-1.67.51-2.74.51c-.94,0-1.78-.16-2.54-.49s-1.41-.78-1.94-1.36c-.54-.58-.95-1.28-1.25-2.09-.29-.81-.44-1.7-.44-2.67s.16-1.86.46-2.67c.31-.81.74-1.51,1.3-2.09.56-.58,1.23-1.04,2-1.36.78-.32,1.64-.49,2.58-.49s1.73.15,2.45.45c.71.3,1.33.7,1.86,1.2l-.63.89c-.04.07-.09.12-.16.16-.06.04-.15.06-.25.06-.11,0-.25-.06-.4-.17-.15-.11-.35-.24-.6-.38s-.56-.27-.92-.38c-.37-.11-.82-.17-1.37-.17-.64,0-1.23.11-1.76.34-.53.22-.99.55-1.38.97-.39.42-.69.94-.9,1.56-.21.62-.32,1.31-.32,2.08s.11,1.49.33,2.1c.22.61.53,1.13.92,1.56.39.43.85.75,1.38.97.53.22,1.1.33,1.71.33.37,0,.71-.02,1-.07s.57-.11.82-.2c.25-.09.48-.21.71-.35.22-.14.44-.31.66-.51.05-.04.1-.08.15-.1.05-.03.11-.04.17-.04Z"/>
    <path class="cls-1" d="M419.56,197.31c.83,0,1.55.1,2.16.29.61.19,1.12.46,1.52.81.4.35.7.78.9,1.27.19.5.29,1.05.29,1.66s-.11,1.16-.32,1.67-.52.94-.93,1.31-.92.65-1.53.85-1.31.3-2.1.3h-2v4.76h-1.92v-12.92h3.92ZM419.56,203.96c.49,0,.91-.06,1.28-.19.37-.13.68-.3.93-.54.25-.23.44-.51.56-.83.13-.32.19-.68.19-1.07,0-.79-.24-1.4-.73-1.85s-1.23-.67-2.23-.67h-2v5.15h2Z"/>
    <path class="cls-1" d="M431.57,208.69c.52,0,.98-.09,1.39-.26.41-.17.75-.42,1.04-.73.28-.32.5-.69.65-1.12.15-.44.22-.92.22-1.44v-7.82h1.91v7.82c0,.76-.12,1.45-.36,2.1-.24.64-.58,1.2-1.03,1.67-.45.47-1,.83-1.64,1.1-.64.26-1.37.4-2.17.4s-1.53-.13-2.17-.4-1.19-.63-1.64-1.1-.79-1.02-1.04-1.67c-.24-.64-.36-1.34-.36-2.1v-7.82h1.92v7.81c0,.53.07,1.01.22,1.45.15.44.36.81.64,1.13.28.31.63.56,1.04.73s.87.26,1.39.26Z"/>
    <path class="cls-1" d="M446.16,198.26c0,.16-.03.32-.1.46-.07.15-.15.28-.27.39s-.24.2-.39.26c-.15.06-.31.09-.47.09s-.31-.03-.46-.09c-.14-.06-.27-.15-.38-.26s-.2-.24-.26-.39c-.06-.15-.09-.3-.09-.46s.03-.33.09-.47c.06-.15.15-.28.26-.39.11-.11.24-.2.38-.26.14-.06.3-.09.46-.09s.32.03.47.09c.15.06.28.15.39.26.11.11.2.24.27.39.07.15.1.3.1.47ZM445.83,201.09v9.14h-1.75v-9.14h1.75Z"/>
    <path class="cls-1" d="M450.02,202.36c.2-.21.41-.4.62-.58s.45-.32.69-.45.5-.22.78-.29c.28-.07.58-.1.9-.1.5,0,.95.08,1.33.25s.7.4.96.71c.26.3.45.67.58,1.09.13.43.2.9.2,1.41v5.82h-1.76v-5.82c0-.65-.15-1.16-.45-1.53-.3-.36-.76-.54-1.38-.54-.45,0-.87.11-1.26.32-.39.21-.76.5-1.09.87v6.71h-1.75v-9.14h1.05c.25,0,.4.12.46.35l.13.92Z"/>
    <path class="cls-1" d="M461.18,210.37c-.74,0-1.31-.21-1.71-.62-.4-.41-.6-1-.6-1.77v-5.47h-1.06c-.1,0-.19-.03-.26-.09-.07-.06-.1-.16-.1-.28v-.71l1.48-.21.4-2.73c.02-.1.07-.18.14-.24.07-.06.16-.09.27-.09h.89v3.07h2.59v1.28h-2.59v5.35c0,.36.09.63.27.81s.4.27.68.27c.16,0,.3-.02.42-.06.12-.04.22-.09.3-.14.08-.05.16-.1.22-.14.06-.04.11-.06.16-.06.06,0,.11.01.14.04.03.03.07.07.1.13l.52.85c-.29.26-.63.47-1.03.61-.4.14-.81.22-1.23.22Z"/>
    <path class="cls-1" d="M472.29,208.93c-.22.25-.46.47-.75.65-.28.18-.58.33-.9.45s-.65.2-.99.25-.67.08-1,.08c-.63,0-1.21-.11-1.75-.32s-1-.53-1.4-.94c-.39-.41-.7-.92-.92-1.53-.22-.61-.33-1.31-.33-2.1,0-.64.1-1.23.3-1.78.2-.55.48-1.03.85-1.44s.82-.73,1.35-.96c.53-.23,1.13-.35,1.8-.35.56,0,1.07.09,1.54.27.47.18.88.45,1.22.8.34.35.61.78.8,1.29.2.51.29,1.09.29,1.75,0,.27-.03.45-.09.54-.06.09-.17.14-.33.14h-5.99c.02.55.1,1.02.23,1.43.14.4.33.74.57,1.01.24.27.53.47.87.6s.71.2,1.12.2c.39,0,.73-.04,1.01-.13.29-.09.53-.19.74-.29.21-.1.38-.2.52-.29.14-.09.27-.13.37-.13.14,0,.25.05.33.16l.5.65ZM470.84,204.64c0-.35-.05-.67-.15-.96s-.25-.55-.44-.77c-.19-.22-.43-.38-.7-.5s-.59-.18-.95-.18c-.74,0-1.32.21-1.74.64-.42.43-.69,1.02-.81,1.77h4.79Z"/>
    <path class="cls-1" d="M475.97,202.84c.29-.6.65-1.07,1.06-1.41s.91-.51,1.49-.51c.2,0,.38.02.56.07.18.04.33.11.46.2l-.12,1.32c-.04.16-.14.24-.3.24-.08,0-.21-.02-.38-.05s-.35-.05-.54-.05c-.28,0-.53.04-.75.12-.22.08-.41.2-.58.36s-.32.35-.45.58c-.13.23-.26.49-.37.79v5.72h-1.75v-9.14h1.01c.19,0,.32.03.39.1s.12.19.15.36l.11,1.29Z"/>
    <path class="cls-1" d="M481.51,210.23v-7.7l-.95-.12c-.14-.03-.25-.08-.34-.15-.09-.07-.13-.17-.13-.3v-.73h1.42v-.83c0-.52.08-.99.22-1.39.15-.41.37-.75.64-1.04.28-.29.62-.5,1.01-.65.39-.15.83-.22,1.33-.22.41,0,.79.06,1.14.18l-.04.88c0,.08-.03.14-.07.18s-.1.07-.17.09c-.07.02-.15.03-.25.03-.1,0-.21,0-.32,0-.27,0-.52.03-.74.1-.22.07-.41.18-.57.33-.16.16-.28.36-.36.62s-.13.57-.13.95v.77h2.57v1.28h-2.51v7.72h-1.76Z"/>
    <path class="cls-1" d="M486.97,202.36c.51-.49,1.06-.85,1.66-1.09.6-.24,1.25-.36,1.97-.36.52,0,.98.09,1.39.26.4.17.74.41,1.02.72.28.31.48.67.62,1.1s.21.9.21,1.41v5.83h-.78c-.17,0-.31-.03-.4-.09-.09-.06-.16-.16-.22-.32l-.19-.8c-.23.22-.46.41-.69.57-.23.17-.47.31-.72.42-.25.12-.51.21-.8.27-.28.06-.59.09-.94.09s-.7-.05-1.01-.15c-.32-.1-.59-.25-.82-.45-.23-.2-.42-.46-.55-.76-.14-.31-.2-.66-.2-1.07,0-.36.1-.71.29-1.04.19-.33.51-.63.95-.9.44-.26,1.02-.48,1.73-.65s1.59-.26,2.62-.29v-.67c0-.69-.15-1.21-.44-1.55s-.73-.51-1.3-.51c-.38,0-.71.05-.97.14s-.49.2-.67.32c-.19.12-.35.22-.5.32-.14.1-.29.14-.44.14-.12,0-.22-.03-.31-.1-.09-.07-.16-.14-.21-.23l-.32-.57ZM492.12,206.17c-.71.02-1.32.08-1.82.17s-.9.2-1.21.35c-.31.14-.54.31-.67.51-.14.19-.21.41-.21.65,0,.23.04.42.11.59s.18.3.31.41c.13.11.28.18.46.23.17.05.36.07.57.07.27,0,.52-.03.74-.08.23-.05.44-.13.63-.23s.39-.22.57-.36c.18-.14.36-.31.53-.5v-1.8Z"/>
    <path class="cls-1" d="M502.61,202.8c-.05.07-.11.12-.16.16s-.12.06-.22.06-.2-.04-.3-.11c-.11-.08-.24-.16-.4-.24s-.35-.17-.58-.24c-.22-.08-.5-.11-.83-.11-.43,0-.81.08-1.14.23-.33.16-.6.38-.82.67s-.39.64-.5,1.05c-.11.41-.17.88-.17,1.39s.06,1.01.18,1.43.29.77.51,1.05.49.5.81.65c.32.15.67.22,1.06.22s.69-.05.94-.14c.25-.09.45-.19.61-.3.16-.11.3-.21.41-.3s.22-.14.33-.14c.14,0,.25.05.33.16l.5.65c-.21.26-.45.48-.71.66-.26.18-.54.33-.83.44s-.6.2-.92.25c-.32.05-.65.08-.98.08-.57,0-1.1-.11-1.6-.32s-.92-.52-1.29-.92c-.36-.4-.65-.9-.86-1.48-.21-.58-.32-1.25-.32-1.99,0-.68.09-1.3.28-1.88.19-.58.47-1.07.84-1.49.37-.42.82-.74,1.36-.98s1.16-.36,1.85-.36c.65,0,1.23.11,1.73.32s.94.51,1.33.89l-.47.65Z"/>
    <path class="cls-1" d="M512.16,208.93c-.22.25-.46.47-.75.65-.28.18-.58.33-.9.45s-.65.2-.99.25-.67.08-1,.08c-.63,0-1.21-.11-1.75-.32s-1-.53-1.4-.94c-.39-.41-.7-.92-.92-1.53-.22-.61-.33-1.31-.33-2.1,0-.64.1-1.23.3-1.78.2-.55.48-1.03.85-1.44s.82-.73,1.35-.96c.53-.23,1.13-.35,1.8-.35.56,0,1.07.09,1.54.27.47.18.88.45,1.22.8.34.35.61.78.8,1.29.2.51.29,1.09.29,1.75,0,.27-.03.45-.09.54-.06.09-.17.14-.33.14h-5.99c.02.55.1,1.02.23,1.43.14.4.33.74.57,1.01.24.27.53.47.87.6s.71.2,1.12.2c.39,0,.73-.04,1.01-.13.29-.09.53-.19.74-.29.21-.1.38-.2.52-.29.14-.09.27-.13.37-.13.14,0,.25.05.33.16l.5.65ZM510.71,204.64c0-.35-.05-.67-.15-.96s-.25-.55-.44-.77c-.19-.22-.43-.38-.7-.5s-.59-.18-.95-.18c-.74,0-1.32.21-1.74.64-.42.43-.69,1.02-.81,1.77h4.79Z"/>
  </g>
  <g>
    <path class="cls-1" d="M452.37,287.31c.83,0,1.55.1,2.16.29.61.19,1.12.46,1.52.81.4.35.7.78.9,1.27.19.5.29,1.05.29,1.66s-.11,1.16-.32,1.67-.52.94-.93,1.31-.92.65-1.53.85-1.31.3-2.1.3h-2v4.76h-1.92v-12.92h3.92ZM452.37,293.96c.49,0,.91-.06,1.28-.19.37-.13.68-.3.93-.54.25-.23.44-.51.56-.83.13-.32.19-.68.19-1.07,0-.79-.24-1.4-.73-1.85s-1.23-.67-2.23-.67h-2v5.15h2Z"/>
    <path class="cls-1" d="M467.36,298.67v1.56h-8.02v-12.92h8.01v1.56h-6.08v4.09h4.9v1.5h-4.9v4.21h6.09Z"/>
  </g>
  <rect class="cls-2" x="360" y="87.69" width="120" height="21.3"/>
  <g>
    <path class="cls-1" d="M375.4,98.76v3.16c-.56.31-1.12.54-1.68.7-.56.16-1.12.24-1.67.24-.79,0-1.49-.12-2.09-.35-.6-.23-1.11-.56-1.53-.98s-.74-.89-.97-1.42c-.23-.52-.35-1.18-.35-1.99v-1.35c0-.81.2-1.6.6-2.36.4-.77.95-1.35,1.65-1.75s1.46-.61,2.28-.61c1.19,0,2.19.33,3.01.98,0-.29,0-.46.03-.52.02-.06.06-.11.13-.15.06-.04.14-.07.22-.07.11,0,.19.04.26.11s.11.2.11.38v1.67c0,.18-.04.31-.11.38s-.16.11-.26.11c-.1,0-.18-.03-.25-.1-.07-.07-.1-.19-.11-.36-.04-.5-.36-.91-.97-1.22-.61-.32-1.28-.47-2-.47-.68,0-1.29.15-1.84.44s-1.06.86-1.53,1.69c-.32.54-.47,1.16-.47,1.85v1.34c0,1.22.38,2.2,1.12,2.92s1.78,1.08,3.1,1.08c.45,0,.86-.05,1.24-.14s.83-.26,1.34-.49v-2.73h-2.54c-.18,0-.3-.03-.38-.1-.08-.07-.11-.16-.11-.27s.04-.2.11-.27.2-.11.38-.11h3.55c.18,0,.3.04.38.11s.11.16.11.27c0,.08-.02.15-.07.21s-.1.11-.16.13c-.06.02-.23.03-.53.03Z"/>
    <path class="cls-1" d="M382.57,93.03v8.81h2.53c.18,0,.3.03.38.1s.11.16.11.27c0,.11-.04.19-.11.26s-.2.11-.38.11h-5.8c-.18,0-.3-.04-.38-.11s-.11-.16-.11-.26c0-.11.04-.2.11-.27s.2-.1.38-.1h2.53v-8.81h-2.53c-.18,0-.3-.03-.38-.1-.08-.07-.11-.16-.11-.27s.04-.2.11-.27.2-.1.38-.1h5.8c.18,0,.3.03.38.1s.11.16.11.27-.04.2-.11.27c-.08.07-.2.1-.38.1h-2.53Z"/>
    <path class="cls-1" d="M396.24,93.3v-.52c0-.18.03-.3.1-.38.07-.08.16-.11.27-.11s.2.04.27.11.1.2.1.38v2.05c0,.18-.03.31-.1.39s-.16.11-.27.11c-.1,0-.18-.04-.25-.11-.07-.07-.11-.18-.12-.34-.03-.49-.3-.93-.8-1.31-.68-.52-1.45-.78-2.32-.78-.57,0-1.1.13-1.61.38-.38.18-.67.4-.9.67-.39.46-.69.96-.92,1.52-.16.41-.25.87-.25,1.39v1.29c0,1.1.4,2.06,1.2,2.87.8.81,1.72,1.22,2.78,1.22.63,0,1.2-.14,1.7-.41.5-.28.99-.69,1.46-1.25.1-.12.21-.18.33-.18.11,0,.19.03.25.1s.1.15.1.25c0,.13-.13.34-.38.62-.48.54-1.02.95-1.62,1.22-.6.27-1.21.41-1.82.41-.53,0-1.08-.1-1.63-.31-.42-.16-.77-.34-1.05-.55s-.61-.57-1.01-1.07c-.4-.5-.68-.96-.82-1.39s-.22-.89-.22-1.4v-1.5c0-.73.19-1.47.58-2.23.39-.76.92-1.34,1.6-1.75.68-.41,1.41-.61,2.2-.61,1.22,0,2.27.42,3.15,1.25Z"/>
    <path class="cls-1" d="M401.39,97.98v3.85h1.36c.18,0,.31.03.39.1s.11.16.11.27c0,.11-.04.19-.11.26s-.21.11-.39.11h-3.09c-.18,0-.3-.04-.38-.11s-.11-.16-.11-.26c0-.11.04-.2.11-.27s.2-.1.38-.1h.99v-8.81h-.99c-.18,0-.3-.03-.38-.1-.08-.07-.11-.16-.11-.27s.04-.2.11-.27.2-.1.38-.1h4.46c.92,0,1.69.29,2.32.88s.95,1.24.95,1.97c0,.53-.2,1.02-.58,1.49-.39.46-1.04.85-1.96,1.16.53.36.98.77,1.35,1.23s.98,1.39,1.8,2.81h.56c.18,0,.3.03.38.1s.11.16.11.27c0,.11-.04.19-.11.26s-.2.11-.38.11h-.98c-.91-1.63-1.62-2.73-2.12-3.29-.5-.56-1.08-.99-1.73-1.3h-2.35ZM401.39,97.25h2.01c.64,0,1.23-.12,1.75-.35.52-.23.9-.51,1.14-.83.24-.32.36-.64.36-.97,0-.49-.25-.96-.74-1.41-.5-.45-1.1-.67-1.81-.67h-2.72v4.22Z"/>
    <path class="cls-1" d="M419.51,107.5h-9.82c-.18,0-.3-.03-.38-.1-.08-.07-.11-.16-.11-.27s.04-.2.11-.27.2-.1.38-.1h9.82c.18,0,.31.03.38.1s.11.16.11.27-.04.2-.11.27c-.07.07-.2.1-.38.1Z"/>
    <path class="cls-1" d="M428.64,102.57h-1.16l-2.09-7.3-2.05,7.3h-1.16l-1.09-9.54h-.27c-.18,0-.3-.03-.38-.1-.08-.07-.11-.16-.11-.27s.04-.2.11-.27.2-.1.38-.1h2.74c.18,0,.31.03.39.1s.11.16.11.27-.04.2-.11.27c-.08.07-.21.1-.39.1h-1.72l.98,8.7,2-7.16h1.13l2.05,7.16.96-8.7h-1.73c-.18,0-.3-.03-.38-.1-.08-.07-.11-.16-.11-.27s.04-.2.11-.27.2-.1.38-.1h2.72c.18,0,.31.03.39.1s.11.16.11.27-.04.2-.11.27c-.08.07-.21.1-.39.1h-.27l-1.03,9.54Z"/>
    <path class="cls-1" d="M438.63,99.13h-4.85l-.99,2.7h1.42c.18,0,.3.03.38.1s.11.16.11.27c0,.11-.04.19-.11.26s-.2.11-.38.11h-2.76c-.18,0-.3-.04-.38-.11s-.11-.16-.11-.26c0-.11.04-.2.11-.27s.2-.1.38-.1h.57l3.26-8.81h-2.18c-.18,0-.3-.03-.38-.1-.08-.07-.11-.16-.11-.27s.04-.2.11-.27.2-.1.38-.1h3.72l3.6,9.54h.57c.18,0,.3.03.38.1s.11.16.11.27c0,.11-.04.19-.11.26s-.2.11-.38.11h-2.75c-.18,0-.31-.04-.39-.11s-.11-.16-.11-.26c0-.11.04-.2.11-.27s.21-.1.39-.1h1.41l-1.01-2.7ZM438.35,98.4l-2.04-5.37h-.27l-1.98,5.37h4.29Z"/>
    <path class="cls-1" d="M444.61,98.55v3.29h1.36c.18,0,.31.03.39.1s.11.16.11.27c0,.11-.04.19-.11.26s-.21.11-.39.11h-3.09c-.18,0-.3-.04-.38-.11s-.11-.16-.11-.26c0-.11.04-.2.11-.27s.2-.1.38-.1h.99v-8.81h-.99c-.18,0-.3-.03-.38-.1-.08-.07-.11-.16-.11-.27s.04-.2.11-.27.2-.1.38-.1h3.09c.18,0,.31.03.39.1s.11.16.11.27-.04.2-.11.27c-.08.07-.21.1-.39.1h-1.36v4.54l5.1-4.54h-.81c-.18,0-.31-.03-.39-.1-.08-.07-.11-.16-.11-.27s.04-.2.11-.27.21-.1.39-.1h2.17c.18,0,.3.03.38.1s.11.16.11.27-.04.2-.11.27c-.08.07-.2.1-.38.1h-.3l-4.06,3.63c.6.25,1.1.55,1.5.92s.78.89,1.15,1.57c.21.38.6,1.27,1.16,2.68h.92c.18,0,.31.03.39.1s.11.16.11.27c0,.11-.04.19-.11.26s-.21.11-.39.11h-1.42c-.77-2.12-1.42-3.48-1.95-4.08-.53-.61-1.19-1.03-1.98-1.28l-1.49,1.34Z"/>
    <path class="cls-1" d="M455.4,97.61v4.23h5.68v-2.18c0-.18.03-.3.1-.38s.16-.11.27-.11.2.04.27.11c.07.08.1.2.1.38v2.92h-8.15c-.18,0-.3-.04-.38-.11s-.11-.16-.11-.26c0-.11.04-.2.11-.27s.2-.1.38-.1h.99v-8.81h-.99c-.18,0-.3-.03-.38-.1-.08-.07-.11-.16-.11-.27s.04-.2.11-.27.2-.1.38-.1h7.76v2.54c0,.18-.03.3-.1.38-.07.08-.16.11-.27.11s-.2-.04-.27-.11-.1-.2-.1-.38v-1.8h-5.29v3.84h2.65v-.83c0-.18.04-.3.11-.38s.16-.11.27-.11c.11,0,.19.04.26.11s.11.2.11.38v2.41c0,.18-.04.3-.11.38s-.16.11-.26.11c-.11,0-.2-.04-.27-.11s-.11-.2-.11-.38v-.83h-2.65Z"/>
    <path class="cls-1" d="M466.2,97.98v3.85h1.36c.18,0,.31.03.39.1s.11.16.11.27c0,.11-.04.19-.11.26s-.21.11-.39.11h-3.09c-.18,0-.3-.04-.38-.11s-.11-.16-.11-.26c0-.11.04-.2.11-.27s.2-.1.38-.1h.99v-8.81h-.99c-.18,0-.3-.03-.38-.1-.08-.07-.11-.16-.11-.27s.04-.2.11-.27.2-.1.38-.1h4.46c.92,0,1.69.29,2.32.88s.95,1.24.95,1.97c0,.53-.2,1.02-.58,1.49-.39.46-1.04.85-1.96,1.16.53.36.98.77,1.35,1.23s.98,1.39,1.8,2.81h.56c.18,0,.3.03.38.1s.11.16.11.27c0,.11-.04.19-.11.26s-.2.11-.38.11h-.98c-.91-1.63-1.62-2.73-2.12-3.29-.5-.56-1.08-.99-1.73-1.3h-2.35ZM466.2,97.25h2.01c.64,0,1.23-.12,1.75-.35.52-.23.9-.51,1.14-.83.24-.32.36-.64.36-.97,0-.49-.25-.96-.74-1.41-.5-.45-1.1-.67-1.81-.67h-2.72v4.22Z"/>
  </g>
  <g>
    <path class="cls-1" d="M339.26,293.5H89.93l-.15-.15c-.58-.58-.75-58.91-.5-173.35h1c-.12,57.31-.22,165.18.29,172.5h248.69v1Z"/>
    <polygon class="cls-1" points="338.09 296.99 345 293 338.09 289.01 338.09 296.99"/>
  </g>
</svg>