<svg xmlns="http://www.w3.org/2000/svg" id="Layer_1" viewBox="0 0 660 450" width="660" height="450">
  <defs>
    <style>
      .cls-1 {
        fill: #333e48;
      }
    </style>
  </defs>
  <g>
    <path class="cls-1" d="M62.44,96.64h-1.93v-12.92h1.93v12.92Z"/>
    <path class="cls-1" d="M66.78,88.77c.2-.21.41-.4.62-.58.22-.17.45-.32.69-.45.24-.12.5-.22.78-.29.28-.07.58-.1.89-.1.5,0,.95.08,1.33.25s.7.4.96.71c.26.3.45.67.58,1.09.13.43.2.9.2,1.41v5.82h-1.76v-5.82c0-.65-.15-1.16-.45-1.53-.3-.36-.76-.54-1.38-.54-.45,0-.87.11-1.26.32s-.76.5-1.09.87v6.71h-1.75v-9.14h1.05c.25,0,.4.12.46.35l.13.92Z"/>
    <path class="cls-1" d="M74.97,88.78c.51-.49,1.06-.85,1.66-1.09.6-.24,1.25-.36,1.97-.36.52,0,.98.09,1.39.26s.74.41,1.02.72c.28.31.48.67.62,1.1s.21.9.21,1.41v5.83h-.78c-.17,0-.31-.03-.4-.09-.09-.06-.16-.16-.22-.32l-.19-.8c-.23.22-.47.41-.69.57s-.47.31-.72.42c-.25.12-.51.21-.8.27-.28.06-.59.09-.94.09-.36,0-.7-.05-1.01-.15-.32-.1-.59-.25-.82-.45s-.42-.46-.55-.76c-.13-.31-.2-.66-.2-1.07,0-.36.1-.71.29-1.04s.51-.63.95-.9c.44-.26,1.02-.48,1.73-.65s1.59-.26,2.62-.29v-.67c0-.69-.15-1.21-.44-1.55s-.73-.51-1.3-.51c-.38,0-.71.05-.97.14s-.49.2-.67.32-.35.22-.5.32c-.14.1-.29.14-.44.14-.12,0-.22-.03-.31-.1-.09-.07-.16-.14-.21-.23l-.32-.57ZM80.11,92.58c-.71.02-1.32.08-1.82.17s-.9.2-1.22.35c-.31.14-.54.31-.67.51-.14.19-.21.41-.21.65,0,.23.04.42.11.59s.18.3.31.41c.13.11.28.18.46.23.17.05.36.07.57.07.27,0,.52-.03.74-.08.23-.05.44-.13.63-.23.2-.1.39-.22.57-.36.18-.14.36-.31.53-.5v-1.8Z"/>
    <path class="cls-1" d="M90.6,89.21c-.05.07-.11.12-.16.16s-.12.06-.22.06-.2-.04-.3-.11c-.1-.08-.24-.16-.4-.24-.16-.09-.35-.17-.58-.24s-.5-.11-.83-.11c-.43,0-.81.08-1.14.23-.33.16-.6.38-.82.67-.22.29-.39.64-.5,1.05s-.17.88-.17,1.39.06,1.01.18,1.43c.12.42.29.77.51,1.05.22.29.49.5.81.65.32.15.67.22,1.06.22s.69-.05.94-.14c.25-.09.45-.19.61-.3.16-.11.3-.21.41-.3.11-.09.22-.14.33-.14.14,0,.26.05.33.16l.5.65c-.21.26-.45.48-.71.66-.26.18-.54.33-.83.44-.29.11-.6.2-.92.25s-.65.08-.98.08c-.57,0-1.1-.11-1.6-.32s-.92-.52-1.29-.92c-.36-.4-.65-.9-.86-1.48s-.32-1.25-.32-1.99c0-.68.1-1.3.28-1.88s.47-1.07.84-1.49.82-.74,1.36-.98,1.16-.36,1.85-.36c.65,0,1.23.11,1.73.32s.94.51,1.33.89l-.47.65Z"/>
    <path class="cls-1" d="M95.67,96.79c-.74,0-1.31-.21-1.71-.62-.4-.41-.6-1-.6-1.77v-5.47h-1.06c-.1,0-.19-.03-.26-.09-.07-.06-.1-.16-.1-.28v-.71l1.48-.21.4-2.73c.02-.1.07-.18.14-.24s.16-.09.26-.09h.89v3.07h2.59v1.28h-2.59v5.35c0,.36.09.63.27.81s.4.27.68.27c.16,0,.3-.02.42-.06.12-.04.22-.09.3-.14.08-.05.16-.1.22-.14s.11-.06.16-.06c.06,0,.11.01.14.04.03.03.07.07.1.13l.52.85c-.29.26-.63.47-1.03.61-.4.14-.81.22-1.23.22Z"/>
    <path class="cls-1" d="M101.49,84.67c0,.16-.03.32-.1.46-.07.15-.16.28-.27.39-.11.11-.24.2-.39.26-.15.06-.31.09-.47.09s-.32-.03-.46-.09c-.14-.06-.27-.15-.38-.26-.11-.11-.2-.24-.26-.39-.06-.15-.09-.3-.09-.46s.03-.33.09-.47.15-.28.26-.39c.11-.11.24-.2.38-.26.14-.06.3-.09.46-.09s.32.03.47.09c.15.06.28.15.39.26s.2.24.27.39c.07.15.1.3.1.47ZM101.16,87.5v9.14h-1.75v-9.14h1.75Z"/>
    <path class="cls-1" d="M111.64,87.5l-3.71,9.14h-1.58l-3.71-9.14h1.45c.14,0,.25.03.34.1s.15.15.18.25l2.19,5.62c.08.23.14.47.2.7.06.23.11.46.16.69.05-.23.1-.46.16-.68.06-.23.13-.46.22-.7l2.21-5.62c.04-.1.1-.19.19-.25s.2-.1.32-.1h1.38Z"/>
    <path class="cls-1" d="M120.29,95.34c-.22.25-.46.47-.75.65-.28.18-.58.33-.9.45-.32.11-.65.2-.99.25s-.67.08-1,.08c-.63,0-1.21-.11-1.75-.32s-1-.53-1.39-.94c-.39-.41-.7-.92-.92-1.53-.22-.61-.33-1.31-.33-2.1,0-.64.1-1.23.3-1.78.2-.55.48-1.03.85-1.44s.82-.73,1.35-.96c.53-.23,1.13-.35,1.8-.35.56,0,1.07.09,1.54.27.47.18.88.45,1.22.8s.61.78.8,1.29.29,1.09.29,1.75c0,.27-.03.45-.09.54-.06.09-.17.14-.33.14h-5.99c.02.55.1,1.02.23,1.43.14.4.33.74.57,1.01.24.27.53.47.87.6s.71.2,1.12.2c.39,0,.73-.04,1.01-.13.29-.09.53-.19.74-.29.21-.1.38-.2.52-.29.14-.09.27-.13.37-.13.14,0,.26.05.33.16l.5.65ZM118.84,91.05c0-.35-.05-.67-.15-.96s-.24-.55-.44-.77c-.19-.22-.43-.38-.7-.5s-.59-.18-.95-.18c-.74,0-1.32.21-1.74.64-.42.43-.69,1.02-.81,1.77h4.79Z"/>
  </g>
  <g>
    <path class="cls-1" d="M303.51,83.72c.83,0,1.55.1,2.16.29.61.19,1.12.46,1.52.81.4.35.7.78.9,1.27.19.5.29,1.05.29,1.66s-.1,1.16-.32,1.67c-.21.51-.52.94-.93,1.31-.41.37-.92.65-1.53.85s-1.31.3-2.1.3h-2v4.76h-1.92v-12.92h3.92ZM303.51,90.37c.49,0,.91-.06,1.28-.19s.68-.3.93-.54c.25-.23.44-.51.56-.83.12-.32.19-.68.19-1.07,0-.79-.25-1.4-.73-1.85-.49-.45-1.23-.67-2.23-.67h-2v5.15h2Z"/>
    <path class="cls-1" d="M317.17,95.34c-.22.25-.46.47-.75.65-.28.18-.58.33-.9.45-.32.11-.65.2-.98.25-.34.05-.67.08-1,.08-.63,0-1.21-.11-1.75-.32s-1-.53-1.4-.94c-.39-.41-.7-.92-.92-1.53-.22-.61-.33-1.31-.33-2.1,0-.64.1-1.23.3-1.78.2-.55.48-1.03.85-1.44s.82-.73,1.35-.96c.54-.23,1.13-.35,1.8-.35.56,0,1.07.09,1.54.27.47.18.88.45,1.22.8.34.35.61.78.81,1.29s.29,1.09.29,1.75c0,.27-.03.45-.09.54-.06.09-.17.14-.33.14h-5.99c.02.55.1,1.02.23,1.43.14.4.33.74.57,1.01.24.27.53.47.87.6s.71.2,1.12.2c.39,0,.73-.04,1.01-.13.28-.09.53-.19.74-.29.21-.1.38-.2.52-.29.14-.09.27-.13.37-.13.14,0,.25.05.33.16l.5.65ZM315.72,91.05c0-.35-.05-.67-.15-.96-.1-.29-.25-.55-.44-.77-.19-.22-.43-.38-.7-.5-.28-.12-.59-.18-.96-.18-.74,0-1.32.21-1.74.64-.42.43-.69,1.02-.81,1.77h4.79Z"/>
    <path class="cls-1" d="M320.84,88.77c.2-.21.41-.4.62-.58s.45-.32.69-.45.5-.22.78-.29c.28-.07.58-.1.9-.1.5,0,.95.08,1.33.25s.7.4.96.71c.26.3.45.67.58,1.09.13.43.2.9.2,1.41v5.82h-1.76v-5.82c0-.65-.15-1.16-.45-1.53-.3-.36-.76-.54-1.38-.54-.45,0-.87.11-1.26.32-.39.21-.76.5-1.09.87v6.71h-1.76v-9.14h1.05c.25,0,.4.12.46.35l.13.92Z"/>
    <path class="cls-1" d="M336.93,83.36v13.28h-1.06c-.25,0-.4-.12-.46-.35l-.15-1.05c-.39.46-.83.83-1.33,1.11-.49.28-1.07.42-1.71.42-.52,0-.99-.1-1.42-.31-.42-.2-.78-.5-1.08-.9-.3-.39-.53-.88-.69-1.46s-.24-1.25-.24-2.01c0-.68.09-1.31.27-1.89.18-.58.44-1.09.78-1.51.34-.43.76-.76,1.24-1s1.04-.37,1.65-.37c.55,0,1.02.09,1.41.27.39.18.73.43,1.04.76v-5h1.76ZM335.16,89.71c-.29-.38-.6-.64-.93-.79-.33-.15-.71-.23-1.12-.23-.8,0-1.43.29-1.87.87s-.66,1.42-.66,2.53c0,.58.05,1.08.15,1.49.1.41.24.75.43,1.01.19.26.42.45.7.58.28.12.59.18.94.18.51,0,.95-.11,1.32-.34.37-.23.72-.55,1.04-.96v-4.34Z"/>
    <path class="cls-1" d="M341.55,84.67c0,.16-.03.32-.1.46-.07.15-.16.28-.27.39-.11.11-.24.2-.39.26-.15.06-.31.09-.47.09s-.32-.03-.46-.09c-.14-.06-.27-.15-.38-.26s-.2-.24-.26-.39c-.06-.15-.09-.3-.09-.46s.03-.33.09-.47c.06-.15.15-.28.26-.39.11-.11.24-.2.38-.26.14-.06.3-.09.46-.09s.32.03.47.09c.15.06.28.15.39.26s.2.24.27.39c.07.15.1.3.1.47ZM341.22,87.5v9.14h-1.76v-9.14h1.76Z"/>
    <path class="cls-1" d="M345.41,88.77c.2-.21.41-.4.62-.58s.45-.32.69-.45.5-.22.78-.29c.28-.07.58-.1.9-.1.5,0,.95.08,1.33.25.38.17.7.4.96.71.26.3.45.67.59,1.09.13.43.2.9.2,1.41v5.82h-1.76v-5.82c0-.65-.15-1.16-.45-1.53-.3-.36-.76-.54-1.38-.54-.45,0-.87.11-1.27.32-.39.21-.76.5-1.09.87v6.71h-1.75v-9.14h1.05c.25,0,.4.12.46.35l.13.92Z"/>
    <path class="cls-1" d="M361.63,87.84v.66c0,.22-.13.35-.41.4l-.98.14c.08.19.15.38.2.59.05.21.07.42.07.65,0,.45-.09.86-.26,1.22-.17.36-.41.67-.72.93-.31.26-.67.46-1.09.59-.42.14-.89.21-1.39.21-.41,0-.8-.04-1.16-.13-.18.11-.32.23-.41.36-.09.13-.14.26-.14.38,0,.21.09.37.27.47.18.1.41.18.69.22.29.04.61.07.98.08.37.01.74.03,1.12.06.38.03.76.08,1.12.14.37.07.7.18.98.33.29.15.52.36.69.63.18.27.27.61.27,1.04,0,.4-.1.78-.29,1.15s-.48.7-.85.99-.83.52-1.36.69-1.14.26-1.82.26-1.27-.07-1.77-.2c-.5-.13-.92-.31-1.25-.53-.33-.22-.58-.48-.75-.77-.16-.29-.25-.6-.25-.92,0-.44.14-.82.41-1.13s.66-.55,1.14-.72c-.26-.12-.47-.28-.63-.49s-.23-.48-.23-.82c0-.13.02-.27.07-.41.05-.14.12-.28.22-.42.1-.14.22-.27.37-.4s.32-.24.51-.34c-.45-.25-.8-.59-1.06-1-.26-.42-.39-.9-.39-1.46,0-.45.09-.86.26-1.22.17-.36.42-.67.72-.93s.68-.46,1.11-.59c.43-.14.9-.21,1.41-.21.79,0,1.47.17,2.04.5h2.54ZM359.85,97.12c0-.22-.06-.39-.18-.52-.12-.13-.28-.23-.49-.31s-.45-.13-.72-.16c-.28-.03-.57-.06-.87-.08s-.61-.03-.93-.05c-.32-.01-.62-.04-.92-.08-.31.16-.57.34-.77.57-.2.22-.3.48-.3.78,0,.19.05.37.15.54s.25.31.46.44.47.22.78.29.69.1,1.13.1.81-.04,1.14-.11c.33-.08.61-.18.83-.32.22-.13.4-.29.51-.48.12-.19.18-.39.18-.61ZM357.05,92.08c.31,0,.59-.04.82-.13.24-.08.43-.2.59-.36.16-.15.28-.34.36-.55.08-.22.12-.45.12-.71,0-.53-.16-.95-.48-1.26-.32-.32-.79-.47-1.42-.47s-1.09.16-1.41.47c-.32.31-.48.74-.48,1.26,0,.26.04.49.12.71.08.21.2.4.36.55.16.15.36.27.59.36.24.09.51.13.81.13Z"/>
  </g>
  <g>
    <path class="cls-1" d="M540.31,85.84h-1.48c-.17,0-.31-.04-.41-.13s-.19-.19-.23-.32l-1.14-3h-5.7l-1.14,3c-.04.11-.12.22-.23.31-.11.09-.25.14-.41.14h-1.48l5.15-12.92h1.94l5.15,12.92ZM536.53,81.03l-1.92-5.01c-.14-.34-.28-.77-.41-1.3-.07.26-.13.5-.2.72-.07.22-.14.42-.2.59l-1.91,4.99h4.64Z"/>
    <path class="cls-1" d="M547.73,78.41c-.05.07-.11.12-.16.16s-.12.06-.22.06-.2-.04-.3-.11c-.11-.08-.24-.16-.4-.24s-.35-.17-.58-.24-.5-.11-.83-.11c-.43,0-.81.08-1.14.23-.33.16-.61.38-.82.67s-.39.64-.5,1.05c-.11.41-.17.88-.17,1.39s.06,1.01.18,1.43c.12.42.29.77.51,1.05s.49.5.81.65c.32.15.67.22,1.06.22s.69-.05.94-.14c.25-.09.45-.19.61-.3.16-.11.3-.21.41-.3s.22-.14.33-.14c.14,0,.25.05.33.16l.5.65c-.21.26-.45.48-.71.66-.26.18-.54.33-.83.44s-.6.2-.92.25c-.32.05-.65.08-.98.08-.57,0-1.1-.11-1.6-.32-.5-.21-.92-.52-1.29-.92-.36-.4-.65-.9-.86-1.48-.21-.58-.32-1.25-.32-1.99,0-.68.09-1.3.28-1.88.19-.58.47-1.07.84-1.49s.82-.74,1.36-.98c.54-.24,1.16-.36,1.85-.36.65,0,1.23.11,1.73.32s.94.51,1.33.89l-.47.65Z"/>
    <path class="cls-1" d="M552.8,85.99c-.74,0-1.31-.21-1.71-.62-.4-.41-.6-1-.6-1.77v-5.47h-1.06c-.1,0-.19-.03-.26-.09-.07-.06-.1-.16-.1-.28v-.71l1.49-.21.4-2.73c.02-.1.07-.18.14-.24.07-.06.16-.09.26-.09h.89v3.07h2.59v1.28h-2.59v5.35c0,.36.09.63.27.81.18.18.4.27.68.27.16,0,.3-.02.42-.06s.22-.09.3-.14c.08-.05.16-.1.22-.14.06-.04.11-.06.16-.06.06,0,.11.01.14.04.03.03.07.07.1.13l.52.85c-.29.26-.63.47-1.03.61-.4.14-.81.22-1.23.22Z"/>
    <path class="cls-1" d="M558.62,73.87c0,.16-.03.32-.1.46-.07.15-.16.28-.27.39-.11.11-.24.2-.39.26-.15.06-.31.09-.47.09s-.32-.03-.46-.09c-.14-.06-.27-.15-.38-.26s-.2-.24-.26-.39c-.06-.15-.09-.3-.09-.46s.03-.33.09-.47c.06-.15.15-.28.26-.39.11-.11.24-.2.38-.26.14-.06.3-.09.46-.09s.32.03.47.09c.15.06.28.15.39.26s.2.24.27.39c.07.15.1.3.1.47ZM558.29,76.7v9.14h-1.76v-9.14h1.76Z"/>
    <path class="cls-1" d="M568.77,76.7l-3.71,9.14h-1.58l-3.71-9.14h1.45c.14,0,.25.03.34.1s.15.15.18.25l2.19,5.62c.08.23.15.47.2.7.06.23.11.46.16.69.05-.23.1-.46.16-.68.06-.23.13-.46.22-.7l2.21-5.62c.04-.1.1-.19.19-.25s.2-.1.32-.1h1.38Z"/>
    <path class="cls-1" d="M577.42,84.54c-.22.25-.46.47-.75.65-.28.18-.58.33-.9.45s-.65.2-.99.25c-.34.05-.67.08-1,.08-.63,0-1.21-.11-1.75-.32s-1-.53-1.39-.94c-.39-.41-.7-.92-.92-1.53-.22-.61-.33-1.31-.33-2.1,0-.64.1-1.23.3-1.78.2-.55.48-1.03.85-1.44s.82-.73,1.36-.96c.53-.23,1.13-.35,1.8-.35.56,0,1.07.09,1.54.27.47.18.88.45,1.22.8s.61.78.81,1.29c.19.51.29,1.09.29,1.75,0,.27-.03.45-.09.54-.06.09-.17.14-.33.14h-5.99c.02.55.1,1.02.23,1.43.14.4.33.74.57,1.01.24.27.53.47.87.6s.71.2,1.12.2c.39,0,.73-.04,1.01-.13.29-.09.53-.19.74-.29.21-.1.38-.2.52-.29.14-.09.27-.13.37-.13.14,0,.25.05.33.16l.5.65ZM575.97,80.25c0-.35-.05-.67-.15-.96-.1-.29-.24-.55-.44-.77-.19-.22-.43-.38-.7-.5-.28-.12-.59-.18-.95-.18-.74,0-1.32.21-1.74.64-.42.43-.69,1.02-.8,1.77h4.79Z"/>
    <path class="cls-1" d="M583.76,77.98c.51-.49,1.06-.85,1.66-1.09.6-.24,1.25-.36,1.97-.36.52,0,.98.09,1.39.26.4.17.74.41,1.02.72.28.31.49.67.63,1.1.14.43.21.9.21,1.41v5.83h-.78c-.17,0-.31-.03-.4-.09-.09-.06-.16-.16-.21-.32l-.19-.8c-.23.22-.46.41-.69.57s-.47.31-.71.42c-.25.12-.52.21-.8.27-.28.06-.59.09-.94.09-.36,0-.7-.05-1.01-.15-.31-.1-.59-.25-.82-.45-.23-.2-.42-.46-.55-.76-.13-.31-.2-.66-.2-1.07,0-.36.1-.71.29-1.04.2-.33.51-.63.96-.9.44-.26,1.02-.48,1.73-.65s1.58-.26,2.62-.29v-.67c0-.69-.15-1.21-.44-1.55s-.73-.51-1.3-.51c-.38,0-.71.05-.97.14-.26.1-.49.2-.67.32s-.35.22-.5.32c-.14.1-.29.14-.44.14-.12,0-.22-.03-.31-.1-.09-.07-.16-.14-.21-.23l-.31-.57ZM588.9,81.78c-.71.02-1.32.08-1.82.17s-.9.2-1.21.35c-.31.14-.54.31-.68.51-.14.19-.21.41-.21.65,0,.23.04.42.11.59.07.17.18.3.31.41.13.11.28.18.45.23s.36.07.57.07c.27,0,.52-.03.74-.08.22-.05.44-.13.63-.23s.39-.22.57-.36c.18-.14.36-.31.53-.5v-1.8Z"/>
    <path class="cls-1" d="M594.63,77.97c.2-.21.41-.4.62-.58.22-.17.45-.32.69-.45.24-.12.5-.22.78-.29.28-.07.58-.1.89-.1.5,0,.95.08,1.33.25s.7.4.96.71c.26.3.45.67.58,1.09.13.43.2.9.2,1.41v5.82h-1.76v-5.82c0-.65-.15-1.16-.45-1.53-.3-.36-.76-.54-1.38-.54-.45,0-.87.11-1.26.32s-.76.5-1.09.87v6.71h-1.75v-9.14h1.05c.25,0,.4.12.46.35l.13.92Z"/>
    <path class="cls-1" d="M610.71,72.56v13.28h-1.06c-.25,0-.4-.12-.46-.35l-.15-1.05c-.39.46-.83.83-1.33,1.11-.5.28-1.07.42-1.71.42-.52,0-.99-.1-1.42-.31-.42-.2-.78-.5-1.08-.9-.3-.39-.53-.88-.69-1.46s-.24-1.25-.24-2.01c0-.68.09-1.31.27-1.89s.44-1.09.78-1.51c.34-.43.76-.76,1.24-1s1.04-.37,1.65-.37c.55,0,1.02.09,1.41.27.39.18.73.43,1.04.76v-5h1.76ZM608.95,78.91c-.29-.38-.6-.64-.93-.79-.33-.15-.71-.23-1.12-.23-.8,0-1.43.29-1.87.87-.44.58-.66,1.42-.66,2.53,0,.58.05,1.08.15,1.49.1.41.24.75.43,1.01.19.26.42.45.7.58s.59.18.94.18c.51,0,.95-.11,1.32-.34.37-.23.72-.55,1.04-.96v-4.34Z"/>
    <path class="cls-1" d="M538.55,99.67c.19-.23.4-.44.62-.62.22-.19.46-.35.71-.49s.52-.24.8-.31.59-.11.91-.11c.52,0,.99.1,1.42.31.42.2.78.5,1.08.9.3.4.53.89.7,1.47.17.58.25,1.25.25,2.01,0,.68-.09,1.31-.28,1.89-.18.58-.44,1.08-.78,1.51-.34.43-.75.76-1.24,1s-1.04.36-1.65.36c-.55,0-1.01-.09-1.4-.27-.39-.18-.74-.43-1.04-.76v3.97h-1.75v-12.21h1.05c.25,0,.4.12.46.35l.15,1.02ZM538.64,105.19c.29.38.6.64.93.79.33.15.71.22,1.12.22.8,0,1.43-.29,1.87-.87.44-.58.66-1.42.66-2.53,0-.58-.05-1.08-.15-1.49-.1-.41-.24-.75-.43-1.01-.19-.26-.42-.45-.7-.58-.28-.12-.59-.18-.94-.18-.51,0-.95.11-1.33.34-.38.23-.72.55-1.04.97v4.33Z"/>
    <path class="cls-1" d="M554.52,106.14c-.22.25-.46.47-.75.65-.28.18-.58.33-.9.45s-.65.2-.99.25c-.34.05-.67.08-1,.08-.63,0-1.21-.11-1.75-.32s-1-.53-1.39-.94c-.39-.41-.7-.92-.92-1.53-.22-.61-.33-1.31-.33-2.1,0-.64.1-1.23.3-1.78.2-.55.48-1.03.85-1.44s.82-.73,1.36-.96c.53-.23,1.13-.35,1.8-.35.56,0,1.07.09,1.54.27.47.18.88.45,1.22.8s.61.78.81,1.29c.19.51.29,1.09.29,1.75,0,.27-.03.45-.09.54-.06.09-.17.14-.33.14h-5.99c.02.55.1,1.02.23,1.43.14.4.33.74.57,1.01.24.27.53.47.87.6s.71.2,1.12.2c.39,0,.73-.04,1.01-.13.29-.09.53-.19.74-.29.21-.1.38-.2.52-.29.14-.09.27-.13.37-.13.14,0,.25.05.33.16l.5.65ZM553.07,101.85c0-.35-.05-.67-.15-.96-.1-.29-.24-.55-.44-.77-.19-.22-.43-.38-.7-.5-.28-.12-.59-.18-.95-.18-.74,0-1.32.21-1.74.64-.42.43-.69,1.02-.8,1.77h4.79Z"/>
    <path class="cls-1" d="M558.19,99.57c.2-.21.41-.4.62-.58s.45-.32.69-.45.5-.22.78-.29c.28-.07.58-.1.9-.1.5,0,.95.08,1.33.25.38.17.7.4.96.71.26.3.45.67.59,1.09.13.43.2.9.2,1.41v5.82h-1.76v-5.82c0-.65-.15-1.16-.45-1.53-.3-.36-.76-.54-1.38-.54-.45,0-.87.11-1.27.32-.39.21-.76.5-1.09.87v6.71h-1.75v-9.14h1.05c.25,0,.4.12.46.35l.13.92Z"/>
    <path class="cls-1" d="M574.27,94.16v13.28h-1.06c-.25,0-.4-.12-.46-.35l-.15-1.05c-.39.46-.83.83-1.33,1.11-.5.28-1.07.42-1.71.42-.52,0-.99-.1-1.42-.31-.42-.2-.78-.5-1.08-.9-.3-.39-.53-.88-.69-1.46s-.24-1.25-.24-2.01c0-.68.09-1.31.27-1.89s.44-1.09.78-1.51c.34-.43.76-.76,1.24-1,.49-.24,1.03-.37,1.65-.37.55,0,1.02.09,1.41.27s.73.43,1.04.76v-5h1.76ZM572.51,100.51c-.29-.38-.6-.64-.93-.79-.33-.15-.71-.23-1.12-.23-.8,0-1.43.29-1.87.87s-.66,1.42-.66,2.53c0,.58.05,1.08.15,1.49.1.41.24.75.43,1.01.19.26.42.45.7.58.28.12.59.18.94.18.51,0,.95-.11,1.32-.34.37-.23.72-.55,1.04-.96v-4.34Z"/>
    <path class="cls-1" d="M578.9,95.47c0,.16-.03.32-.1.46-.07.15-.15.28-.27.39-.11.11-.24.2-.39.26-.15.06-.31.09-.47.09s-.31-.03-.46-.09c-.14-.06-.27-.15-.38-.26-.11-.11-.2-.24-.26-.39-.06-.15-.1-.3-.1-.46s.03-.33.1-.47c.06-.15.15-.28.26-.39s.24-.2.38-.26c.14-.06.3-.09.46-.09s.32.03.47.09c.15.06.28.15.39.26.11.11.2.24.27.39s.1.3.1.47ZM578.56,98.3v9.14h-1.75v-9.14h1.75Z"/>
    <path class="cls-1" d="M582.76,99.57c.2-.21.41-.4.62-.58s.45-.32.69-.45.5-.22.78-.29c.28-.07.58-.1.9-.1.5,0,.95.08,1.33.25s.7.4.96.71c.26.3.45.67.58,1.09.13.43.2.9.2,1.41v5.82h-1.76v-5.82c0-.65-.15-1.16-.45-1.53-.3-.36-.76-.54-1.38-.54-.45,0-.87.11-1.26.32-.39.21-.76.5-1.09.87v6.71h-1.76v-9.14h1.05c.25,0,.4.12.46.35l.13.92Z"/>
    <path class="cls-1" d="M598.97,98.64v.66c0,.22-.13.35-.4.4l-.98.14c.08.19.15.38.2.59.05.21.07.42.07.65,0,.45-.09.86-.26,1.22-.17.36-.41.67-.72.93s-.67.46-1.09.59c-.42.14-.89.21-1.39.21-.41,0-.8-.04-1.16-.13-.18.11-.32.23-.41.36s-.14.26-.14.38c0,.21.09.37.27.47.18.1.41.18.69.22s.61.07.98.08c.37.01.74.03,1.12.06.38.03.76.08,1.12.14.37.07.7.18.98.33.28.15.52.36.69.63.18.27.27.61.27,1.04,0,.4-.1.78-.29,1.15-.19.37-.48.7-.85.99-.37.29-.83.52-1.36.69-.53.17-1.14.26-1.82.26s-1.27-.07-1.77-.2c-.5-.13-.92-.31-1.25-.53-.33-.22-.58-.48-.75-.77-.17-.29-.25-.6-.25-.92,0-.44.14-.82.41-1.13s.66-.55,1.14-.72c-.26-.12-.47-.28-.63-.49-.16-.21-.23-.48-.23-.82,0-.13.02-.27.07-.41.05-.14.12-.28.22-.42.1-.14.22-.27.37-.4.15-.13.32-.24.51-.34-.45-.25-.8-.59-1.06-1s-.39-.9-.39-1.46c0-.45.09-.86.26-1.22.17-.36.42-.67.72-.93.31-.26.68-.46,1.11-.59s.9-.21,1.41-.21c.79,0,1.47.17,2.04.5h2.54ZM597.19,107.92c0-.22-.06-.39-.18-.52-.12-.13-.28-.23-.49-.31s-.45-.13-.72-.16c-.28-.03-.57-.06-.87-.08-.3-.02-.61-.03-.93-.05-.32-.01-.62-.04-.92-.08-.31.16-.57.34-.77.57-.2.22-.3.48-.3.78,0,.19.05.37.15.54s.25.31.46.44.47.22.78.29.69.1,1.13.1.81-.04,1.14-.11.61-.18.83-.32c.23-.13.4-.29.51-.48.12-.19.18-.39.18-.61ZM594.39,102.88c.31,0,.59-.04.82-.13.24-.08.44-.2.59-.36.16-.15.28-.34.36-.55.08-.22.12-.45.12-.71,0-.53-.16-.95-.48-1.26-.32-.32-.79-.47-1.42-.47s-1.09.16-1.41.47c-.32.31-.48.74-.48,1.26,0,.26.04.49.12.71.08.21.2.4.36.55.16.15.36.27.59.36s.51.13.81.13Z"/>
    <path class="cls-1" d="M599.92,95.17c.56-.49,1.22-.74,2-.74.28,0,.52.04.74.13s.41.22.56.38c.15.16.27.36.35.58.08.23.12.47.12.74v2.94h-.57c-.12,0-.21-.02-.27-.05-.06-.04-.11-.11-.15-.22l-.1-.29c-.12.1-.24.19-.35.27-.11.08-.23.14-.34.2-.12.05-.24.09-.38.12-.13.03-.29.04-.46.04-.41,0-.75-.11-1-.32s-.38-.54-.38-.96c0-.17.04-.34.13-.51.09-.17.24-.33.45-.47s.5-.26.85-.36c.36-.1.8-.15,1.34-.16v-.22c0-.29-.06-.5-.19-.63-.13-.13-.3-.2-.53-.2-.17,0-.32.02-.44.06-.12.04-.22.08-.31.13-.09.05-.17.09-.24.13-.07.04-.16.06-.26.06-.08,0-.16-.02-.22-.07s-.11-.1-.15-.17l-.22-.41ZM602.48,97.26c-.31.01-.56.04-.76.08-.2.04-.37.09-.49.14-.12.06-.21.12-.26.2-.05.08-.08.16-.08.25,0,.17.05.3.16.37.11.08.24.11.42.11.21,0,.39-.04.54-.11.15-.07.31-.19.46-.34v-.7Z"/>
  </g>
  <g>
    <path class="cls-1" d="M35.6,411.28c.51-.49,1.06-.85,1.66-1.09s1.25-.36,1.97-.36c.52,0,.98.09,1.39.26s.74.41,1.02.72c.28.31.49.67.63,1.1s.21.9.21,1.41v5.83h-.78c-.17,0-.31-.03-.4-.09-.09-.06-.16-.16-.22-.32l-.19-.8c-.23.22-.46.41-.69.57-.23.17-.47.31-.71.42-.25.12-.51.21-.8.27-.28.06-.59.09-.94.09-.36,0-.7-.05-1.01-.15-.32-.1-.59-.25-.82-.45s-.42-.46-.55-.76c-.13-.31-.2-.66-.2-1.07,0-.36.1-.71.29-1.04.2-.33.51-.63.95-.9.44-.26,1.02-.48,1.73-.65s1.58-.26,2.62-.29v-.67c0-.69-.15-1.21-.44-1.55-.29-.34-.73-.51-1.29-.51-.38,0-.71.05-.97.14-.26.1-.49.2-.67.32-.19.12-.35.22-.5.32-.14.1-.29.14-.44.14-.12,0-.22-.03-.31-.1-.09-.07-.16-.14-.21-.23l-.32-.57ZM40.74,415.08c-.71.02-1.32.08-1.82.17s-.9.2-1.21.35c-.31.14-.54.31-.67.51-.14.19-.21.41-.21.65,0,.23.04.42.11.59.08.17.18.3.31.41.13.11.28.18.45.23.17.05.36.07.57.07.27,0,.52-.03.74-.08s.44-.13.63-.23c.2-.1.39-.22.57-.36.18-.14.36-.31.53-.5v-1.8Z"/>
    <path class="cls-1" d="M44.53,418.09c0-.16.03-.32.09-.46.06-.14.14-.27.25-.38.1-.11.23-.19.37-.26.14-.06.3-.09.47-.09s.32.03.46.09c.14.06.27.15.38.26.11.11.19.23.26.38.06.14.1.3.1.46s-.03.32-.1.47c-.06.14-.15.27-.26.38s-.23.19-.38.25-.3.09-.46.09-.32-.03-.47-.09c-.14-.06-.27-.14-.37-.25-.11-.11-.19-.23-.25-.38-.06-.14-.09-.3-.09-.47Z"/>
    <path class="cls-1" d="M64.77,406.22v12.92h-.97c-.15,0-.28-.03-.37-.08s-.2-.14-.3-.26l-7.3-9.44c.01.16.02.32.03.48,0,.16.01.3.01.44v8.87h-1.68v-12.92h.99c.17,0,.29.02.38.06s.18.13.28.27l7.32,9.45c-.02-.17-.03-.34-.04-.51,0-.17-.01-.32-.01-.46v-8.8h1.67Z"/>
    <path class="cls-1" d="M71.23,409.85c.67,0,1.28.11,1.82.33.54.22,1,.53,1.39.95s.67.91.88,1.49c.21.58.31,1.23.31,1.95s-.1,1.37-.31,1.95c-.2.58-.5,1.08-.88,1.49-.38.41-.84.72-1.39.94-.54.22-1.15.33-1.82.33s-1.29-.11-1.83-.33c-.54-.22-1.01-.53-1.39-.94-.38-.41-.68-.9-.89-1.49s-.31-1.23-.31-1.95.1-1.37.31-1.95.5-1.07.89-1.49c.38-.41.85-.73,1.39-.95.54-.22,1.15-.33,1.83-.33ZM71.23,417.9c.87,0,1.51-.29,1.94-.87s.64-1.4.64-2.46-.21-1.88-.64-2.46-1.07-.88-1.94-.88-1.53.29-1.96.88c-.43.58-.64,1.41-.64,2.46s.21,1.88.64,2.46c.43.58,1.08.87,1.96.87Z"/>
    <path class="cls-1" d="M80.26,419.29c-.74,0-1.31-.21-1.71-.62-.4-.41-.6-1-.6-1.77v-5.47h-1.06c-.1,0-.19-.03-.26-.09-.07-.06-.1-.16-.1-.28v-.71l1.48-.21.4-2.73c.02-.1.07-.18.14-.24s.16-.09.26-.09h.89v3.07h2.59v1.28h-2.59v5.35c0,.36.09.63.27.81s.4.27.68.27c.16,0,.3-.02.42-.06.12-.04.22-.09.3-.14.08-.05.16-.1.22-.14s.11-.06.16-.06c.06,0,.11.01.14.04.03.03.07.07.1.13l.52.85c-.29.26-.63.47-1.03.61-.4.14-.81.22-1.23.22Z"/>
    <path class="cls-1" d="M88.23,411.28c.51-.49,1.06-.85,1.66-1.09.6-.24,1.25-.36,1.97-.36.52,0,.98.09,1.39.26.4.17.74.41,1.02.72.28.31.48.67.62,1.1.14.43.21.9.21,1.41v5.83h-.78c-.17,0-.31-.03-.4-.09-.09-.06-.16-.16-.22-.32l-.19-.8c-.23.22-.47.41-.69.57-.23.17-.47.31-.72.42-.25.12-.51.21-.8.27-.28.06-.59.09-.94.09-.36,0-.7-.05-1.01-.15-.31-.1-.59-.25-.82-.45-.23-.2-.42-.46-.55-.76-.13-.31-.2-.66-.2-1.07,0-.36.1-.71.29-1.04s.51-.63.95-.9c.44-.26,1.02-.48,1.73-.65s1.59-.26,2.62-.29v-.67c0-.69-.15-1.21-.44-1.55-.29-.34-.73-.51-1.3-.51-.38,0-.71.05-.97.14-.26.1-.49.2-.68.32-.19.12-.35.22-.49.32-.14.1-.29.14-.44.14-.12,0-.22-.03-.31-.1-.09-.07-.16-.14-.21-.23l-.31-.57ZM93.38,415.08c-.71.02-1.32.08-1.82.17s-.9.2-1.22.35c-.31.14-.54.31-.67.51-.14.19-.21.41-.21.65,0,.23.04.42.11.59.07.17.18.3.3.41.13.11.28.18.46.23s.36.07.57.07c.27,0,.52-.03.74-.08s.44-.13.63-.23c.2-.1.39-.22.57-.36.18-.14.36-.31.53-.5v-1.8Z"/>
    <path class="cls-1" d="M99.12,411.37c.19-.23.4-.44.62-.62.22-.19.46-.35.71-.49s.52-.24.8-.31.59-.11.91-.11c.52,0,.99.1,1.42.31s.78.5,1.08.9c.3.4.53.89.7,1.47s.25,1.25.25,2.01c0,.68-.09,1.31-.28,1.89s-.44,1.08-.78,1.51c-.34.43-.75.76-1.24,1-.49.24-1.04.36-1.65.36-.55,0-1.01-.09-1.4-.27-.39-.18-.74-.43-1.04-.76v3.97h-1.75v-12.21h1.05c.25,0,.4.12.46.35l.15,1.02ZM99.21,416.89c.29.38.6.64.93.79.33.15.71.22,1.12.22.8,0,1.43-.29,1.87-.87s.66-1.42.66-2.53c0-.58-.05-1.08-.15-1.49-.1-.41-.24-.75-.43-1.01-.19-.26-.42-.45-.7-.58-.28-.12-.59-.18-.94-.18-.51,0-.95.11-1.33.34-.38.23-.72.55-1.04.97v4.33Z"/>
    <path class="cls-1" d="M109.24,411.37c.19-.23.4-.44.62-.62.22-.19.46-.35.71-.49s.52-.24.8-.31.59-.11.91-.11c.52,0,.99.1,1.42.31s.78.5,1.08.9c.3.4.53.89.7,1.47s.25,1.25.25,2.01c0,.68-.09,1.31-.28,1.89s-.44,1.08-.78,1.51c-.34.43-.75.76-1.24,1-.49.24-1.04.36-1.65.36-.55,0-1.01-.09-1.4-.27-.39-.18-.74-.43-1.04-.76v3.97h-1.75v-12.21h1.05c.25,0,.4.12.46.35l.15,1.02ZM109.33,416.89c.29.38.6.64.93.79.33.15.71.22,1.12.22.8,0,1.43-.29,1.87-.87s.66-1.42.66-2.53c0-.58-.05-1.08-.15-1.49-.1-.41-.24-.75-.43-1.01-.19-.26-.42-.45-.7-.58-.28-.12-.59-.18-.94-.18-.51,0-.95.11-1.33.34-.38.23-.72.55-1.04.97v4.33Z"/>
    <path class="cls-1" d="M119.5,405.86v13.28h-1.76v-13.28h1.76Z"/>
    <path class="cls-1" d="M124.17,407.17c0,.16-.03.32-.1.46-.07.15-.15.28-.27.39-.11.11-.24.2-.39.26-.15.06-.31.09-.47.09s-.31-.03-.46-.09c-.14-.06-.27-.15-.38-.26-.11-.11-.2-.24-.26-.39-.06-.15-.1-.3-.1-.46s.03-.33.1-.47c.06-.15.15-.28.26-.39s.24-.2.38-.26c.14-.06.3-.09.46-.09s.32.03.47.09c.15.06.28.15.39.26.11.11.2.24.27.39s.1.3.1.47ZM123.84,410v9.14h-1.75v-9.14h1.75Z"/>
    <path class="cls-1" d="M132.79,411.71c-.05.07-.11.12-.16.16s-.12.06-.22.06-.2-.04-.3-.11c-.1-.08-.24-.16-.4-.24s-.35-.17-.58-.24c-.22-.08-.5-.11-.83-.11-.43,0-.81.08-1.14.23-.33.16-.6.38-.82.67s-.39.64-.5,1.05c-.11.41-.17.88-.17,1.39s.06,1.01.18,1.43.29.77.51,1.05.49.5.81.65c.32.15.67.22,1.06.22s.69-.05.94-.14c.25-.09.45-.19.61-.3.16-.11.3-.21.41-.3s.22-.14.33-.14c.14,0,.25.05.33.16l.5.65c-.21.26-.45.48-.71.66-.26.18-.54.33-.83.44s-.6.2-.92.25c-.32.05-.65.08-.98.08-.57,0-1.1-.11-1.6-.32-.49-.21-.92-.52-1.29-.92-.36-.4-.65-.9-.86-1.48-.21-.58-.31-1.25-.31-1.99,0-.68.09-1.3.28-1.88.19-.58.47-1.07.84-1.49s.82-.74,1.36-.98c.54-.24,1.16-.36,1.85-.36.65,0,1.23.11,1.73.32s.94.51,1.33.89l-.47.65Z"/>
    <path class="cls-1" d="M134.77,411.28c.51-.49,1.06-.85,1.66-1.09s1.25-.36,1.97-.36c.52,0,.98.09,1.39.26s.74.41,1.02.72c.28.31.49.67.63,1.1s.21.9.21,1.41v5.83h-.78c-.17,0-.31-.03-.4-.09-.09-.06-.16-.16-.22-.32l-.19-.8c-.23.22-.46.41-.69.57-.23.17-.47.31-.71.42-.25.12-.51.21-.8.27-.28.06-.59.09-.94.09-.36,0-.7-.05-1.01-.15-.32-.1-.59-.25-.82-.45s-.42-.46-.55-.76c-.13-.31-.2-.66-.2-1.07,0-.36.1-.71.29-1.04.2-.33.51-.63.95-.9.44-.26,1.02-.48,1.73-.65s1.58-.26,2.62-.29v-.67c0-.69-.15-1.21-.44-1.55-.29-.34-.73-.51-1.29-.51-.38,0-.71.05-.97.14-.26.1-.49.2-.67.32-.19.12-.35.22-.5.32-.14.1-.29.14-.44.14-.12,0-.22-.03-.31-.1-.09-.07-.16-.14-.21-.23l-.32-.57ZM139.91,415.08c-.71.02-1.32.08-1.82.17s-.9.2-1.21.35c-.31.14-.54.31-.67.51-.14.19-.21.41-.21.65,0,.23.04.42.11.59.08.17.18.3.31.41.13.11.28.18.45.23.17.05.36.07.57.07.27,0,.52-.03.74-.08s.44-.13.63-.23c.2-.1.39-.22.57-.36.18-.14.36-.31.53-.5v-1.8Z"/>
    <path class="cls-1" d="M145.75,411.26c.38-.42.81-.76,1.29-1.02.48-.26,1.03-.39,1.64-.39.53,0,1.01.1,1.44.31s.79.5,1.09.89c.3.39.53.86.69,1.41s.24,1.18.24,1.87c0,.74-.09,1.41-.27,2.02-.18.61-.44,1.12-.78,1.56-.34.43-.75.77-1.24,1s-1.03.36-1.64.36c-.29,0-.56-.03-.81-.09-.25-.06-.47-.14-.68-.25s-.4-.24-.57-.4c-.17-.16-.34-.33-.49-.53l-.08.76c-.05.25-.2.37-.45.37h-1.13v-13.28h1.76v5.4ZM145.75,416.89c.29.38.6.64.94.79.34.15.7.22,1.1.22.82,0,1.45-.29,1.89-.87.44-.58.66-1.46.66-2.64,0-1.09-.19-1.88-.58-2.39-.39-.51-.94-.76-1.66-.76-.5,0-.94.11-1.31.34-.37.23-.71.55-1.03.97v4.33Z"/>
    <path class="cls-1" d="M155.91,405.86v13.28h-1.76v-13.28h1.76Z"/>
    <path class="cls-1" d="M165.91,417.84c-.22.25-.46.47-.75.65-.28.18-.58.33-.9.45s-.65.2-.99.25c-.34.05-.67.08-1,.08-.63,0-1.21-.11-1.75-.32s-1-.53-1.39-.94c-.39-.41-.7-.92-.92-1.53-.22-.61-.33-1.31-.33-2.1,0-.64.1-1.23.3-1.78.2-.55.48-1.03.85-1.44s.82-.73,1.36-.96c.53-.23,1.13-.35,1.8-.35.56,0,1.07.09,1.54.27.47.18.88.45,1.22.8s.61.78.81,1.29c.19.51.29,1.09.29,1.75,0,.27-.03.45-.09.54-.06.09-.17.14-.33.14h-5.99c.02.55.1,1.02.23,1.43.14.4.33.74.57,1.01.24.27.53.47.87.6s.71.2,1.12.2c.39,0,.73-.04,1.01-.13.29-.09.53-.19.74-.29.21-.1.38-.2.52-.29.14-.09.27-.13.37-.13.14,0,.25.05.33.16l.5.65ZM164.46,413.55c0-.35-.05-.67-.15-.96-.1-.29-.24-.55-.44-.77-.19-.22-.43-.38-.7-.5-.28-.12-.59-.18-.95-.18-.74,0-1.32.21-1.74.64-.42.43-.69,1.02-.8,1.77h4.79Z"/>
    <path class="cls-1" d="M173.09,419.14v-7.7l-.95-.12c-.14-.03-.25-.08-.34-.15-.09-.07-.13-.17-.13-.3v-.73h1.42v-.83c0-.52.08-.99.23-1.39.15-.41.36-.75.64-1.04s.62-.5,1.01-.65c.39-.15.84-.22,1.33-.22.41,0,.79.06,1.14.18l-.04.88c0,.08-.03.14-.07.18-.04.04-.1.07-.17.09-.07.02-.15.03-.25.03-.1,0-.21,0-.32,0-.27,0-.52.03-.74.1-.22.07-.41.18-.57.33s-.28.36-.36.62-.13.57-.13.95v.77h2.56v1.28h-2.51v7.72h-1.76Z"/>
    <path class="cls-1" d="M182.45,409.85c.67,0,1.28.11,1.82.33.54.22,1,.53,1.39.95s.67.91.88,1.49c.2.58.31,1.23.31,1.95s-.1,1.37-.31,1.95c-.21.58-.5,1.08-.88,1.49-.38.41-.84.72-1.39.94-.54.22-1.15.33-1.82.33s-1.29-.11-1.83-.33c-.54-.22-1.01-.53-1.39-.94-.38-.41-.68-.9-.89-1.49s-.31-1.23-.31-1.95.1-1.37.31-1.95.5-1.07.89-1.49c.38-.41.85-.73,1.39-.95.54-.22,1.15-.33,1.83-.33ZM182.45,417.9c.86,0,1.51-.29,1.93-.87.43-.58.64-1.4.64-2.46s-.21-1.88-.64-2.46c-.43-.58-1.07-.88-1.93-.88s-1.53.29-1.96.88-.64,1.41-.64,2.46.21,1.88.64,2.46,1.08.87,1.96.87Z"/>
    <path class="cls-1" d="M190.45,411.75c.29-.6.65-1.07,1.06-1.41s.91-.51,1.49-.51c.2,0,.38.02.56.07.18.04.33.11.46.2l-.12,1.32c-.04.16-.14.24-.3.24-.08,0-.21-.02-.38-.05-.17-.03-.35-.05-.54-.05-.28,0-.53.04-.75.12-.22.08-.41.2-.58.36s-.32.35-.45.58c-.13.23-.26.49-.37.79v5.72h-1.76v-9.14h1.01c.19,0,.32.03.39.1s.12.19.15.36l.11,1.29Z"/>
    <path class="cls-1" d="M207.31,417.53v1.61h-7.4v-12.92h1.92v11.31h5.48Z"/>
    <path class="cls-1" d="M213.1,406.22c.83,0,1.55.1,2.16.29.61.19,1.12.46,1.52.81.4.35.7.78.9,1.27s.29,1.05.29,1.66-.1,1.16-.31,1.67-.52.94-.93,1.31c-.41.37-.92.65-1.53.85-.61.2-1.31.3-2.1.3h-2v4.76h-1.92v-12.92h3.91ZM213.1,412.87c.49,0,.91-.06,1.28-.19s.68-.3.93-.54c.25-.23.44-.51.56-.83.13-.32.19-.68.19-1.07,0-.79-.25-1.4-.73-1.85-.49-.45-1.23-.67-2.23-.67h-2v5.15h2Z"/>
    <path class="cls-1" d="M222,419.14h-1.93v-12.92h1.93v12.92Z"/>
    <path class="cls-1" d="M229.96,411.57c-.05.08-.1.13-.15.17-.05.03-.12.05-.21.05-.1,0-.2-.03-.32-.1-.12-.07-.26-.14-.42-.22-.17-.08-.36-.15-.58-.22-.22-.07-.49-.1-.79-.1-.25,0-.48.03-.69.09-.21.06-.38.15-.53.26-.14.11-.26.24-.33.4-.08.15-.12.32-.12.49,0,.23.07.42.2.57.13.15.31.28.53.39.22.11.47.21.75.29.28.09.56.18.85.27s.58.21.86.33.53.28.75.46c.22.18.4.4.53.66.13.26.2.57.2.95,0,.43-.08.82-.23,1.18s-.38.68-.67.94c-.3.26-.66.47-1.1.62-.44.15-.94.22-1.5.22-.63,0-1.21-.1-1.75-.31s-.98-.48-1.34-.8l.41-.68c.05-.08.11-.15.18-.19.07-.04.17-.07.29-.07.11,0,.23.04.35.13.12.08.26.18.43.27.17.1.37.19.61.27s.54.12.9.12c.3,0,.56-.04.78-.11.22-.08.41-.18.55-.31.15-.13.26-.28.33-.45.07-.17.11-.34.11-.53,0-.24-.07-.44-.2-.6s-.31-.3-.53-.41c-.22-.11-.47-.21-.75-.3-.28-.08-.57-.17-.86-.27-.29-.1-.58-.21-.86-.33-.28-.13-.53-.29-.75-.48-.22-.19-.4-.43-.53-.7-.13-.28-.2-.61-.2-1.01,0-.35.07-.69.22-1.02.15-.32.36-.61.64-.85.28-.25.62-.44,1.04-.59s.88-.22,1.41-.22c.61,0,1.15.1,1.64.29s.91.46,1.26.79l-.39.64Z"/>
    <path class="cls-1" d="M232.1,418.09c0-.16.03-.32.09-.46.06-.14.14-.27.25-.38.1-.11.23-.19.37-.26.14-.06.3-.09.47-.09s.32.03.46.09c.14.06.27.15.38.26.11.11.19.23.26.38.06.14.1.3.1.46s-.03.32-.1.47c-.06.14-.15.27-.26.38s-.23.19-.38.25-.3.09-.46.09-.32-.03-.47-.09c-.14-.06-.27-.14-.37-.25-.11-.11-.19-.23-.25-.38-.06-.14-.09-.3-.09-.47Z"/>
  </g>
  <g>
    <rect class="cls-1" x="150" y="59.5" width="114.26" height="1"/>
    <polygon class="cls-1" points="263.09 56.01 270 60 263.09 63.99 263.09 56.01"/>
  </g>
  <g>
    <rect class="cls-1" x="155.74" y="119.5" width="114.26" height="1"/>
    <polygon class="cls-1" points="156.91 123.99 150 120 156.91 116.01 156.91 123.99"/>
  </g>
  <g>
    <rect class="cls-1" x="390" y="59.5" width="114.26" height="1"/>
    <polygon class="cls-1" points="503.09 56.01 510 60 503.09 63.99 503.09 56.01"/>
  </g>
  <g>
    <rect class="cls-1" x="395.74" y="119.5" width="114.26" height="1"/>
    <polygon class="cls-1" points="396.91 123.99 390 120 396.91 116.01 396.91 123.99"/>
  </g>
  <g>
    <rect class="cls-1" x="539.5" y="155.74" width="1" height="114.26"/>
    <polygon class="cls-1" points="536.01 156.91 540 150 543.99 156.91 536.01 156.91"/>
  </g>
  <g>
    <rect class="cls-1" x="599.5" y="150" width="1" height="114.26"/>
    <polygon class="cls-1" points="603.99 263.09 600 270 596.01 263.09 603.99 263.09"/>
  </g>
  <path class="cls-1" d="M150.5,150.5H29.5V29.5h121v121ZM30.5,149.5h119V30.5H30.5v119Z"/>
  <path class="cls-1" d="M390.5,150.5h-121V29.5h121v121ZM270.5,149.5h119V30.5h-119v119Z"/>
  <path class="cls-1" d="M630.5,150.5h-121V29.5h121v121ZM510.5,149.5h119V30.5h-119v119Z"/>
  <g>
    <path class="cls-1" d="M554.67,336.64h-1.48c-.17,0-.31-.04-.41-.13s-.19-.19-.23-.32l-1.14-3h-5.7l-1.14,3c-.04.11-.12.22-.23.31-.11.09-.25.14-.41.14h-1.48l5.15-12.92h1.94l5.15,12.92ZM550.88,331.83l-1.92-5.01c-.14-.34-.28-.77-.41-1.3-.07.26-.13.5-.2.72-.07.22-.14.42-.2.59l-1.91,4.99h4.64Z"/>
    <path class="cls-1" d="M562.09,329.21c-.05.07-.11.12-.16.16s-.12.06-.22.06-.2-.04-.3-.11c-.11-.08-.24-.16-.4-.24s-.35-.17-.58-.24-.5-.11-.83-.11c-.43,0-.81.08-1.14.23-.33.16-.61.38-.82.67s-.39.64-.5,1.05c-.11.41-.17.88-.17,1.39s.06,1.01.18,1.43c.12.42.29.77.51,1.05s.49.5.81.65c.32.15.67.22,1.06.22s.69-.05.94-.14c.25-.09.45-.19.61-.3.16-.11.3-.21.41-.3s.22-.14.33-.14c.14,0,.25.05.33.16l.5.65c-.21.26-.45.48-.71.66-.26.18-.54.33-.83.44s-.6.2-.92.25c-.32.05-.65.08-.98.08-.57,0-1.1-.11-1.6-.32-.5-.21-.92-.52-1.29-.92-.36-.4-.65-.9-.86-1.48-.21-.58-.32-1.25-.32-1.99,0-.68.09-1.3.28-1.88.19-.58.47-1.07.84-1.49s.82-.74,1.36-.98c.54-.24,1.16-.36,1.85-.36.65,0,1.23.11,1.73.32s.94.51,1.33.89l-.47.65Z"/>
    <path class="cls-1" d="M567.16,336.79c-.74,0-1.31-.21-1.71-.62-.4-.41-.6-1-.6-1.77v-5.47h-1.06c-.1,0-.19-.03-.26-.09-.07-.06-.1-.16-.1-.28v-.71l1.49-.21.4-2.73c.02-.1.07-.18.14-.24.07-.06.16-.09.26-.09h.89v3.07h2.59v1.28h-2.59v5.35c0,.36.09.63.27.81.18.18.4.27.68.27.16,0,.3-.02.42-.06s.22-.09.3-.14c.08-.05.16-.1.22-.14.06-.04.11-.06.16-.06.06,0,.11.01.14.04.03.03.07.07.1.13l.52.85c-.29.26-.63.47-1.03.61-.4.14-.81.22-1.23.22Z"/>
    <path class="cls-1" d="M572.98,324.67c0,.16-.03.32-.1.46-.07.15-.16.28-.27.39-.11.11-.24.2-.39.26-.15.06-.31.09-.47.09s-.32-.03-.46-.09c-.14-.06-.27-.15-.38-.26s-.2-.24-.26-.39c-.06-.15-.09-.3-.09-.46s.03-.33.09-.47c.06-.15.15-.28.26-.39.11-.11.24-.2.38-.26.14-.06.3-.09.46-.09s.32.03.47.09c.15.06.28.15.39.26s.2.24.27.39c.07.15.1.3.1.47ZM572.65,327.5v9.14h-1.76v-9.14h1.76Z"/>
    <path class="cls-1" d="M583.13,327.5l-3.71,9.14h-1.58l-3.71-9.14h1.45c.14,0,.25.03.34.1s.15.15.18.25l2.19,5.62c.08.23.15.47.2.7.06.23.11.46.16.69.05-.23.1-.46.16-.68.06-.23.13-.46.22-.7l2.21-5.62c.04-.1.1-.19.19-.25s.2-.1.32-.1h1.38Z"/>
    <path class="cls-1" d="M591.78,335.34c-.22.25-.46.47-.75.65-.28.18-.58.33-.9.45s-.65.2-.99.25c-.34.05-.67.08-1,.08-.63,0-1.21-.11-1.75-.32s-1-.53-1.39-.94c-.39-.41-.7-.92-.92-1.53-.22-.61-.33-1.31-.33-2.1,0-.64.1-1.23.3-1.78.2-.55.48-1.03.85-1.44s.82-.73,1.36-.96c.53-.23,1.13-.35,1.8-.35.56,0,1.07.09,1.54.27.47.18.88.45,1.22.8s.61.78.81,1.29c.19.51.29,1.09.29,1.75,0,.27-.03.45-.09.54-.06.09-.17.14-.33.14h-5.99c.02.55.1,1.02.23,1.43.14.4.33.74.57,1.01.24.27.53.47.87.6s.71.2,1.12.2c.39,0,.73-.04,1.01-.13.29-.09.53-.19.74-.29.21-.1.38-.2.52-.29.14-.09.27-.13.37-.13.14,0,.25.05.33.16l.5.65ZM590.33,331.05c0-.35-.05-.67-.15-.96-.1-.29-.24-.55-.44-.77-.19-.22-.43-.38-.7-.5-.28-.12-.59-.18-.95-.18-.74,0-1.32.21-1.74.64-.42.43-.69,1.02-.8,1.77h4.79Z"/>
    <path class="cls-1" d="M593.15,324.37c.56-.49,1.22-.74,2-.74.28,0,.52.04.74.13s.41.22.56.38c.15.16.27.36.35.58.08.23.12.47.12.74v2.94h-.57c-.12,0-.21-.02-.27-.05s-.11-.11-.15-.22l-.1-.29c-.12.1-.24.19-.35.27-.11.08-.22.14-.34.2s-.24.09-.38.12c-.13.03-.29.04-.45.04-.41,0-.75-.11-1-.32-.25-.22-.38-.54-.38-.96,0-.17.04-.34.13-.51.09-.17.24-.33.45-.47s.5-.26.86-.36c.36-.1.8-.15,1.34-.16v-.22c0-.29-.06-.5-.19-.63-.12-.13-.3-.2-.53-.2-.17,0-.32.02-.44.06s-.22.08-.31.13c-.09.05-.17.09-.24.13-.08.04-.16.06-.26.06-.08,0-.16-.02-.22-.07-.06-.04-.11-.1-.15-.17l-.22-.41ZM595.7,326.46c-.31.01-.56.04-.76.08s-.37.09-.49.14c-.12.06-.21.12-.26.2s-.08.16-.08.25c0,.17.05.3.16.37.1.08.24.11.42.11.21,0,.39-.04.54-.11.15-.07.31-.19.46-.34v-.7Z"/>
  </g>
  <path class="cls-1" d="M630.5,390.5h-121v-121h121v121ZM510.5,389.5h119v-119h-119v119Z"/>
  <g>
    <path class="cls-1" d="M504.26,300.5h-174.47l-.15-.15c-.2-.2-.67-.67-.4-150.35h1c-.09,49.52-.15,142.56.21,149.5h173.81v1Z"/>
    <polygon class="cls-1" points="503.09 303.99 510 300 503.09 296.01 503.09 303.99"/>
  </g>
  <g>
    <path class="cls-1" d="M510,360.5H90.55l-.16-.15c-.85-.85-1.1-69.69-.75-204.61h1c-.24,90.49-.24,196.82.51,203.76h418.85v1Z"/>
    <polygon class="cls-1" points="94.13 156.91 90.16 150 86.16 156.9 94.13 156.91"/>
  </g>
</svg>