<svg xmlns="http://www.w3.org/2000/svg" id="Layer_1" viewBox="0 0 690 345" width="690" height="345">
  <defs>
    <style>
      .cls-1 {
        fill: #fff;
      }

      .cls-2 {
        fill: #333e48;
      }

      .cls-3 {
        fill: #e5eceb;
      }

      .Arm_Blue_Box_3 {
        fill: #0091bd;
      }
    </style>
  </defs>
  <g>
    <rect class="cls-2" x="420" y="74.5" width="84.26" height="1"/>
    <polygon class="cls-2" points="503.09 71.01 510 75 503.09 78.99 503.09 71.01"/>
  </g>
  <g>
    <rect class="cls-2" x="180" y="104.5" width="84.26" height="1"/>
    <polygon class="cls-2" points="263.09 101.01 270 105 263.09 108.99 263.09 101.01"/>
  </g>
  <g>
    <rect class="cls-2" x="420" y="134.5" width="84.26" height="1"/>
    <polygon class="cls-2" points="503.09 131.01 510 135 503.09 138.99 503.09 131.01"/>
  </g>
  <rect class="Arm_Blue_Box_3" x="30" y="30" width="150" height="150"/>
  <rect class="Arm_Blue_Box_3" x="30" y="225" width="630" height="90"/>
  <rect class="Arm_Blue_Box_3" x="270" y="30" width="150" height="150"/>
  <rect class="Arm_Blue_Box_3" x="510" y="30" width="150" height="150"/>
  <g>
    <path class="cls-3" d="M70.3,98.72c.83,0,1.55.1,2.16.29.61.19,1.12.46,1.52.81.4.35.7.78.89,1.27.2.5.29,1.05.29,1.66s-.11,1.16-.31,1.67c-.21.51-.52.94-.93,1.31s-.92.65-1.53.85-1.31.3-2.1.3h-2v4.76h-1.92v-12.92h3.92ZM70.3,105.37c.49,0,.91-.06,1.28-.19s.68-.3.93-.54c.25-.23.44-.51.56-.83.13-.32.19-.68.19-1.07,0-.79-.24-1.4-.73-1.85s-1.23-.67-2.23-.67h-2v5.15h2Z"/>
    <path class="cls-3" d="M83.96,110.34c-.22.25-.46.47-.75.65-.28.18-.58.33-.9.45s-.65.2-.99.25c-.34.05-.67.08-1,.08-.63,0-1.21-.11-1.75-.32s-1-.53-1.39-.94c-.39-.41-.7-.92-.92-1.53-.22-.61-.33-1.31-.33-2.1,0-.64.1-1.23.3-1.78.2-.55.48-1.03.85-1.44s.82-.73,1.36-.96c.53-.23,1.13-.35,1.8-.35.56,0,1.07.09,1.54.27.47.18.88.45,1.22.8s.61.78.81,1.29c.19.51.29,1.09.29,1.75,0,.27-.03.45-.09.54-.06.09-.17.14-.33.14h-5.99c.02.55.1,1.02.23,1.43.14.4.33.74.57,1.01.24.27.53.47.87.6s.71.2,1.12.2c.39,0,.73-.04,1.01-.13.29-.09.53-.19.74-.29.21-.1.38-.2.52-.29.14-.09.27-.13.37-.13.14,0,.25.05.33.16l.5.65ZM82.51,106.05c0-.35-.05-.67-.15-.96-.1-.29-.24-.55-.44-.77-.19-.22-.43-.38-.7-.5-.28-.12-.59-.18-.95-.18-.74,0-1.32.21-1.74.64-.42.43-.69,1.02-.8,1.77h4.79Z"/>
    <path class="cls-3" d="M87.64,104.25c.29-.6.65-1.07,1.06-1.41s.91-.51,1.49-.51c.2,0,.39.02.56.07.18.04.33.11.46.2l-.12,1.32c-.04.16-.14.24-.3.24-.08,0-.21-.02-.38-.05s-.35-.05-.54-.05c-.28,0-.53.04-.75.12-.22.08-.41.2-.58.36s-.32.35-.46.58c-.13.23-.25.49-.37.79v5.72h-1.75v-9.14h1.01c.19,0,.32.03.39.1.07.07.12.19.15.36l.11,1.29Z"/>
    <path class="cls-3" d="M94.75,99.67c0,.16-.03.32-.1.46-.07.15-.15.28-.27.39-.11.11-.24.2-.39.26-.15.06-.31.09-.47.09s-.31-.03-.46-.09c-.14-.06-.27-.15-.38-.26-.11-.11-.2-.24-.26-.39-.06-.15-.1-.3-.1-.46s.03-.33.1-.47c.06-.15.15-.28.26-.39s.24-.2.38-.26c.14-.06.3-.09.46-.09s.32.03.47.09c.15.06.28.15.39.26.11.11.2.24.27.39s.1.3.1.47ZM94.42,102.5v9.14h-1.75v-9.14h1.75Z"/>
    <path class="cls-3" d="M98.63,103.87c.19-.23.4-.44.62-.62.22-.19.45-.35.71-.49s.52-.24.81-.31.59-.11.91-.11c.52,0,1,.1,1.42.31s.79.5,1.08.9c.3.4.53.89.7,1.47s.25,1.25.25,2.01c0,.68-.09,1.31-.27,1.89s-.44,1.08-.78,1.51c-.34.43-.75.76-1.24,1-.49.24-1.04.36-1.65.36-.54,0-1.01-.09-1.4-.27-.39-.18-.74-.43-1.04-.76v3.97h-1.76v-12.21h1.05c.25,0,.4.12.46.35l.15,1.02ZM98.72,109.39c.29.38.6.64.93.79.33.15.71.22,1.12.22.8,0,1.43-.29,1.87-.87.44-.58.66-1.42.66-2.53,0-.58-.05-1.08-.15-1.49-.1-.41-.24-.75-.43-1.01-.19-.26-.42-.45-.7-.58-.28-.12-.59-.18-.94-.18-.51,0-.95.11-1.33.34-.38.23-.72.55-1.04.97v4.33Z"/>
    <path class="cls-3" d="M108.85,103.66c.38-.39.81-.7,1.27-.94s1-.36,1.61-.36c.5,0,.95.08,1.33.25s.7.4.96.71c.26.3.45.67.58,1.09.13.43.2.9.2,1.41v5.82h-1.76v-5.82c0-.65-.15-1.16-.45-1.53-.3-.36-.76-.54-1.38-.54-.45,0-.87.11-1.26.32-.39.21-.76.5-1.09.87v6.71h-1.76v-13.28h1.76v5.3Z"/>
    <path class="cls-3" d="M124.67,110.34c-.22.25-.46.47-.75.65-.28.18-.58.33-.9.45-.32.11-.65.2-.98.25-.34.05-.67.08-1,.08-.63,0-1.21-.11-1.75-.32s-1-.53-1.4-.94c-.39-.41-.7-.92-.92-1.53-.22-.61-.33-1.31-.33-2.1,0-.64.1-1.23.3-1.78.2-.55.48-1.03.85-1.44s.82-.73,1.35-.96c.54-.23,1.13-.35,1.8-.35.56,0,1.07.09,1.54.27.47.18.88.45,1.22.8.34.35.61.78.81,1.29s.29,1.09.29,1.75c0,.27-.03.45-.09.54-.06.09-.17.14-.33.14h-5.99c.02.55.1,1.02.23,1.43.14.4.33.74.57,1.01.24.27.53.47.87.6s.71.2,1.12.2c.39,0,.73-.04,1.01-.13.28-.09.53-.19.74-.29.21-.1.38-.2.52-.29.14-.09.27-.13.37-.13.14,0,.25.05.33.16l.5.65ZM123.22,106.05c0-.35-.05-.67-.15-.96-.1-.29-.25-.55-.44-.77-.19-.22-.43-.38-.7-.5-.28-.12-.59-.18-.96-.18-.74,0-1.32.21-1.74.64-.42.43-.69,1.02-.81,1.77h4.79Z"/>
    <path class="cls-3" d="M128.35,104.25c.29-.6.65-1.07,1.06-1.41s.91-.51,1.49-.51c.2,0,.38.02.56.07.18.04.33.11.46.2l-.12,1.32c-.04.16-.14.24-.3.24-.08,0-.21-.02-.38-.05-.17-.03-.35-.05-.54-.05-.28,0-.53.04-.75.12-.22.08-.41.2-.58.36s-.32.35-.45.58c-.13.23-.26.49-.37.79v5.72h-1.76v-9.14h1.01c.19,0,.32.03.39.1s.12.19.15.36l.11,1.29Z"/>
    <path class="cls-3" d="M132.91,103.78c.51-.49,1.06-.85,1.66-1.09s1.25-.36,1.97-.36c.52,0,.98.09,1.39.26s.74.41,1.02.72c.28.31.49.67.63,1.1s.21.9.21,1.41v5.83h-.78c-.17,0-.31-.03-.4-.09-.09-.06-.16-.16-.22-.32l-.19-.8c-.23.22-.46.41-.69.57-.23.17-.47.31-.71.42-.25.12-.51.21-.8.27-.28.06-.59.09-.94.09-.36,0-.7-.05-1.01-.15-.32-.1-.59-.25-.82-.45s-.42-.46-.55-.76c-.13-.31-.2-.66-.2-1.07,0-.36.1-.71.29-1.04.2-.33.51-.63.95-.9.44-.26,1.02-.48,1.73-.65s1.58-.26,2.62-.29v-.67c0-.69-.15-1.21-.44-1.55-.29-.34-.73-.51-1.29-.51-.38,0-.71.05-.97.14-.26.1-.49.2-.67.32-.19.12-.35.22-.5.32-.14.1-.29.14-.44.14-.12,0-.22-.03-.31-.1-.09-.07-.16-.14-.21-.23l-.32-.57ZM138.06,107.58c-.71.02-1.32.08-1.82.17s-.9.2-1.21.35c-.31.14-.54.31-.67.51-.14.19-.21.41-.21.65,0,.23.04.42.11.59.08.17.18.3.31.41.13.11.28.18.45.23.17.05.36.07.57.07.27,0,.52-.03.74-.08s.44-.13.63-.23c.2-.1.39-.22.57-.36.18-.14.36-.31.53-.5v-1.8Z"/>
    <path class="cls-3" d="M143.94,98.36v13.28h-1.76v-13.28h1.76Z"/>
  </g>
  <g>
    <path class="cls-3" d="M312.34,100.84h-1.93v-12.92h1.93v12.92Z"/>
    <path class="cls-3" d="M316.68,92.97c.2-.21.41-.4.62-.58s.45-.32.69-.45.5-.22.78-.29c.28-.07.58-.1.9-.1.5,0,.95.08,1.33.25.38.17.7.4.96.71.26.3.45.67.59,1.09.13.43.2.9.2,1.41v5.82h-1.76v-5.82c0-.65-.15-1.16-.45-1.53-.3-.36-.76-.54-1.38-.54-.45,0-.87.11-1.27.32-.39.21-.76.5-1.09.87v6.71h-1.75v-9.14h1.05c.25,0,.4.12.46.35l.13.92Z"/>
    <path class="cls-3" d="M327.84,100.99c-.74,0-1.31-.21-1.71-.62-.4-.41-.6-1-.6-1.77v-5.47h-1.06c-.1,0-.19-.03-.26-.09-.07-.06-.1-.16-.1-.28v-.71l1.49-.21.4-2.73c.02-.1.07-.18.14-.24.07-.06.16-.09.26-.09h.89v3.07h2.59v1.28h-2.59v5.35c0,.36.09.63.27.81.18.18.4.27.68.27.16,0,.3-.02.42-.06s.22-.09.3-.14c.08-.05.16-.1.22-.14.06-.04.11-.06.16-.06.06,0,.11.01.14.04.03.03.07.07.1.13l.52.85c-.29.26-.63.47-1.03.61-.4.14-.81.22-1.23.22Z"/>
    <path class="cls-3" d="M338.94,99.54c-.21.25-.46.47-.75.65-.28.18-.58.33-.9.45s-.65.2-.99.25-.67.08-1,.08c-.63,0-1.21-.11-1.75-.32s-1-.53-1.4-.94c-.39-.41-.7-.92-.92-1.53-.22-.61-.33-1.31-.33-2.1,0-.64.1-1.23.3-1.78.2-.55.48-1.03.85-1.44s.82-.73,1.35-.96c.53-.23,1.13-.35,1.8-.35.56,0,1.07.09,1.54.27.47.18.88.45,1.22.8.34.35.61.78.81,1.29.19.51.29,1.09.29,1.75,0,.27-.03.45-.09.54s-.17.14-.33.14h-5.99c.02.55.1,1.02.23,1.43.14.4.33.74.57,1.01.24.27.53.47.87.6s.71.2,1.12.2c.39,0,.73-.04,1.01-.13.28-.09.53-.19.74-.29.21-.1.38-.2.52-.29.14-.09.27-.13.37-.13.14,0,.25.05.33.16l.5.65ZM337.49,95.25c0-.35-.05-.67-.15-.96s-.25-.55-.44-.77c-.19-.22-.43-.38-.7-.5s-.59-.18-.95-.18c-.74,0-1.32.21-1.74.64-.42.43-.69,1.02-.81,1.77h4.79Z"/>
    <path class="cls-3" d="M342.62,93.45c.29-.6.65-1.07,1.06-1.41s.91-.51,1.49-.51c.2,0,.39.02.56.07.18.04.33.11.46.2l-.12,1.32c-.04.16-.14.24-.3.24-.08,0-.21-.02-.38-.05-.17-.03-.35-.05-.54-.05-.28,0-.53.04-.75.12-.22.08-.41.2-.58.36-.17.16-.32.35-.45.58-.13.23-.25.49-.37.79v5.72h-1.75v-9.14h1.01c.19,0,.32.03.39.1.07.07.12.19.15.36l.11,1.29Z"/>
    <path class="cls-3" d="M349.22,93.45c.29-.6.65-1.07,1.06-1.41s.91-.51,1.49-.51c.2,0,.39.02.56.07.18.04.33.11.46.2l-.12,1.32c-.04.16-.14.24-.3.24-.08,0-.21-.02-.38-.05s-.35-.05-.54-.05c-.28,0-.53.04-.75.12-.22.08-.41.2-.58.36-.17.16-.32.35-.46.58-.13.23-.25.49-.37.79v5.72h-1.75v-9.14h1.01c.19,0,.32.03.39.1.07.07.12.19.15.36l.11,1.29Z"/>
    <path class="cls-3" d="M361.77,91.7v9.14h-1.05c-.24,0-.4-.12-.47-.35l-.13-.92c-.2.21-.41.4-.62.58-.22.17-.45.32-.69.45s-.51.22-.78.29c-.28.07-.57.1-.89.1-.5,0-.95-.08-1.33-.25s-.7-.4-.96-.71-.45-.67-.58-1.09c-.13-.43-.2-.9-.2-1.41v-5.82h1.76v5.82c0,.65.15,1.16.45,1.53.3.36.76.54,1.38.54.45,0,.87-.11,1.26-.32s.76-.51,1.1-.88v-6.7h1.76Z"/>
    <path class="cls-3" d="M365.89,93.07c.19-.23.4-.44.62-.62.22-.19.46-.35.71-.49s.52-.24.8-.31.59-.11.91-.11c.52,0,.99.1,1.42.31s.78.5,1.08.9c.3.4.53.89.7,1.47s.25,1.25.25,2.01c0,.68-.09,1.31-.28,1.89s-.44,1.08-.78,1.51c-.34.43-.75.76-1.24,1-.49.24-1.04.36-1.65.36-.55,0-1.01-.09-1.4-.27-.39-.18-.74-.43-1.04-.76v3.97h-1.75v-12.21h1.05c.25,0,.4.12.46.35l.15,1.02ZM365.98,98.59c.29.38.6.64.93.79.33.15.71.22,1.12.22.8,0,1.43-.29,1.87-.87s.66-1.42.66-2.53c0-.58-.05-1.08-.15-1.49-.1-.41-.24-.75-.43-1.01-.19-.26-.42-.45-.7-.58-.28-.12-.59-.18-.94-.18-.51,0-.95.11-1.33.34-.38.23-.72.55-1.04.97v4.33Z"/>
    <path class="cls-3" d="M377.09,100.99c-.74,0-1.31-.21-1.71-.62-.4-.41-.6-1-.6-1.77v-5.47h-1.06c-.1,0-.19-.03-.26-.09-.07-.06-.1-.16-.1-.28v-.71l1.48-.21.4-2.73c.02-.1.07-.18.14-.24.07-.06.16-.09.27-.09h.89v3.07h2.59v1.28h-2.59v5.35c0,.36.09.63.27.81.18.18.4.27.68.27.16,0,.3-.02.42-.06.12-.04.22-.09.3-.14.08-.05.16-.1.21-.14.06-.04.12-.06.16-.06.06,0,.11.01.14.04.03.03.07.07.1.13l.52.85c-.29.26-.63.47-1.03.61-.4.14-.81.22-1.23.22Z"/>
    <path class="cls-3" d="M314.91,119.67c.11,0,.2.04.28.13l.76.83c-.53.62-1.17,1.11-1.93,1.45-.76.34-1.67.51-2.74.51-.94,0-1.78-.16-2.54-.49-.76-.32-1.41-.78-1.94-1.36-.54-.58-.95-1.28-1.25-2.09-.29-.81-.44-1.7-.44-2.67s.15-1.86.46-2.67c.31-.81.74-1.51,1.3-2.09.56-.58,1.22-1.04,2-1.36s1.64-.49,2.58-.49,1.73.15,2.45.45,1.33.7,1.86,1.2l-.63.89c-.04.07-.09.12-.16.16-.06.04-.15.06-.25.06-.11,0-.25-.06-.4-.17-.15-.11-.35-.24-.6-.38-.25-.14-.56-.27-.92-.38-.37-.11-.82-.17-1.37-.17-.64,0-1.23.11-1.76.34-.54.22-1,.55-1.38.97-.39.42-.69.94-.9,1.56-.21.62-.32,1.31-.32,2.08s.11,1.49.33,2.1c.22.61.53,1.13.92,1.56.39.43.85.75,1.38.97s1.1.33,1.71.33c.37,0,.71-.02,1-.07s.57-.11.82-.2c.25-.09.48-.21.71-.35.22-.14.44-.31.66-.51.05-.04.1-.08.15-.1.05-.03.11-.04.17-.04Z"/>
    <path class="cls-3" d="M321.24,113.15c.67,0,1.28.11,1.82.33.54.22,1,.53,1.38.95s.67.91.88,1.49.31,1.23.31,1.95-.1,1.37-.31,1.95-.5,1.08-.88,1.49c-.38.41-.84.72-1.38.94-.54.22-1.15.33-1.82.33s-1.29-.11-1.83-.33c-.54-.22-1.01-.53-1.39-.94-.38-.41-.68-.9-.89-1.49s-.31-1.23-.31-1.95.1-1.37.31-1.95.5-1.07.89-1.49c.38-.41.85-.73,1.39-.95.54-.22,1.15-.33,1.83-.33ZM321.24,121.2c.86,0,1.51-.29,1.93-.87s.64-1.4.64-2.46-.21-1.88-.64-2.46-1.07-.88-1.93-.88-1.53.29-1.96.88c-.43.58-.64,1.41-.64,2.46s.21,1.88.64,2.46c.43.58,1.08.87,1.96.87Z"/>
    <path class="cls-3" d="M329.23,114.57c.2-.21.41-.4.62-.58.22-.17.45-.32.69-.45.24-.12.5-.22.78-.29.28-.07.58-.1.89-.1.5,0,.95.08,1.33.25s.7.4.96.71c.26.3.45.67.58,1.09.13.43.2.9.2,1.41v5.82h-1.76v-5.82c0-.65-.15-1.16-.45-1.53-.3-.36-.76-.54-1.38-.54-.45,0-.87.11-1.26.32s-.76.5-1.09.87v6.71h-1.75v-9.14h1.05c.25,0,.4.12.46.35l.13.92Z"/>
    <path class="cls-3" d="M340.39,122.59c-.74,0-1.31-.21-1.71-.62-.4-.41-.6-1-.6-1.77v-5.47h-1.06c-.1,0-.19-.03-.26-.09-.07-.06-.1-.16-.1-.28v-.71l1.49-.21.4-2.73c.02-.1.07-.18.14-.24.07-.06.16-.09.27-.09h.89v3.07h2.59v1.28h-2.59v5.35c0,.36.09.63.27.81.18.18.4.27.68.27.16,0,.3-.02.42-.06s.22-.09.3-.14c.08-.05.16-.1.22-.14.06-.04.11-.06.16-.06.06,0,.11.01.14.04.03.03.07.07.1.13l.52.85c-.29.26-.63.47-1.03.61-.4.14-.81.22-1.23.22Z"/>
    <path class="cls-3" d="M345.7,115.05c.29-.6.65-1.07,1.06-1.41s.91-.51,1.49-.51c.2,0,.39.02.56.07.18.04.33.11.46.2l-.12,1.32c-.04.16-.14.24-.3.24-.08,0-.21-.02-.38-.05-.17-.03-.35-.05-.54-.05-.28,0-.53.04-.75.12-.22.08-.41.2-.58.36-.17.16-.32.35-.45.58-.13.23-.25.49-.37.79v5.72h-1.75v-9.14h1.01c.19,0,.32.03.39.1.07.07.12.19.15.36l.11,1.29Z"/>
    <path class="cls-3" d="M354.2,113.15c.67,0,1.28.11,1.82.33.54.22,1,.53,1.39.95s.67.91.88,1.49c.2.58.31,1.23.31,1.95s-.1,1.37-.31,1.95c-.21.58-.5,1.08-.88,1.49-.38.41-.84.72-1.39.94-.54.22-1.15.33-1.82.33s-1.29-.11-1.83-.33c-.54-.22-1.01-.53-1.39-.94-.38-.41-.68-.9-.89-1.49s-.31-1.23-.31-1.95.1-1.37.31-1.95.5-1.07.89-1.49c.38-.41.85-.73,1.39-.95.54-.22,1.15-.33,1.83-.33ZM354.2,121.2c.86,0,1.51-.29,1.93-.87.43-.58.64-1.4.64-2.46s-.21-1.88-.64-2.46c-.43-.58-1.07-.88-1.93-.88s-1.53.29-1.96.88-.64,1.41-.64,2.46.21,1.88.64,2.46,1.08.87,1.96.87Z"/>
    <path class="cls-3" d="M362.34,109.16v13.28h-1.76v-13.28h1.76Z"/>
    <path class="cls-3" d="M366.64,109.16v13.28h-1.76v-13.28h1.76Z"/>
    <path class="cls-3" d="M376.65,121.14c-.21.25-.46.47-.75.65-.28.18-.58.33-.9.45s-.65.2-.99.25-.67.08-1,.08c-.63,0-1.21-.11-1.75-.32s-1-.53-1.4-.94c-.39-.41-.7-.92-.92-1.53-.22-.61-.33-1.31-.33-2.1,0-.64.1-1.23.3-1.78.2-.55.48-1.03.85-1.44s.82-.73,1.35-.96c.53-.23,1.13-.35,1.8-.35.56,0,1.07.09,1.54.27.47.18.88.45,1.22.8.34.35.61.78.81,1.29.19.51.29,1.09.29,1.75,0,.27-.03.45-.09.54s-.17.14-.33.14h-5.99c.02.55.1,1.02.23,1.43.14.4.33.74.57,1.01.24.27.53.47.87.6s.71.2,1.12.2c.39,0,.73-.04,1.01-.13.28-.09.53-.19.74-.29.21-.1.38-.2.52-.29.14-.09.27-.13.37-.13.14,0,.25.05.33.16l.5.65ZM375.2,116.85c0-.35-.05-.67-.15-.96s-.25-.55-.44-.77c-.19-.22-.43-.38-.7-.5s-.59-.18-.95-.18c-.74,0-1.32.21-1.74.64-.42.43-.69,1.02-.81,1.77h4.79Z"/>
    <path class="cls-3" d="M380.33,115.05c.29-.6.65-1.07,1.06-1.41s.91-.51,1.49-.51c.2,0,.39.02.56.07.18.04.33.11.46.2l-.12,1.32c-.04.16-.14.24-.3.24-.08,0-.21-.02-.38-.05-.17-.03-.35-.05-.54-.05-.28,0-.53.04-.75.12-.22.08-.41.2-.58.36-.17.16-.32.35-.45.58-.13.23-.25.49-.37.79v5.72h-1.75v-9.14h1.01c.19,0,.32.03.39.1.07.07.12.19.15.36l.11,1.29Z"/>
  </g>
  <g>
    <path class="cls-3" d="M579.87,98.72c.83,0,1.55.1,2.16.29.61.19,1.12.46,1.52.81.4.35.7.78.9,1.27.19.5.29,1.05.29,1.66s-.1,1.16-.32,1.67c-.21.51-.52.94-.93,1.31-.41.37-.92.65-1.53.85s-1.31.3-2.1.3h-2v4.76h-1.92v-12.92h3.92ZM579.87,105.37c.49,0,.91-.06,1.28-.19s.68-.3.93-.54c.25-.23.44-.51.56-.83.12-.32.19-.68.19-1.07,0-.79-.25-1.4-.73-1.85-.49-.45-1.23-.67-2.23-.67h-2v5.15h2Z"/>
    <path class="cls-3" d="M594.86,110.08v1.56h-8.02v-12.92h8.01v1.56h-6.08v4.09h4.9v1.5h-4.9v4.21h6.09Z"/>
  </g>
  <g>
    <rect class="cls-2" x="104.5" y="185.74" width="1" height="33.52"/>
    <polygon class="cls-2" points="108.99 218.09 105 225 101.01 218.09 108.99 218.09"/>
    <polygon class="cls-2" points="108.99 186.91 105 180 101.01 186.91 108.99 186.91"/>
  </g>
  <g>
    <rect class="cls-2" x="343.67" y="185.74" width="1" height="33.52"/>
    <polygon class="cls-2" points="348.16 218.09 344.17 225 340.18 218.09 348.16 218.09"/>
    <polygon class="cls-2" points="348.16 186.91 344.17 180 340.18 186.91 348.16 186.91"/>
  </g>
  <g>
    <rect class="cls-2" x="584.5" y="185.74" width="1" height="33.52"/>
    <polygon class="cls-2" points="588.99 218.09 585 225 581.01 218.09 588.99 218.09"/>
    <polygon class="cls-2" points="588.99 186.91 585 180 581.01 186.91 588.99 186.91"/>
  </g>
  <g>
    <path class="cls-1" d="M298.19,276.64h-1.93v-12.92h1.93v12.92Z"/>
    <path class="cls-1" d="M302.53,268.77c.2-.21.4-.4.62-.58.21-.17.45-.32.69-.45.24-.12.5-.22.78-.29.28-.07.58-.1.9-.1.5,0,.95.08,1.33.25.38.17.7.4.96.71.26.3.45.67.58,1.09.13.43.2.9.2,1.41v5.82h-1.76v-5.82c0-.65-.15-1.16-.45-1.53s-.76-.54-1.38-.54c-.45,0-.87.11-1.26.32s-.76.5-1.09.87v6.71h-1.75v-9.14h1.05c.25,0,.4.12.46.35l.13.92Z"/>
    <path class="cls-1" d="M313.69,276.79c-.74,0-1.31-.21-1.71-.62-.4-.41-.6-1-.6-1.77v-5.47h-1.06c-.1,0-.19-.03-.26-.09-.07-.06-.1-.16-.1-.28v-.71l1.48-.21.4-2.73c.02-.1.07-.18.14-.24s.16-.09.26-.09h.89v3.07h2.59v1.28h-2.59v5.35c0,.36.09.63.27.81s.4.27.68.27c.16,0,.3-.02.42-.06.12-.04.22-.09.3-.14.08-.05.16-.1.22-.14s.11-.06.16-.06c.06,0,.11.01.14.04.03.03.07.07.1.13l.52.85c-.29.26-.63.47-1.03.61-.4.14-.81.22-1.23.22Z"/>
    <path class="cls-1" d="M324.79,275.34c-.22.25-.46.47-.75.65-.28.18-.58.33-.9.45s-.65.2-.99.25c-.34.05-.67.08-1,.08-.63,0-1.21-.11-1.75-.32s-1-.53-1.39-.94c-.39-.41-.7-.92-.92-1.53-.22-.61-.33-1.31-.33-2.1,0-.64.1-1.23.3-1.78.2-.55.48-1.03.85-1.44s.82-.73,1.36-.96c.53-.23,1.13-.35,1.8-.35.56,0,1.07.09,1.54.27.47.18.88.45,1.22.8s.61.78.81,1.29c.19.51.29,1.09.29,1.75,0,.27-.03.45-.09.54-.06.09-.17.14-.33.14h-5.99c.02.55.1,1.02.23,1.43.14.4.33.74.57,1.01.24.27.53.47.87.6s.71.2,1.12.2c.39,0,.73-.04,1.01-.13.29-.09.53-.19.74-.29.21-.1.38-.2.52-.29.14-.09.27-.13.37-.13.14,0,.25.05.33.16l.5.65ZM323.34,271.05c0-.35-.05-.67-.15-.96-.1-.29-.24-.55-.44-.77-.19-.22-.43-.38-.7-.5-.28-.12-.59-.18-.95-.18-.74,0-1.32.21-1.74.64-.42.43-.69,1.02-.8,1.77h4.79Z"/>
    <path class="cls-1" d="M328.47,269.25c.29-.6.65-1.07,1.06-1.41s.91-.51,1.49-.51c.2,0,.39.02.56.07.18.04.33.11.46.2l-.12,1.32c-.04.16-.14.24-.3.24-.08,0-.21-.02-.38-.05s-.35-.05-.54-.05c-.28,0-.53.04-.75.12-.22.08-.41.2-.58.36s-.32.35-.46.58c-.13.23-.25.49-.37.79v5.72h-1.75v-9.14h1.01c.19,0,.32.03.39.1.07.07.12.19.15.36l.11,1.29Z"/>
    <path class="cls-1" d="M339.48,269.21c-.05.07-.11.12-.16.16s-.12.06-.22.06-.2-.04-.3-.11c-.1-.08-.24-.16-.4-.24s-.35-.17-.58-.24c-.22-.08-.5-.11-.83-.11-.43,0-.81.08-1.14.23-.33.16-.6.38-.82.67s-.39.64-.5,1.05c-.11.41-.17.88-.17,1.39s.06,1.01.18,1.43.29.77.51,1.05.49.5.81.65c.32.15.67.22,1.06.22s.69-.05.94-.14c.25-.09.45-.19.61-.3.16-.11.3-.21.41-.3s.22-.14.33-.14c.14,0,.25.05.33.16l.5.65c-.21.26-.45.48-.71.66-.26.18-.54.33-.83.44s-.6.2-.92.25c-.32.05-.65.08-.98.08-.57,0-1.1-.11-1.6-.32-.49-.21-.92-.52-1.29-.92-.36-.4-.65-.9-.86-1.48-.21-.58-.31-1.25-.31-1.99,0-.68.09-1.3.28-1.88.19-.58.47-1.07.84-1.49s.82-.74,1.36-.98c.54-.24,1.16-.36,1.85-.36.65,0,1.23.11,1.73.32s.94.51,1.33.89l-.47.65Z"/>
    <path class="cls-1" d="M345.42,267.35c.67,0,1.28.11,1.82.33.54.22,1,.53,1.39.95s.67.91.88,1.49c.21.58.31,1.23.31,1.95s-.1,1.37-.31,1.95c-.2.58-.5,1.08-.88,1.49-.38.41-.84.72-1.39.94-.54.22-1.15.33-1.82.33s-1.29-.11-1.83-.33c-.54-.22-1.01-.53-1.39-.94-.38-.41-.68-.9-.89-1.49s-.31-1.23-.31-1.95.1-1.37.31-1.95.5-1.07.89-1.49c.38-.41.85-.73,1.39-.95.54-.22,1.15-.33,1.83-.33ZM345.42,275.4c.87,0,1.51-.29,1.94-.87s.64-1.4.64-2.46-.21-1.88-.64-2.46-1.07-.88-1.94-.88-1.53.29-1.96.88c-.43.58-.64,1.41-.64,2.46s.21,1.88.64,2.46c.43.58,1.08.87,1.96.87Z"/>
    <path class="cls-1" d="M353.41,268.77c.2-.21.41-.4.62-.58s.45-.32.69-.45.5-.22.78-.29c.28-.07.58-.1.9-.1.5,0,.95.08,1.33.25.38.17.7.4.96.71.26.3.45.67.59,1.09.13.43.2.9.2,1.41v5.82h-1.76v-5.82c0-.65-.15-1.16-.45-1.53-.3-.36-.76-.54-1.38-.54-.45,0-.87.11-1.27.32-.39.21-.76.5-1.09.87v6.71h-1.75v-9.14h1.05c.25,0,.4.12.46.35l.13.92Z"/>
    <path class="cls-1" d="M363.48,268.77c.2-.21.41-.4.62-.58.22-.17.45-.32.69-.45.24-.12.5-.22.78-.29.28-.07.58-.1.89-.1.5,0,.95.08,1.33.25s.7.4.96.71c.26.3.45.67.58,1.09.13.43.2.9.2,1.41v5.82h-1.76v-5.82c0-.65-.15-1.16-.45-1.53-.3-.36-.76-.54-1.38-.54-.45,0-.87.11-1.26.32s-.76.5-1.09.87v6.71h-1.75v-9.14h1.05c.25,0,.4.12.46.35l.13.92Z"/>
    <path class="cls-1" d="M379.41,275.34c-.21.25-.46.47-.75.65-.28.18-.58.33-.9.45s-.65.2-.99.25-.67.08-1,.08c-.63,0-1.21-.11-1.75-.32s-1-.53-1.4-.94c-.39-.41-.7-.92-.92-1.53-.22-.61-.33-1.31-.33-2.1,0-.64.1-1.23.3-1.78.2-.55.48-1.03.85-1.44s.82-.73,1.35-.96c.53-.23,1.13-.35,1.8-.35.56,0,1.07.09,1.54.27.47.18.88.45,1.22.8.34.35.61.78.81,1.29.19.51.29,1.09.29,1.75,0,.27-.03.45-.09.54s-.17.14-.33.14h-5.99c.02.55.1,1.02.23,1.43.14.4.33.74.57,1.01.24.27.53.47.87.6s.71.2,1.12.2c.39,0,.73-.04,1.01-.13.28-.09.53-.19.74-.29.21-.1.38-.2.52-.29.14-.09.27-.13.37-.13.14,0,.25.05.33.16l.5.65ZM377.96,271.05c0-.35-.05-.67-.15-.96s-.25-.55-.44-.77c-.19-.22-.43-.38-.7-.5s-.59-.18-.95-.18c-.74,0-1.32.21-1.74.64-.42.43-.69,1.02-.81,1.77h4.79Z"/>
    <path class="cls-1" d="M387.84,269.21c-.05.07-.11.12-.16.16s-.12.06-.22.06-.2-.04-.3-.11c-.11-.08-.24-.16-.4-.24-.16-.09-.35-.17-.58-.24-.22-.08-.5-.11-.83-.11-.43,0-.81.08-1.14.23-.33.16-.6.38-.82.67-.22.29-.38.64-.5,1.05s-.17.88-.17,1.39.06,1.01.18,1.43c.12.42.29.77.51,1.05.22.29.49.5.81.65.32.15.67.22,1.06.22s.69-.05.94-.14c.25-.09.45-.19.61-.3.16-.11.3-.21.4-.3.11-.09.22-.14.33-.14.14,0,.25.05.33.16l.5.65c-.21.26-.45.48-.71.66-.26.18-.54.33-.83.44-.29.11-.6.2-.92.25-.32.05-.65.08-.98.08-.57,0-1.1-.11-1.6-.32-.49-.21-.92-.52-1.29-.92-.36-.4-.65-.9-.86-1.48s-.31-1.25-.31-1.99c0-.68.09-1.3.28-1.88s.47-1.07.84-1.49.82-.74,1.36-.98,1.16-.36,1.85-.36c.65,0,1.23.11,1.73.32s.94.51,1.33.89l-.47.65Z"/>
    <path class="cls-1" d="M392.91,276.79c-.74,0-1.31-.21-1.71-.62-.4-.41-.6-1-.6-1.77v-5.47h-1.06c-.1,0-.19-.03-.26-.09-.07-.06-.1-.16-.1-.28v-.71l1.49-.21.4-2.73c.02-.1.07-.18.14-.24.07-.06.16-.09.27-.09h.89v3.07h2.59v1.28h-2.59v5.35c0,.36.09.63.27.81.18.18.4.27.68.27.16,0,.3-.02.42-.06s.22-.09.3-.14c.08-.05.16-.1.22-.14.06-.04.11-.06.16-.06.06,0,.11.01.14.04.03.03.07.07.1.13l.52.85c-.29.26-.63.47-1.03.61-.4.14-.81.22-1.23.22Z"/>
  </g>
  <g>
    <path class="cls-2" d="M453.14,66.64h-1.93v-12.92h1.93v12.92Z"/>
    <path class="cls-2" d="M466.02,66.64h-1.71c-.34,0-.59-.13-.75-.41l-3.2-4.48c-.1-.15-.21-.26-.33-.32-.12-.06-.3-.09-.54-.09h-1.25v5.3h-1.92v-12.92h3.73c.83,0,1.55.08,2.16.26.6.17,1.1.41,1.49.73s.68.69.87,1.14.28.94.28,1.49c0,.45-.07.87-.21,1.27-.14.4-.34.75-.61,1.07-.27.32-.59.59-.98.81-.38.23-.82.4-1.3.52.24.14.45.34.62.6l3.64,5.03ZM459.99,59.95c.49,0,.93-.06,1.3-.18s.69-.29.94-.51c.25-.22.44-.48.57-.78.13-.3.19-.64.19-1,0-.74-.25-1.3-.73-1.68-.49-.38-1.22-.57-2.2-.57h-1.81v4.72h1.75Z"/>
    <path class="cls-2" d="M480.2,69.27h-1.58c-.23,0-.44-.03-.62-.09-.18-.06-.35-.18-.5-.35l-2.18-2.38c-.66.22-1.38.32-2.15.32-.95,0-1.83-.16-2.61-.49-.79-.32-1.46-.78-2.02-1.36-.56-.58-1-1.28-1.31-2.09-.31-.81-.47-1.69-.47-2.66s.16-1.84.47-2.66c.31-.81.75-1.51,1.31-2.09.56-.58,1.24-1.04,2.02-1.37s1.66-.49,2.61-.49,1.83.16,2.62.49c.79.33,1.46.78,2.03,1.37.56.59,1,1.28,1.31,2.09.31.81.46,1.7.46,2.66,0,.6-.06,1.17-.19,1.71s-.3,1.05-.53,1.52c-.23.47-.51.89-.84,1.28-.33.38-.71.72-1.13,1.01l3.3,3.57ZM468.7,60.18c0,.77.1,1.47.31,2.07.21.61.51,1.13.9,1.55.39.43.86.75,1.41.98.55.22,1.16.34,1.84.34s1.29-.11,1.84-.34c.55-.23,1.02-.55,1.4-.98.39-.43.68-.94.9-1.55.21-.61.31-1.3.31-2.07s-.1-1.46-.31-2.07c-.21-.61-.51-1.13-.9-1.56-.39-.43-.85-.75-1.4-.98-.55-.23-1.16-.34-1.84-.34s-1.29.11-1.84.34c-.55.23-1.02.56-1.41.98-.39.43-.69.95-.9,1.56-.21.61-.31,1.3-.31,2.07Z"/>
  </g>
  <g>
    <path class="cls-2" d="M193.17,78.34h-1.93v-12.92h1.93v12.92Z"/>
    <path class="cls-2" d="M197.51,70.47c.2-.21.41-.4.62-.58s.45-.32.69-.45.5-.22.78-.29c.28-.07.58-.1.9-.1.5,0,.95.08,1.33.25.38.17.7.4.96.71.26.3.45.67.59,1.09.13.43.2.9.2,1.41v5.82h-1.76v-5.82c0-.65-.15-1.16-.45-1.53-.3-.36-.76-.54-1.38-.54-.45,0-.87.11-1.27.32-.39.21-.76.5-1.09.87v6.71h-1.75v-9.14h1.05c.25,0,.4.12.46.35l.13.92Z"/>
    <path class="cls-2" d="M208.67,78.49c-.74,0-1.31-.21-1.71-.62-.4-.41-.6-1-.6-1.77v-5.47h-1.06c-.1,0-.19-.03-.26-.09-.07-.06-.1-.16-.1-.28v-.71l1.49-.21.4-2.73c.02-.1.07-.18.14-.24.07-.06.16-.09.26-.09h.89v3.07h2.59v1.28h-2.59v5.35c0,.36.09.63.27.81.18.18.4.27.68.27.16,0,.3-.02.42-.06s.22-.09.3-.14c.08-.05.16-.1.22-.14.06-.04.11-.06.16-.06.06,0,.11.01.14.04.03.03.07.07.1.13l.52.85c-.29.26-.63.47-1.03.61-.4.14-.81.22-1.23.22Z"/>
    <path class="cls-2" d="M219.78,77.04c-.21.25-.46.47-.75.65-.28.18-.58.33-.9.45s-.65.2-.99.25-.67.08-1,.08c-.63,0-1.21-.11-1.75-.32s-1-.53-1.4-.94c-.39-.41-.7-.92-.92-1.53-.22-.61-.33-1.31-.33-2.1,0-.64.1-1.23.3-1.78.2-.55.48-1.03.85-1.44s.82-.73,1.35-.96c.53-.23,1.13-.35,1.8-.35.56,0,1.07.09,1.54.27.47.18.88.45,1.22.8.34.35.61.78.81,1.29.19.51.29,1.09.29,1.75,0,.27-.03.45-.09.54s-.17.14-.33.14h-5.99c.02.55.1,1.02.23,1.43.14.4.33.74.57,1.01.24.27.53.47.87.6s.71.2,1.12.2c.39,0,.73-.04,1.01-.13.28-.09.53-.19.74-.29.21-.1.38-.2.52-.29.14-.09.27-.13.37-.13.14,0,.25.05.33.16l.5.65ZM218.33,72.75c0-.35-.05-.67-.15-.96s-.25-.55-.44-.77c-.19-.22-.43-.38-.7-.5s-.59-.18-.95-.18c-.74,0-1.32.21-1.74.64-.42.43-.69,1.02-.81,1.77h4.79Z"/>
    <path class="cls-2" d="M223.46,70.95c.29-.6.65-1.07,1.06-1.41s.91-.51,1.49-.51c.2,0,.39.02.56.07.18.04.33.11.46.2l-.12,1.32c-.04.16-.14.24-.3.24-.08,0-.21-.02-.38-.05-.17-.03-.35-.05-.54-.05-.28,0-.53.04-.75.12-.22.08-.41.2-.58.36-.17.16-.32.35-.45.58-.13.23-.25.49-.37.79v5.72h-1.75v-9.14h1.01c.19,0,.32.03.39.1.07.07.12.19.15.36l.11,1.29Z"/>
    <path class="cls-2" d="M230.05,70.95c.29-.6.65-1.07,1.06-1.41s.91-.51,1.49-.51c.2,0,.39.02.56.07.18.04.33.11.46.2l-.12,1.32c-.04.16-.14.24-.3.24-.08,0-.21-.02-.38-.05s-.35-.05-.54-.05c-.28,0-.53.04-.75.12-.22.08-.41.2-.58.36-.17.16-.32.35-.46.58-.13.23-.25.49-.37.79v5.72h-1.75v-9.14h1.01c.19,0,.32.03.39.1.07.07.12.19.15.36l.11,1.29Z"/>
    <path class="cls-2" d="M242.6,69.2v9.14h-1.05c-.24,0-.4-.12-.47-.35l-.13-.92c-.2.21-.41.4-.62.58-.22.17-.45.32-.69.45s-.51.22-.78.29c-.28.07-.57.1-.89.1-.5,0-.95-.08-1.33-.25s-.7-.4-.96-.71-.45-.67-.58-1.09c-.13-.43-.2-.9-.2-1.41v-5.82h1.76v5.82c0,.65.15,1.16.45,1.53.3.36.76.54,1.38.54.45,0,.87-.11,1.26-.32s.76-.51,1.1-.88v-6.7h1.76Z"/>
    <path class="cls-2" d="M246.72,70.57c.19-.23.4-.44.62-.62.22-.19.46-.35.71-.49s.52-.24.8-.31.59-.11.91-.11c.52,0,.99.1,1.42.31s.78.5,1.08.9c.3.4.53.89.7,1.47s.25,1.25.25,2.01c0,.68-.09,1.31-.28,1.89s-.44,1.08-.78,1.51c-.34.43-.75.76-1.24,1-.49.24-1.04.36-1.65.36-.55,0-1.01-.09-1.4-.27-.39-.18-.74-.43-1.04-.76v3.97h-1.75v-12.21h1.05c.25,0,.4.12.46.35l.15,1.02ZM246.81,76.09c.29.38.6.64.93.79.33.15.71.22,1.12.22.8,0,1.43-.29,1.87-.87s.66-1.42.66-2.53c0-.58-.05-1.08-.15-1.49-.1-.41-.24-.75-.43-1.01-.19-.26-.42-.45-.7-.58-.28-.12-.59-.18-.94-.18-.51,0-.95.11-1.33.34-.38.23-.72.55-1.04.97v4.33Z"/>
    <path class="cls-2" d="M257.93,78.49c-.74,0-1.31-.21-1.71-.62-.4-.41-.6-1-.6-1.77v-5.47h-1.06c-.1,0-.19-.03-.26-.09-.07-.06-.1-.16-.1-.28v-.71l1.48-.21.4-2.73c.02-.1.07-.18.14-.24.07-.06.16-.09.27-.09h.89v3.07h2.59v1.28h-2.59v5.35c0,.36.09.63.27.81.18.18.4.27.68.27.16,0,.3-.02.42-.06.12-.04.22-.09.3-.14.08-.05.16-.1.21-.14.06-.04.12-.06.16-.06.06,0,.11.01.14.04.03.03.07.07.1.13l.52.85c-.29.26-.63.47-1.03.61-.4.14-.81.22-1.23.22Z"/>
    <path class="cls-2" d="M209.85,89.12c-.06.1-.12.18-.19.23-.07.05-.15.07-.25.07-.11,0-.23-.05-.37-.15-.14-.1-.31-.21-.52-.33-.21-.12-.46-.23-.74-.33-.29-.1-.63-.15-1.04-.15-.38,0-.71.05-.99.15-.29.1-.52.23-.72.41-.19.17-.34.37-.44.6-.1.23-.15.48-.15.75,0,.35.09.64.27.86.18.23.41.42.7.58.29.16.62.3.98.42.37.12.74.25,1.12.37.38.13.76.28,1.12.45.37.17.69.38.98.63.29.26.52.57.7.94s.27.82.27,1.35c0,.57-.1,1.1-.29,1.6-.2.5-.48.93-.85,1.31-.37.37-.83.66-1.37.88s-1.16.32-1.85.32c-.41,0-.82-.04-1.21-.12-.39-.08-.76-.2-1.11-.34-.35-.15-.67-.32-.98-.53-.3-.21-.57-.44-.81-.7l.55-.92c.05-.07.12-.13.19-.18.08-.05.16-.07.26-.07.12,0,.27.07.44.2.17.13.37.28.61.44.24.16.53.3.87.44.34.13.75.2,1.24.2.4,0,.75-.05,1.06-.16.31-.1.57-.25.79-.45.21-.19.38-.43.49-.71.12-.28.17-.58.17-.92,0-.38-.09-.69-.26-.93-.17-.24-.4-.44-.69-.6s-.62-.3-.98-.41c-.37-.11-.74-.23-1.12-.36-.38-.12-.76-.27-1.12-.43-.37-.16-.69-.37-.98-.63-.29-.26-.52-.59-.69-.98s-.26-.88-.26-1.45c0-.46.09-.91.27-1.34.18-.43.44-.81.79-1.15.34-.33.77-.6,1.27-.8s1.08-.3,1.73-.3c.72,0,1.39.12,2,.35.61.23,1.14.56,1.59,1l-.47.91Z"/>
    <path class="cls-2" d="M214.69,87.97c0,.16-.03.32-.1.46-.07.15-.15.28-.27.39-.11.11-.24.2-.39.26-.15.06-.31.09-.47.09s-.31-.03-.46-.09c-.14-.06-.27-.15-.38-.26-.11-.11-.2-.24-.26-.39-.06-.15-.1-.3-.1-.46s.03-.33.1-.47c.06-.15.15-.28.26-.39s.24-.2.38-.26c.14-.06.3-.09.46-.09s.32.03.47.09c.15.06.28.15.39.26.11.11.2.24.27.39s.1.3.1.47ZM214.36,90.8v9.14h-1.75v-9.14h1.75Z"/>
    <path class="cls-2" d="M224.7,91.14v.66c0,.22-.13.35-.41.4l-.98.14c.08.19.15.38.2.59s.07.42.07.65c0,.45-.09.86-.26,1.22-.17.36-.41.67-.72.93-.31.26-.67.46-1.09.59-.42.14-.89.21-1.39.21-.41,0-.8-.04-1.16-.13-.18.11-.32.23-.41.36-.09.13-.14.26-.14.38,0,.21.09.37.27.47.18.1.41.18.69.22.29.04.61.07.98.08.37.01.74.03,1.12.06.38.03.76.08,1.12.14.37.07.7.18.98.33.29.15.52.36.69.63.18.27.27.61.27,1.04,0,.4-.1.78-.29,1.15s-.48.7-.85.99c-.37.29-.83.52-1.36.69-.53.17-1.14.26-1.82.26s-1.27-.07-1.77-.2-.92-.31-1.25-.53-.58-.48-.75-.77c-.17-.29-.25-.6-.25-.92,0-.44.14-.82.41-1.13.28-.31.66-.55,1.14-.72-.26-.12-.47-.28-.63-.49-.16-.21-.23-.48-.23-.82,0-.13.02-.27.07-.41.05-.14.12-.28.22-.42s.22-.27.37-.4c.15-.13.32-.24.51-.34-.45-.25-.8-.59-1.06-1s-.39-.9-.39-1.46c0-.45.09-.86.26-1.22.17-.36.42-.67.72-.93.31-.26.68-.46,1.11-.59.43-.14.9-.21,1.41-.21.79,0,1.47.17,2.04.5h2.54ZM222.92,100.42c0-.22-.06-.39-.18-.52-.12-.13-.28-.23-.49-.31s-.45-.13-.72-.16c-.28-.03-.57-.06-.87-.08-.3-.02-.61-.03-.93-.05-.32-.01-.62-.04-.92-.08-.31.16-.57.34-.77.57-.2.22-.3.48-.3.78,0,.19.05.37.15.54.1.17.25.31.46.44s.47.22.78.29c.32.07.69.1,1.13.1s.81-.04,1.14-.11c.33-.08.61-.18.83-.32s.4-.29.51-.48c.12-.19.18-.39.18-.61ZM220.12,95.38c.31,0,.59-.04.82-.13.24-.08.44-.2.59-.36.16-.15.28-.34.36-.55.08-.22.12-.45.12-.71,0-.53-.16-.95-.48-1.26-.32-.32-.79-.47-1.42-.47s-1.09.16-1.41.47c-.32.31-.48.74-.48,1.26,0,.26.04.49.12.71.08.21.2.4.36.55.16.15.36.27.59.36.24.09.51.13.81.13Z"/>
    <path class="cls-2" d="M227.95,92.07c.2-.21.41-.4.62-.58.22-.17.45-.32.69-.45.24-.12.5-.22.78-.29.28-.07.58-.1.89-.1.5,0,.95.08,1.33.25s.7.4.96.71c.26.3.45.67.58,1.09.13.43.2.9.2,1.41v5.82h-1.76v-5.82c0-.65-.15-1.16-.45-1.53-.3-.36-.76-.54-1.38-.54-.45,0-.87.11-1.26.32s-.76.5-1.09.87v6.71h-1.75v-9.14h1.05c.25,0,.4.12.46.35l.13.92Z"/>
    <path class="cls-2" d="M236.14,92.08c.51-.49,1.06-.85,1.66-1.09.6-.24,1.25-.36,1.97-.36.52,0,.98.09,1.39.26s.74.41,1.02.72c.28.31.48.67.62,1.1s.21.9.21,1.41v5.83h-.78c-.17,0-.31-.03-.4-.09-.09-.06-.16-.16-.22-.32l-.19-.8c-.23.22-.47.41-.69.57s-.47.31-.72.42c-.25.12-.51.21-.8.27-.28.06-.59.09-.94.09-.36,0-.7-.05-1.01-.15-.32-.1-.59-.25-.82-.45s-.42-.46-.55-.76c-.13-.31-.2-.66-.2-1.07,0-.36.1-.71.29-1.04s.51-.63.95-.9c.44-.26,1.02-.48,1.73-.65s1.59-.26,2.62-.29v-.67c0-.69-.15-1.21-.44-1.55s-.73-.51-1.3-.51c-.38,0-.71.05-.97.14s-.49.2-.67.32-.35.22-.5.32c-.14.1-.29.14-.44.14-.12,0-.22-.03-.31-.1-.09-.07-.16-.14-.21-.23l-.32-.57ZM241.29,95.88c-.71.02-1.32.08-1.82.17s-.9.2-1.22.35c-.31.14-.54.31-.67.51-.14.19-.21.41-.21.65,0,.23.04.42.11.59s.18.3.31.41c.13.11.28.18.46.23.17.05.36.07.57.07.27,0,.52-.03.74-.08.23-.05.44-.13.63-.23.2-.1.39-.22.57-.36.18-.14.36-.31.53-.5v-1.8Z"/>
    <path class="cls-2" d="M247.16,86.66v13.28h-1.76v-13.28h1.76Z"/>
  </g>
  <g>
    <path class="cls-2" d="M453.65,115.27v4.33h5.18v1.56h-5.18v5.48h-1.93v-12.92h8.01v1.56h-6.08Z"/>
    <path class="cls-2" d="M463.83,126.64h-1.93v-12.92h1.93v12.92Z"/>
    <path class="cls-2" d="M479.69,129.27h-1.58c-.23,0-.44-.03-.62-.09-.18-.06-.35-.18-.5-.35l-2.18-2.38c-.66.22-1.38.32-2.15.32-.96,0-1.83-.16-2.62-.49-.79-.32-1.46-.78-2.03-1.36-.56-.58-1-1.28-1.31-2.09-.31-.81-.47-1.69-.47-2.66s.16-1.84.47-2.66c.31-.81.75-1.51,1.31-2.09.56-.58,1.24-1.04,2.03-1.37s1.66-.49,2.62-.49,1.83.16,2.62.49c.79.33,1.46.78,2.02,1.37.56.59,1,1.28,1.31,2.09.31.81.46,1.7.46,2.66,0,.6-.06,1.17-.18,1.71s-.3,1.05-.53,1.52c-.23.47-.51.89-.84,1.28-.33.38-.71.72-1.13,1.01l3.3,3.57ZM468.19,120.18c0,.77.11,1.47.32,2.07.21.61.51,1.13.9,1.55.39.43.86.75,1.41.98.55.22,1.16.34,1.84.34s1.29-.11,1.84-.34c.55-.23,1.02-.55,1.4-.98s.69-.94.9-1.55c.21-.61.32-1.3.32-2.07s-.11-1.46-.32-2.07c-.21-.61-.51-1.13-.9-1.56s-.86-.75-1.4-.98c-.55-.23-1.16-.34-1.84-.34s-1.29.11-1.84.34c-.55.23-1.02.56-1.41.98-.39.43-.69.95-.9,1.56-.21.61-.32,1.3-.32,2.07Z"/>
  </g>
</svg>