<svg xmlns="http://www.w3.org/2000/svg" id="Layer_1" viewBox="0 0 750 300" width="750" height="300">
  <defs>
    <style>
      .cls-1 {
        fill: #333e48;
      }

      .cls-2 {
        fill: #e5eceb;
      }
    </style>
  </defs>
  <g>
    <path class="cls-1" d="M34.79,40.84h-1.93v-12.92h1.93v12.92Z"/>
    <path class="cls-1" d="M39.12,32.97c.2-.21.41-.4.62-.58s.45-.32.69-.45.5-.22.78-.29c.28-.07.58-.1.9-.1.5,0,.95.08,1.33.25.38.17.7.4.96.71.26.3.45.67.58,1.09.13.43.2.9.2,1.41v5.82h-1.76v-5.82c0-.65-.15-1.16-.45-1.53-.3-.36-.76-.54-1.38-.54-.45,0-.87.11-1.26.32s-.76.5-1.09.87v6.71h-1.75v-9.14h1.05c.25,0,.4.12.46.35l.13.92Z"/>
    <path class="cls-1" d="M50.28,40.99c-.74,0-1.31-.21-1.71-.62-.4-.41-.6-1-.6-1.77v-5.47h-1.06c-.1,0-.19-.03-.26-.09-.07-.06-.1-.16-.1-.28v-.71l1.48-.21.4-2.73c.02-.1.07-.18.14-.24.07-.06.16-.09.27-.09h.89v3.07h2.59v1.28h-2.59v5.35c0,.36.09.63.27.81.18.18.4.27.68.27.16,0,.3-.02.42-.06.12-.04.22-.09.3-.14.08-.05.16-.1.22-.14.06-.04.11-.06.16-.06.06,0,.11.01.14.04.03.03.07.07.1.13l.52.85c-.29.26-.63.47-1.03.61-.4.14-.81.22-1.23.22Z"/>
    <path class="cls-1" d="M61.39,39.54c-.22.25-.46.47-.75.65-.28.18-.58.33-.9.45-.32.11-.65.2-.99.25s-.67.08-1,.08c-.63,0-1.21-.11-1.75-.32s-1-.53-1.4-.94c-.39-.41-.7-.92-.92-1.53-.22-.61-.33-1.31-.33-2.1,0-.64.1-1.23.3-1.78.2-.55.48-1.03.85-1.44s.82-.73,1.35-.96c.53-.23,1.13-.35,1.8-.35.56,0,1.07.09,1.54.27.47.18.88.45,1.22.8.34.35.61.78.81,1.29.19.51.29,1.09.29,1.75,0,.27-.03.45-.09.54-.06.09-.17.14-.33.14h-5.99c.02.55.1,1.02.23,1.43.14.4.33.74.57,1.01.24.27.53.47.87.6s.71.2,1.12.2c.39,0,.73-.04,1.01-.13.28-.09.53-.19.74-.29.21-.1.38-.2.52-.29.14-.09.27-.13.37-.13.14,0,.25.05.33.16l.5.65ZM59.94,35.25c0-.35-.05-.67-.15-.96s-.24-.55-.44-.77c-.19-.22-.43-.38-.7-.5s-.59-.18-.95-.18c-.74,0-1.32.21-1.74.64-.42.43-.69,1.02-.81,1.77h4.79Z"/>
    <path class="cls-1" d="M65.07,33.45c.29-.6.65-1.07,1.06-1.41s.91-.51,1.49-.51c.2,0,.39.02.56.07.18.04.33.11.46.2l-.12,1.32c-.04.16-.14.24-.3.24-.08,0-.21-.02-.38-.05-.17-.03-.35-.05-.54-.05-.28,0-.53.04-.75.12-.22.08-.41.2-.58.36s-.32.35-.45.58c-.13.23-.25.49-.37.79v5.72h-1.75v-9.14h1.01c.19,0,.32.03.39.1.07.07.12.19.15.36l.11,1.29Z"/>
    <path class="cls-1" d="M71.67,33.45c.29-.6.65-1.07,1.06-1.41s.91-.51,1.49-.51c.2,0,.39.02.56.07.18.04.33.11.46.2l-.12,1.32c-.04.16-.14.24-.3.24-.08,0-.21-.02-.38-.05-.17-.03-.35-.05-.54-.05-.28,0-.53.04-.75.12-.22.08-.41.2-.58.36s-.32.35-.45.58c-.13.23-.25.49-.37.79v5.72h-1.75v-9.14h1.01c.19,0,.32.03.39.1.07.07.12.19.15.36l.11,1.29Z"/>
    <path class="cls-1" d="M84.21,31.7v9.14h-1.05c-.24,0-.4-.12-.47-.35l-.13-.92c-.2.21-.4.4-.62.58-.22.17-.45.32-.69.45s-.51.22-.78.29c-.28.07-.57.1-.89.1-.5,0-.95-.08-1.33-.25s-.7-.4-.96-.71-.45-.67-.58-1.09c-.13-.43-.2-.9-.2-1.41v-5.82h1.76v5.82c0,.65.15,1.16.45,1.53.3.36.76.54,1.38.54.45,0,.87-.11,1.26-.32s.76-.51,1.1-.88v-6.7h1.75Z"/>
    <path class="cls-1" d="M88.34,33.07c.19-.23.4-.44.62-.62.22-.19.45-.35.71-.49s.52-.24.81-.31.59-.11.91-.11c.52,0,.99.1,1.42.31s.78.5,1.08.9c.3.4.53.89.7,1.47s.25,1.25.25,2.01c0,.68-.09,1.31-.27,1.89s-.44,1.08-.78,1.51c-.34.43-.75.76-1.24,1-.49.24-1.04.36-1.65.36-.55,0-1.01-.09-1.4-.27-.39-.18-.74-.43-1.04-.76v3.97h-1.75v-12.21h1.05c.25,0,.4.12.46.35l.15,1.02ZM88.43,38.59c.29.38.6.64.93.79.33.15.71.22,1.12.22.8,0,1.43-.29,1.87-.87.44-.58.66-1.42.66-2.53,0-.58-.05-1.08-.15-1.49-.1-.41-.24-.75-.43-1.01-.19-.26-.42-.45-.7-.58-.28-.12-.59-.18-.94-.18-.51,0-.95.11-1.33.34-.38.23-.72.55-1.04.97v4.33Z"/>
    <path class="cls-1" d="M99.54,40.99c-.74,0-1.31-.21-1.71-.62-.4-.41-.6-1-.6-1.77v-5.47h-1.06c-.1,0-.19-.03-.26-.09-.07-.06-.1-.16-.1-.28v-.71l1.48-.21.4-2.73c.02-.1.07-.18.14-.24.07-.06.16-.09.27-.09h.89v3.07h2.59v1.28h-2.59v5.35c0,.36.09.63.27.81.18.18.4.27.68.27.16,0,.3-.02.42-.06.12-.04.22-.09.3-.14.08-.05.16-.1.22-.14.06-.04.11-.06.16-.06.06,0,.11.01.14.04.03.03.07.07.1.13l.52.85c-.29.26-.63.47-1.03.61-.4.14-.81.22-1.23.22Z"/>
    <path class="cls-1" d="M113.13,33.27c-.05.08-.1.13-.15.17-.05.03-.12.05-.21.05-.1,0-.2-.03-.32-.1-.12-.07-.26-.14-.42-.22s-.36-.15-.58-.22c-.22-.07-.49-.1-.79-.1-.25,0-.48.03-.69.09-.21.06-.38.15-.53.26-.14.11-.26.24-.33.4-.08.15-.12.32-.12.49,0,.23.07.42.2.57.13.15.31.28.53.39.22.11.47.21.75.29.28.09.56.18.85.27s.58.21.85.33c.28.12.53.28.75.46.22.18.4.4.53.66.13.26.2.57.2.95,0,.43-.08.82-.23,1.18-.15.36-.38.68-.67.94-.3.26-.66.47-1.1.62-.44.15-.94.22-1.5.22-.63,0-1.21-.1-1.75-.31s-.98-.48-1.34-.8l.41-.68c.05-.08.11-.15.18-.19.07-.04.17-.07.29-.07.11,0,.23.04.35.13s.26.18.43.27c.17.1.37.19.61.27.24.08.54.12.9.12.3,0,.56-.04.78-.11.22-.08.41-.18.55-.31s.26-.28.33-.45c.07-.17.11-.34.11-.53,0-.24-.07-.44-.2-.6-.14-.16-.31-.3-.53-.41-.22-.11-.47-.21-.75-.3-.28-.08-.57-.17-.86-.27-.29-.1-.58-.21-.86-.33s-.53-.29-.75-.48c-.22-.19-.4-.43-.53-.7-.14-.28-.2-.61-.2-1.01,0-.35.07-.69.22-1.02s.36-.61.64-.85c.28-.25.62-.44,1.04-.59.41-.15.88-.22,1.41-.22.61,0,1.15.1,1.64.29.49.19.91.46,1.26.79l-.39.64Z"/>
    <path class="cls-1" d="M117.73,28.87c0,.16-.03.32-.1.46-.07.15-.15.28-.27.39-.11.11-.24.2-.39.26-.15.06-.31.09-.47.09s-.32-.03-.46-.09c-.14-.06-.27-.15-.38-.26-.11-.11-.2-.24-.26-.39-.06-.15-.09-.3-.09-.46s.03-.33.09-.47.15-.28.26-.39c.11-.11.24-.2.38-.26.14-.06.3-.09.46-.09s.32.03.47.09c.15.06.28.15.39.26.11.11.2.24.27.39.07.15.1.3.1.47ZM117.4,31.7v9.14h-1.75v-9.14h1.75Z"/>
    <path class="cls-1" d="M127.74,32.04v.66c0,.22-.13.35-.4.4l-.98.14c.08.19.15.38.2.59s.07.42.07.65c0,.45-.09.86-.26,1.22-.17.36-.41.67-.72.93-.31.26-.67.46-1.09.59-.42.14-.89.21-1.39.21-.41,0-.8-.04-1.16-.13-.18.11-.32.23-.41.36-.09.13-.14.26-.14.38,0,.21.09.37.27.47.18.1.41.18.69.22.29.04.61.07.98.08.37.01.74.03,1.12.06.38.03.76.08,1.12.14.37.07.7.18.98.33.28.15.52.36.69.63.18.27.27.61.27,1.04,0,.4-.1.78-.29,1.15-.19.37-.48.7-.85.99-.37.29-.83.52-1.36.69-.53.17-1.14.26-1.82.26s-1.27-.07-1.77-.2-.92-.31-1.25-.53-.58-.48-.75-.77c-.17-.29-.25-.6-.25-.92,0-.44.14-.82.41-1.13s.66-.55,1.14-.72c-.26-.12-.47-.28-.63-.49-.16-.21-.23-.48-.23-.82,0-.13.02-.27.07-.41.05-.14.12-.28.22-.42s.22-.27.37-.4c.15-.13.32-.24.51-.34-.45-.25-.8-.59-1.06-1-.26-.42-.39-.9-.39-1.46,0-.45.09-.86.26-1.22.17-.36.42-.67.72-.93.31-.26.68-.46,1.11-.59.43-.14.9-.21,1.41-.21.79,0,1.47.17,2.04.5h2.54ZM125.96,41.32c0-.22-.06-.39-.18-.52-.12-.13-.28-.23-.49-.31s-.45-.13-.72-.16c-.28-.03-.57-.06-.87-.08-.3-.02-.61-.03-.93-.05-.32-.01-.62-.04-.92-.08-.31.16-.57.34-.77.57-.2.22-.3.48-.3.78,0,.19.05.37.15.54s.25.31.46.44.47.22.78.29.69.1,1.13.1.81-.04,1.14-.11c.33-.08.61-.18.83-.32s.4-.29.51-.48c.12-.19.18-.39.18-.61ZM123.16,36.28c.31,0,.59-.04.82-.13.24-.08.44-.2.59-.36.16-.15.28-.34.36-.55.08-.22.12-.45.12-.71,0-.53-.16-.95-.48-1.26-.32-.32-.79-.47-1.42-.47s-1.09.16-1.41.47c-.32.31-.48.74-.48,1.26,0,.26.04.49.12.71.08.21.2.4.36.55.16.15.36.27.59.36.24.09.51.13.81.13Z"/>
    <path class="cls-1" d="M130.99,32.97c.2-.21.41-.4.62-.58s.45-.32.69-.45.5-.22.78-.29c.28-.07.58-.1.9-.1.5,0,.95.08,1.33.25.38.17.7.4.96.71.26.3.45.67.58,1.09.13.43.2.9.2,1.41v5.82h-1.76v-5.82c0-.65-.15-1.16-.45-1.53-.3-.36-.76-.54-1.38-.54-.45,0-.87.11-1.26.32s-.76.5-1.09.87v6.71h-1.75v-9.14h1.05c.25,0,.4.12.46.35l.13.92Z"/>
    <path class="cls-1" d="M139.18,32.98c.51-.49,1.06-.85,1.66-1.09.6-.24,1.25-.36,1.97-.36.52,0,.98.09,1.39.26.4.17.74.41,1.02.72.28.31.48.67.63,1.1.14.43.21.9.21,1.41v5.83h-.78c-.17,0-.31-.03-.4-.09-.09-.06-.16-.16-.22-.32l-.19-.8c-.23.22-.47.41-.69.57s-.47.31-.72.42c-.25.12-.51.21-.8.27-.28.06-.59.09-.94.09-.36,0-.7-.05-1.01-.15-.31-.1-.59-.25-.82-.45-.23-.2-.42-.46-.55-.76-.13-.31-.2-.66-.2-1.07,0-.36.1-.71.29-1.04.2-.33.51-.63.95-.9.44-.26,1.02-.48,1.73-.65s1.59-.26,2.62-.29v-.67c0-.69-.15-1.21-.44-1.55s-.73-.51-1.3-.51c-.38,0-.71.05-.97.14-.26.1-.49.2-.67.32s-.35.22-.5.32c-.14.1-.29.14-.44.14-.12,0-.22-.03-.31-.1-.09-.07-.16-.14-.21-.23l-.31-.57ZM144.32,36.78c-.71.02-1.32.08-1.82.17s-.9.2-1.22.35c-.31.14-.54.31-.67.51-.14.19-.21.41-.21.65,0,.23.04.42.11.59.07.17.18.3.31.41.13.11.28.18.45.23.17.05.36.07.57.07.27,0,.52-.03.74-.08s.44-.13.63-.23c.2-.1.39-.22.57-.36.18-.14.36-.31.53-.5v-1.8Z"/>
    <path class="cls-1" d="M150.2,27.56v13.28h-1.76v-13.28h1.76Z"/>
    <path class="cls-1" d="M157.85,40.84v-7.7l-.95-.12c-.14-.03-.25-.08-.34-.15-.09-.07-.13-.17-.13-.3v-.73h1.42v-.83c0-.52.08-.99.23-1.39s.36-.75.64-1.04c.28-.29.61-.5,1.01-.65.39-.15.84-.22,1.33-.22.41,0,.79.06,1.14.18l-.04.88c0,.08-.03.14-.07.18-.04.04-.1.07-.17.09-.07.02-.15.03-.25.03-.1,0-.21,0-.32,0-.27,0-.52.03-.74.1-.22.07-.41.18-.57.33-.16.16-.28.36-.36.62s-.13.57-.13.95v.77h2.56v1.28h-2.51v7.72h-1.76Z"/>
    <path class="cls-1" d="M165.25,33.45c.29-.6.65-1.07,1.06-1.41s.91-.51,1.49-.51c.2,0,.39.02.56.07.18.04.33.11.46.2l-.12,1.32c-.04.16-.14.24-.3.24-.08,0-.21-.02-.38-.05-.17-.03-.35-.05-.54-.05-.28,0-.53.04-.75.12-.22.08-.41.2-.58.36s-.32.35-.45.58c-.13.23-.25.49-.37.79v5.72h-1.75v-9.14h1.01c.19,0,.32.03.39.1.07.07.12.19.15.36l.11,1.29Z"/>
    <path class="cls-1" d="M173.74,31.55c.67,0,1.28.11,1.82.33.54.22,1,.53,1.39.95s.67.91.88,1.49.31,1.23.31,1.95-.1,1.37-.31,1.95-.5,1.08-.88,1.49c-.38.41-.84.72-1.39.94-.54.22-1.15.33-1.82.33s-1.29-.11-1.83-.33c-.54-.22-1.01-.53-1.39-.94-.38-.41-.68-.9-.89-1.49s-.31-1.23-.31-1.95.1-1.37.31-1.95.5-1.07.89-1.49c.38-.41.85-.73,1.39-.95.54-.22,1.15-.33,1.83-.33ZM173.74,39.6c.86,0,1.51-.29,1.94-.87.43-.58.64-1.4.64-2.46s-.21-1.88-.64-2.46c-.43-.58-1.07-.88-1.94-.88s-1.53.29-1.96.88c-.43.58-.64,1.41-.64,2.46s.21,1.88.64,2.46c.43.58,1.08.87,1.96.87Z"/>
    <path class="cls-1" d="M180.09,40.84v-9.14h1.05c.25,0,.4.12.46.35l.13.87c.34-.4.71-.73,1.12-.99.41-.25.89-.38,1.44-.38.61,0,1.1.17,1.48.5s.65.78.83,1.35c.13-.32.3-.6.51-.84.21-.23.44-.43.7-.58.26-.15.53-.26.82-.33.29-.07.59-.11.89-.11.49,0,.92.08,1.3.23.38.15.7.38.97.67.26.29.46.66.6,1.09.14.43.21.92.21,1.48v5.82h-1.76v-5.82c0-.68-.15-1.2-.45-1.55-.3-.35-.73-.52-1.3-.52-.25,0-.49.04-.72.13-.23.09-.43.22-.6.39s-.31.39-.41.65c-.1.26-.15.56-.15.9v5.82h-1.76v-5.82c0-.71-.14-1.23-.42-1.57-.28-.34-.7-.5-1.24-.5-.38,0-.73.1-1.05.3-.32.2-.62.47-.89.81v6.79h-1.75Z"/>
    <path class="cls-1" d="M47.33,54.67c.19-.23.4-.44.62-.62.22-.19.45-.35.71-.49s.52-.24.81-.31.59-.11.91-.11c.52,0,.99.1,1.42.31s.78.5,1.08.9c.3.4.53.89.7,1.47s.25,1.25.25,2.01c0,.68-.09,1.31-.27,1.89s-.44,1.08-.78,1.51c-.34.43-.75.76-1.24,1-.49.24-1.04.36-1.65.36-.55,0-1.01-.09-1.4-.27-.39-.18-.74-.43-1.04-.76v3.97h-1.75v-12.21h1.05c.25,0,.4.12.46.35l.15,1.02ZM47.42,60.19c.29.38.6.64.93.79.33.15.71.22,1.12.22.8,0,1.43-.29,1.87-.87.44-.58.66-1.42.66-2.53,0-.58-.05-1.08-.15-1.49-.1-.41-.24-.75-.43-1.01-.19-.26-.42-.45-.7-.58-.28-.12-.59-.18-.94-.18-.51,0-.95.11-1.33.34-.38.23-.72.55-1.04.97v4.33Z"/>
    <path class="cls-1" d="M63.29,61.14c-.22.25-.46.47-.75.65-.28.18-.58.33-.9.45-.32.11-.65.2-.99.25s-.67.08-1,.08c-.63,0-1.21-.11-1.75-.32s-1-.53-1.4-.94c-.39-.41-.7-.92-.92-1.53-.22-.61-.33-1.31-.33-2.1,0-.64.1-1.23.3-1.78.2-.55.48-1.03.85-1.44s.82-.73,1.35-.96c.53-.23,1.13-.35,1.8-.35.56,0,1.07.09,1.54.27.47.18.88.45,1.22.8.34.35.61.78.81,1.29.19.51.29,1.09.29,1.75,0,.27-.03.45-.09.54-.06.09-.17.14-.33.14h-5.99c.02.55.1,1.02.23,1.43.14.4.33.74.57,1.01.24.27.53.47.87.6s.71.2,1.12.2c.39,0,.73-.04,1.01-.13.28-.09.53-.19.74-.29.21-.1.38-.2.52-.29.14-.09.27-.13.37-.13.14,0,.25.05.33.16l.5.65ZM61.84,56.85c0-.35-.05-.67-.15-.96s-.24-.55-.44-.77c-.19-.22-.43-.38-.7-.5s-.59-.18-.95-.18c-.74,0-1.32.21-1.74.64-.42.43-.69,1.02-.81,1.77h4.79Z"/>
    <path class="cls-1" d="M66.97,55.05c.29-.6.65-1.07,1.06-1.41s.91-.51,1.49-.51c.2,0,.39.02.56.07.18.04.33.11.46.2l-.12,1.32c-.04.16-.14.24-.3.24-.08,0-.21-.02-.38-.05-.17-.03-.35-.05-.54-.05-.28,0-.53.04-.75.12-.22.08-.41.2-.58.36s-.32.35-.45.58c-.13.23-.25.49-.37.79v5.72h-1.75v-9.14h1.01c.19,0,.32.03.39.1.07.07.12.19.15.36l.11,1.29Z"/>
    <path class="cls-1" d="M74.08,50.47c0,.16-.03.32-.1.46-.07.15-.15.28-.27.39-.11.11-.24.2-.39.26-.15.06-.31.09-.47.09s-.32-.03-.46-.09c-.14-.06-.27-.15-.38-.26-.11-.11-.2-.24-.26-.39-.06-.15-.09-.3-.09-.46s.03-.33.09-.47.15-.28.26-.39c.11-.11.24-.2.38-.26.14-.06.3-.09.46-.09s.32.03.47.09c.15.06.28.15.39.26.11.11.2.24.27.39.07.15.1.3.1.47ZM73.75,53.3v9.14h-1.75v-9.14h1.75Z"/>
    <path class="cls-1" d="M77.96,54.67c.19-.23.4-.44.62-.62.22-.19.45-.35.71-.49s.52-.24.81-.31.59-.11.91-.11c.52,0,.99.1,1.42.31s.78.5,1.08.9c.3.4.53.89.7,1.47s.25,1.25.25,2.01c0,.68-.09,1.31-.27,1.89s-.44,1.08-.78,1.51c-.34.43-.75.76-1.24,1-.49.24-1.04.36-1.65.36-.55,0-1.01-.09-1.4-.27-.39-.18-.74-.43-1.04-.76v3.97h-1.75v-12.21h1.05c.25,0,.4.12.46.35l.15,1.02ZM78.05,60.19c.29.38.6.64.93.79.33.15.71.22,1.12.22.8,0,1.43-.29,1.87-.87.44-.58.66-1.42.66-2.53,0-.58-.05-1.08-.15-1.49-.1-.41-.24-.75-.43-1.01-.19-.26-.42-.45-.7-.58-.28-.12-.59-.18-.94-.18-.51,0-.95.11-1.33.34-.38.23-.72.55-1.04.97v4.33Z"/>
    <path class="cls-1" d="M88.18,54.46c.38-.39.81-.7,1.27-.94.46-.24,1-.36,1.61-.36.5,0,.95.08,1.33.25.38.17.7.4.96.71.26.3.45.67.58,1.09.13.43.2.9.2,1.41v5.82h-1.76v-5.82c0-.65-.15-1.16-.45-1.53-.3-.36-.76-.54-1.38-.54-.45,0-.87.11-1.26.32s-.76.5-1.09.87v6.71h-1.75v-13.28h1.75v5.3Z"/>
    <path class="cls-1" d="M104,61.14c-.22.25-.46.47-.75.65-.28.18-.58.33-.9.45-.32.11-.65.2-.99.25s-.67.08-1,.08c-.63,0-1.21-.11-1.75-.32s-1-.53-1.4-.94c-.39-.41-.7-.92-.92-1.53-.22-.61-.33-1.31-.33-2.1,0-.64.1-1.23.3-1.78.2-.55.48-1.03.85-1.44s.82-.73,1.35-.96c.53-.23,1.13-.35,1.8-.35.56,0,1.07.09,1.54.27.47.18.88.45,1.22.8.34.35.61.78.81,1.29.19.51.29,1.09.29,1.75,0,.27-.03.45-.09.54-.06.09-.17.14-.33.14h-5.99c.02.55.1,1.02.23,1.43.14.4.33.74.57,1.01.24.27.53.47.87.6s.71.2,1.12.2c.39,0,.73-.04,1.01-.13.28-.09.53-.19.74-.29.21-.1.38-.2.52-.29.14-.09.27-.13.37-.13.14,0,.25.05.33.16l.5.65ZM102.55,56.85c0-.35-.05-.67-.15-.96s-.24-.55-.44-.77c-.19-.22-.43-.38-.7-.5s-.59-.18-.95-.18c-.74,0-1.32.21-1.74.64-.42.43-.69,1.02-.81,1.77h4.79Z"/>
    <path class="cls-1" d="M107.68,55.05c.29-.6.65-1.07,1.06-1.41s.91-.51,1.49-.51c.2,0,.39.02.56.07.18.04.33.11.46.2l-.12,1.32c-.04.16-.14.24-.3.24-.08,0-.21-.02-.38-.05-.17-.03-.35-.05-.54-.05-.28,0-.53.04-.75.12-.22.08-.41.2-.58.36s-.32.35-.45.58c-.13.23-.25.49-.37.79v5.72h-1.75v-9.14h1.01c.19,0,.32.03.39.1.07.07.12.19.15.36l.11,1.29Z"/>
    <path class="cls-1" d="M112.24,54.58c.51-.49,1.06-.85,1.66-1.09.6-.24,1.25-.36,1.97-.36.52,0,.98.09,1.39.26.4.17.74.41,1.02.72.28.31.48.67.63,1.1.14.43.21.9.21,1.41v5.83h-.78c-.17,0-.31-.03-.4-.09-.09-.06-.16-.16-.22-.32l-.19-.8c-.23.22-.47.41-.69.57s-.47.31-.72.42c-.25.12-.51.21-.8.27-.28.06-.59.09-.94.09-.36,0-.7-.05-1.01-.15-.31-.1-.59-.25-.82-.45-.23-.2-.42-.46-.55-.76-.13-.31-.2-.66-.2-1.07,0-.36.1-.71.29-1.04.2-.33.51-.63.95-.9.44-.26,1.02-.48,1.73-.65s1.59-.26,2.62-.29v-.67c0-.69-.15-1.21-.44-1.55s-.73-.51-1.3-.51c-.38,0-.71.05-.97.14-.26.1-.49.2-.67.32s-.35.22-.5.32c-.14.1-.29.14-.44.14-.12,0-.22-.03-.31-.1-.09-.07-.16-.14-.21-.23l-.31-.57ZM117.39,58.38c-.71.02-1.32.08-1.82.17s-.9.2-1.22.35c-.31.14-.54.31-.67.51-.14.19-.21.41-.21.65,0,.23.04.42.11.59.07.17.18.3.31.41.13.11.28.18.45.23.17.05.36.07.57.07.27,0,.52-.03.74-.08s.44-.13.63-.23c.2-.1.39-.22.57-.36.18-.14.36-.31.53-.5v-1.8Z"/>
    <path class="cls-1" d="M123.27,49.16v13.28h-1.76v-13.28h1.76Z"/>
    <path class="cls-1" d="M133.18,62.59c-.74,0-1.31-.21-1.71-.62-.4-.41-.6-1-.6-1.77v-5.47h-1.06c-.1,0-.19-.03-.26-.09-.07-.06-.1-.16-.1-.28v-.71l1.48-.21.4-2.73c.02-.1.07-.18.14-.24.07-.06.16-.09.27-.09h.89v3.07h2.59v1.28h-2.59v5.35c0,.36.09.63.27.81.18.18.4.27.68.27.16,0,.3-.02.42-.06.12-.04.22-.09.3-.14.08-.05.16-.1.22-.14.06-.04.11-.06.16-.06.06,0,.11.01.14.04.03.03.07.07.1.13l.52.85c-.29.26-.63.47-1.03.61-.4.14-.81.22-1.23.22Z"/>
    <path class="cls-1" d="M140.67,53.15c.67,0,1.28.11,1.82.33.54.22,1,.53,1.39.95s.67.91.88,1.49.31,1.23.31,1.95-.1,1.37-.31,1.95-.5,1.08-.88,1.49c-.38.41-.84.72-1.39.94-.54.22-1.15.33-1.82.33s-1.29-.11-1.83-.33c-.54-.22-1.01-.53-1.39-.94-.38-.41-.68-.9-.89-1.49s-.31-1.23-.31-1.95.1-1.37.31-1.95.5-1.07.89-1.49c.38-.41.85-.73,1.39-.95.54-.22,1.15-.33,1.83-.33ZM140.67,61.2c.86,0,1.51-.29,1.94-.87.43-.58.64-1.4.64-2.46s-.21-1.88-.64-2.46c-.43-.58-1.07-.88-1.94-.88s-1.53.29-1.96.88c-.43.58-.64,1.41-.64,2.46s.21,1.88.64,2.46c.43.58,1.08.87,1.96.87Z"/>
    <path class="cls-1" d="M162.47,56.15v5.04c-.65.47-1.35.82-2.09,1.05-.74.23-1.54.35-2.41.35-1.04,0-1.99-.16-2.83-.49-.84-.32-1.56-.78-2.16-1.36-.59-.58-1.05-1.28-1.37-2.09-.32-.81-.48-1.7-.48-2.67s.15-1.87.46-2.69c.31-.81.75-1.51,1.33-2.09.58-.58,1.27-1.03,2.09-1.35.82-.32,1.74-.48,2.76-.48.52,0,.99.04,1.44.12s.85.19,1.23.33c.38.14.73.32,1.05.52.32.2.62.43.9.68l-.55.86c-.08.14-.19.22-.33.26s-.29,0-.45-.1c-.16-.09-.33-.2-.52-.32s-.41-.23-.68-.33c-.26-.1-.57-.19-.91-.26-.35-.07-.76-.11-1.23-.11-.71,0-1.35.12-1.92.35s-1.06.56-1.46.99c-.4.43-.71.95-.93,1.56-.22.61-.32,1.29-.32,2.05s.11,1.5.34,2.13c.23.63.55,1.16.97,1.59.42.43.92.77,1.52.99.6.23,1.26.34,2,.34.29,0,.56-.02.81-.05.25-.03.49-.08.72-.14.23-.06.45-.13.66-.23.21-.09.42-.19.63-.3v-2.71h-1.91c-.12,0-.22-.04-.29-.11-.08-.07-.11-.16-.11-.27v-1.09h4.05Z"/>
    <path class="cls-1" d="M166.98,62.44h-1.93v-12.92h1.93v12.92Z"/>
    <path class="cls-1" d="M179.19,59.67c.11,0,.2.04.28.13l.76.83c-.53.62-1.17,1.11-1.93,1.45-.76.34-1.67.51-2.74.51-.94,0-1.78-.16-2.54-.49-.76-.32-1.41-.78-1.94-1.36-.54-.58-.95-1.28-1.25-2.09-.29-.81-.44-1.7-.44-2.67s.15-1.86.46-2.67c.31-.81.74-1.51,1.3-2.09.56-.58,1.23-1.04,2-1.36.78-.32,1.64-.49,2.58-.49s1.73.15,2.45.45c.71.3,1.33.7,1.86,1.2l-.63.89c-.04.07-.09.12-.16.16s-.15.06-.25.06c-.11,0-.25-.06-.4-.17-.15-.11-.35-.24-.6-.38-.25-.14-.56-.27-.92-.38-.37-.11-.82-.17-1.37-.17-.64,0-1.23.11-1.76.34-.53.22-.99.55-1.38.97-.39.42-.69.94-.9,1.56-.21.62-.32,1.31-.32,2.08s.11,1.49.33,2.1c.22.61.53,1.13.92,1.56.39.43.85.75,1.38.97s1.1.33,1.71.33c.37,0,.71-.02,1-.07.3-.04.57-.11.82-.2.25-.09.48-.21.71-.35.22-.14.44-.31.66-.51.05-.04.1-.08.15-.1.05-.03.11-.04.17-.04Z"/>
  </g>
  <g>
    <path class="cls-1" d="M34.79,130.84h-1.93v-12.92h1.93v12.92Z"/>
    <path class="cls-1" d="M39.12,122.97c.2-.21.41-.4.62-.58s.45-.32.69-.45.5-.22.78-.29c.28-.07.58-.1.9-.1.5,0,.95.08,1.33.25.38.17.7.4.96.71.26.3.45.67.58,1.09.13.43.2.9.2,1.41v5.82h-1.76v-5.82c0-.65-.15-1.16-.45-1.53-.3-.36-.76-.54-1.38-.54-.45,0-.87.11-1.26.32s-.76.5-1.09.87v6.71h-1.75v-9.14h1.05c.25,0,.4.12.46.35l.13.92Z"/>
    <path class="cls-1" d="M50.28,130.99c-.74,0-1.31-.21-1.71-.62-.4-.41-.6-1-.6-1.77v-5.47h-1.06c-.1,0-.19-.03-.26-.09-.07-.06-.1-.16-.1-.28v-.71l1.48-.21.4-2.73c.02-.1.07-.18.14-.24.07-.06.16-.09.27-.09h.89v3.07h2.59v1.28h-2.59v5.35c0,.36.09.63.27.81.18.18.4.27.68.27.16,0,.3-.02.42-.06.12-.04.22-.09.3-.14.08-.05.16-.1.22-.14.06-.04.11-.06.16-.06.06,0,.11.01.14.04.03.03.07.07.1.13l.52.85c-.29.26-.63.47-1.03.61-.4.14-.81.22-1.23.22Z"/>
    <path class="cls-1" d="M61.39,129.54c-.22.25-.46.47-.75.65-.28.18-.58.33-.9.45-.32.11-.65.2-.99.25s-.67.08-1,.08c-.63,0-1.21-.11-1.75-.32s-1-.53-1.4-.94c-.39-.41-.7-.92-.92-1.53-.22-.61-.33-1.31-.33-2.1,0-.64.1-1.23.3-1.78.2-.55.48-1.03.85-1.44s.82-.73,1.35-.96c.53-.23,1.13-.35,1.8-.35.56,0,1.07.09,1.54.27.47.18.88.45,1.22.8.34.35.61.78.81,1.29.19.51.29,1.09.29,1.75,0,.27-.03.45-.09.54-.06.09-.17.14-.33.14h-5.99c.02.55.1,1.02.23,1.43.14.4.33.74.57,1.01.24.27.53.47.87.6s.71.2,1.12.2c.39,0,.73-.04,1.01-.13.28-.09.53-.19.74-.29.21-.1.38-.2.52-.29.14-.09.27-.13.37-.13.14,0,.25.05.33.16l.5.65ZM59.94,125.25c0-.35-.05-.67-.15-.96s-.24-.55-.44-.77c-.19-.22-.43-.38-.7-.5s-.59-.18-.95-.18c-.74,0-1.32.21-1.74.64-.42.43-.69,1.02-.81,1.77h4.79Z"/>
    <path class="cls-1" d="M65.07,123.45c.29-.6.65-1.07,1.06-1.41s.91-.51,1.49-.51c.2,0,.39.02.56.07.18.04.33.11.46.2l-.12,1.32c-.04.16-.14.24-.3.24-.08,0-.21-.02-.38-.05-.17-.03-.35-.05-.54-.05-.28,0-.53.04-.75.12-.22.08-.41.2-.58.36s-.32.35-.45.58c-.13.23-.25.49-.37.79v5.72h-1.75v-9.14h1.01c.19,0,.32.03.39.1.07.07.12.19.15.36l.11,1.29Z"/>
    <path class="cls-1" d="M71.67,123.45c.29-.6.65-1.07,1.06-1.41s.91-.51,1.49-.51c.2,0,.39.02.56.07.18.04.33.11.46.2l-.12,1.32c-.04.16-.14.24-.3.24-.08,0-.21-.02-.38-.05-.17-.03-.35-.05-.54-.05-.28,0-.53.04-.75.12-.22.08-.41.2-.58.36s-.32.35-.45.58c-.13.23-.25.49-.37.79v5.72h-1.75v-9.14h1.01c.19,0,.32.03.39.1.07.07.12.19.15.36l.11,1.29Z"/>
    <path class="cls-1" d="M84.21,121.7v9.14h-1.05c-.24,0-.4-.12-.47-.35l-.13-.92c-.2.21-.4.4-.62.58-.22.17-.45.32-.69.45s-.51.22-.78.29c-.28.07-.57.1-.89.1-.5,0-.95-.08-1.33-.25s-.7-.4-.96-.71-.45-.67-.58-1.09c-.13-.43-.2-.9-.2-1.41v-5.82h1.76v5.82c0,.65.15,1.16.45,1.53.3.36.76.54,1.38.54.45,0,.87-.11,1.26-.32s.76-.51,1.1-.88v-6.7h1.75Z"/>
    <path class="cls-1" d="M88.34,123.07c.19-.23.4-.44.62-.62.22-.19.45-.35.71-.49s.52-.24.81-.31.59-.11.91-.11c.52,0,.99.1,1.42.31s.78.5,1.08.9c.3.4.53.89.7,1.47s.25,1.25.25,2.01c0,.68-.09,1.31-.27,1.89s-.44,1.08-.78,1.51c-.34.43-.75.76-1.24,1-.49.24-1.04.36-1.65.36-.55,0-1.01-.09-1.4-.27-.39-.18-.74-.43-1.04-.76v3.97h-1.75v-12.21h1.05c.25,0,.4.12.46.35l.15,1.02ZM88.43,128.59c.29.38.6.64.93.79.33.15.71.22,1.12.22.8,0,1.43-.29,1.87-.87.44-.58.66-1.42.66-2.53,0-.58-.05-1.08-.15-1.49-.1-.41-.24-.75-.43-1.01-.19-.26-.42-.45-.7-.58-.28-.12-.59-.18-.94-.18-.51,0-.95.11-1.33.34-.38.23-.72.55-1.04.97v4.33Z"/>
    <path class="cls-1" d="M99.54,130.99c-.74,0-1.31-.21-1.71-.62-.4-.41-.6-1-.6-1.77v-5.47h-1.06c-.1,0-.19-.03-.26-.09-.07-.06-.1-.16-.1-.28v-.71l1.48-.21.4-2.73c.02-.1.07-.18.14-.24.07-.06.16-.09.27-.09h.89v3.07h2.59v1.28h-2.59v5.35c0,.36.09.63.27.81.18.18.4.27.68.27.16,0,.3-.02.42-.06.12-.04.22-.09.3-.14.08-.05.16-.1.22-.14.06-.04.11-.06.16-.06.06,0,.11.01.14.04.03.03.07.07.1.13l.52.85c-.29.26-.63.47-1.03.61-.4.14-.81.22-1.23.22Z"/>
    <path class="cls-1" d="M113.13,123.27c-.05.08-.1.13-.15.17-.05.03-.12.05-.21.05-.1,0-.2-.03-.32-.1-.12-.07-.26-.14-.42-.22s-.36-.15-.58-.22c-.22-.07-.49-.1-.79-.1-.25,0-.48.03-.69.09-.21.06-.38.15-.53.26-.14.11-.26.24-.33.4-.08.15-.12.32-.12.49,0,.23.07.42.2.57.13.15.31.28.53.39.22.11.47.21.75.29.28.09.56.18.85.27s.58.21.85.33c.28.12.53.28.75.46.22.18.4.4.53.66.13.26.2.57.2.95,0,.43-.08.82-.23,1.18-.15.36-.38.68-.67.94-.3.26-.66.47-1.1.62-.44.15-.94.22-1.5.22-.63,0-1.21-.1-1.75-.31s-.98-.48-1.34-.8l.41-.68c.05-.08.11-.15.18-.19.07-.04.17-.07.29-.07.11,0,.23.04.35.13s.26.18.43.27c.17.1.37.19.61.27.24.08.54.12.9.12.3,0,.56-.04.78-.11.22-.08.41-.18.55-.31s.26-.28.33-.45c.07-.17.11-.34.11-.53,0-.24-.07-.44-.2-.6-.14-.16-.31-.3-.53-.41-.22-.11-.47-.21-.75-.3-.28-.08-.57-.17-.86-.27-.29-.1-.58-.21-.86-.33s-.53-.29-.75-.48c-.22-.19-.4-.43-.53-.7-.14-.28-.2-.61-.2-1.01,0-.35.07-.69.22-1.02s.36-.61.64-.85c.28-.25.62-.44,1.04-.59.41-.15.88-.22,1.41-.22.61,0,1.15.1,1.64.29.49.19.91.46,1.26.79l-.39.64Z"/>
    <path class="cls-1" d="M117.73,118.87c0,.16-.03.32-.1.46-.07.15-.15.28-.27.39-.11.11-.24.2-.39.26-.15.06-.31.09-.47.09s-.32-.03-.46-.09c-.14-.06-.27-.15-.38-.26-.11-.11-.2-.24-.26-.39-.06-.15-.09-.3-.09-.46s.03-.33.09-.47.15-.28.26-.39c.11-.11.24-.2.38-.26.14-.06.3-.09.46-.09s.32.03.47.09c.15.06.28.15.39.26.11.11.2.24.27.39.07.15.1.3.1.47ZM117.4,121.7v9.14h-1.75v-9.14h1.75Z"/>
    <path class="cls-1" d="M127.74,122.04v.66c0,.22-.13.35-.4.4l-.98.14c.08.19.15.38.2.59s.07.42.07.65c0,.45-.09.86-.26,1.22-.17.36-.41.67-.72.93-.31.26-.67.46-1.09.59-.42.14-.89.21-1.39.21-.41,0-.8-.04-1.16-.13-.18.11-.32.23-.41.36-.09.13-.14.26-.14.38,0,.21.09.37.27.47.18.1.41.18.69.22.29.04.61.07.98.08.37.01.74.03,1.12.06.38.03.76.08,1.12.14.37.07.7.18.98.33.28.15.52.36.69.63.18.27.27.61.27,1.04,0,.4-.1.78-.29,1.15-.19.37-.48.7-.85.99-.37.29-.83.52-1.36.69-.53.17-1.14.26-1.82.26s-1.27-.07-1.77-.2-.92-.31-1.25-.53-.58-.48-.75-.77c-.17-.29-.25-.6-.25-.92,0-.44.14-.82.41-1.13s.66-.55,1.14-.72c-.26-.12-.47-.28-.63-.49-.16-.21-.23-.48-.23-.82,0-.13.02-.27.07-.41.05-.14.12-.28.22-.42s.22-.27.37-.4c.15-.13.32-.24.51-.34-.45-.25-.8-.59-1.06-1-.26-.42-.39-.9-.39-1.46,0-.45.09-.86.26-1.22.17-.36.42-.67.72-.93.31-.26.68-.46,1.11-.59.43-.14.9-.21,1.41-.21.79,0,1.47.17,2.04.5h2.54ZM125.96,131.32c0-.22-.06-.39-.18-.52-.12-.13-.28-.23-.49-.31s-.45-.13-.72-.16c-.28-.03-.57-.06-.87-.08-.3-.02-.61-.03-.93-.05-.32-.01-.62-.04-.92-.08-.31.16-.57.34-.77.57-.2.22-.3.48-.3.78,0,.19.05.37.15.54s.25.31.46.44.47.22.78.29.69.1,1.13.1.81-.04,1.14-.11c.33-.08.61-.18.83-.32s.4-.29.51-.48c.12-.19.18-.39.18-.61ZM123.16,126.28c.31,0,.59-.04.82-.13.24-.08.44-.2.59-.36.16-.15.28-.34.36-.55.08-.22.12-.45.12-.71,0-.53-.16-.95-.48-1.26-.32-.32-.79-.47-1.42-.47s-1.09.16-1.41.47c-.32.31-.48.74-.48,1.26,0,.26.04.49.12.71.08.21.2.4.36.55.16.15.36.27.59.36.24.09.51.13.81.13Z"/>
    <path class="cls-1" d="M130.99,122.97c.2-.21.41-.4.62-.58s.45-.32.69-.45.5-.22.78-.29c.28-.07.58-.1.9-.1.5,0,.95.08,1.33.25.38.17.7.4.96.71.26.3.45.67.58,1.09.13.43.2.9.2,1.41v5.82h-1.76v-5.82c0-.65-.15-1.16-.45-1.53-.3-.36-.76-.54-1.38-.54-.45,0-.87.11-1.26.32s-.76.5-1.09.87v6.71h-1.75v-9.14h1.05c.25,0,.4.12.46.35l.13.92Z"/>
    <path class="cls-1" d="M139.18,122.98c.51-.49,1.06-.85,1.66-1.09.6-.24,1.25-.36,1.97-.36.52,0,.98.09,1.39.26.4.17.74.41,1.02.72.28.31.48.67.63,1.1.14.43.21.9.21,1.41v5.83h-.78c-.17,0-.31-.03-.4-.09-.09-.06-.16-.16-.22-.32l-.19-.8c-.23.22-.47.41-.69.57s-.47.31-.72.42c-.25.12-.51.21-.8.27-.28.06-.59.09-.94.09-.36,0-.7-.05-1.01-.15-.31-.1-.59-.25-.82-.45-.23-.2-.42-.46-.55-.76-.13-.31-.2-.66-.2-1.07,0-.36.1-.71.29-1.04.2-.33.51-.63.95-.9.44-.26,1.02-.48,1.73-.65s1.59-.26,2.62-.29v-.67c0-.69-.15-1.21-.44-1.55s-.73-.51-1.3-.51c-.38,0-.71.05-.97.14-.26.1-.49.2-.67.32s-.35.22-.5.32c-.14.1-.29.14-.44.14-.12,0-.22-.03-.31-.1-.09-.07-.16-.14-.21-.23l-.31-.57ZM144.32,126.78c-.71.02-1.32.08-1.82.17s-.9.2-1.22.35c-.31.14-.54.31-.67.51-.14.19-.21.41-.21.65,0,.23.04.42.11.59.07.17.18.3.31.41.13.11.28.18.45.23.17.05.36.07.57.07.27,0,.52-.03.74-.08s.44-.13.63-.23c.2-.1.39-.22.57-.36.18-.14.36-.31.53-.5v-1.8Z"/>
    <path class="cls-1" d="M150.2,117.56v13.28h-1.76v-13.28h1.76Z"/>
    <path class="cls-1" d="M157.85,130.84v-7.7l-.95-.12c-.14-.03-.25-.08-.34-.15-.09-.07-.13-.17-.13-.3v-.73h1.42v-.83c0-.52.08-.99.23-1.39s.36-.75.64-1.04c.28-.29.61-.5,1.01-.65.39-.15.84-.22,1.33-.22.41,0,.79.06,1.14.18l-.04.88c0,.08-.03.14-.07.18-.04.04-.1.07-.17.09-.07.02-.15.03-.25.03-.1,0-.21,0-.32,0-.27,0-.52.03-.74.1-.22.07-.41.18-.57.33-.16.16-.28.36-.36.62s-.13.57-.13.95v.77h2.56v1.28h-2.51v7.72h-1.76Z"/>
    <path class="cls-1" d="M165.25,123.45c.29-.6.65-1.07,1.06-1.41s.91-.51,1.49-.51c.2,0,.39.02.56.07.18.04.33.11.46.2l-.12,1.32c-.04.16-.14.24-.3.24-.08,0-.21-.02-.38-.05-.17-.03-.35-.05-.54-.05-.28,0-.53.04-.75.12-.22.08-.41.2-.58.36s-.32.35-.45.58c-.13.23-.25.49-.37.79v5.72h-1.75v-9.14h1.01c.19,0,.32.03.39.1.07.07.12.19.15.36l.11,1.29Z"/>
    <path class="cls-1" d="M173.74,121.55c.67,0,1.28.11,1.82.33.54.22,1,.53,1.39.95s.67.91.88,1.49.31,1.23.31,1.95-.1,1.37-.31,1.95-.5,1.08-.88,1.49c-.38.41-.84.72-1.39.94-.54.22-1.15.33-1.82.33s-1.29-.11-1.83-.33c-.54-.22-1.01-.53-1.39-.94-.38-.41-.68-.9-.89-1.49s-.31-1.23-.31-1.95.1-1.37.31-1.95.5-1.07.89-1.49c.38-.41.85-.73,1.39-.95.54-.22,1.15-.33,1.83-.33ZM173.74,129.6c.86,0,1.51-.29,1.94-.87.43-.58.64-1.4.64-2.46s-.21-1.88-.64-2.46c-.43-.58-1.07-.88-1.94-.88s-1.53.29-1.96.88c-.43.58-.64,1.41-.64,2.46s.21,1.88.64,2.46c.43.58,1.08.87,1.96.87Z"/>
    <path class="cls-1" d="M180.09,130.84v-9.14h1.05c.25,0,.4.12.46.35l.13.87c.34-.4.71-.73,1.12-.99.41-.25.89-.38,1.44-.38.61,0,1.1.17,1.48.5s.65.78.83,1.35c.13-.32.3-.6.51-.84.21-.23.44-.43.7-.58.26-.15.53-.26.82-.33.29-.07.59-.11.89-.11.49,0,.92.08,1.3.23.38.15.7.38.97.67.26.29.46.66.6,1.09.14.43.21.92.21,1.48v5.82h-1.76v-5.82c0-.68-.15-1.2-.45-1.55-.3-.35-.73-.52-1.3-.52-.25,0-.49.04-.72.13-.23.09-.43.22-.6.39s-.31.39-.41.65c-.1.26-.15.56-.15.9v5.82h-1.76v-5.82c0-.71-.14-1.23-.42-1.57-.28-.34-.7-.5-1.24-.5-.38,0-.73.1-1.05.3-.32.2-.62.47-.89.81v6.79h-1.75Z"/>
    <path class="cls-1" d="M79.39,146.15v5.04c-.65.47-1.35.82-2.09,1.05-.74.23-1.54.35-2.41.35-1.04,0-1.99-.16-2.83-.49-.84-.32-1.56-.78-2.16-1.36-.59-.58-1.05-1.28-1.37-2.09-.32-.81-.48-1.7-.48-2.67s.15-1.87.46-2.69c.31-.81.75-1.51,1.33-2.09.58-.58,1.27-1.03,2.09-1.35.82-.32,1.74-.48,2.76-.48.52,0,.99.04,1.44.12s.85.19,1.23.33c.38.14.73.32,1.05.52.32.2.62.43.9.68l-.55.86c-.08.14-.19.22-.33.26s-.29,0-.45-.1c-.16-.09-.33-.2-.52-.32s-.41-.23-.68-.33c-.26-.1-.57-.19-.91-.26-.35-.07-.76-.11-1.23-.11-.71,0-1.35.12-1.92.35s-1.06.56-1.46.99c-.4.43-.71.95-.93,1.56-.22.61-.32,1.29-.32,2.05s.11,1.5.34,2.13c.23.63.55,1.16.97,1.59.42.43.92.77,1.52.99.6.23,1.26.34,2,.34.29,0,.56-.02.81-.05.25-.03.49-.08.72-.14.23-.06.45-.13.66-.23.21-.09.42-.19.63-.3v-2.71h-1.91c-.12,0-.22-.04-.29-.11-.08-.07-.11-.16-.11-.27v-1.09h4.05Z"/>
    <path class="cls-1" d="M83.89,152.44h-1.93v-12.92h1.93v12.92Z"/>
    <path class="cls-1" d="M96.11,149.67c.11,0,.2.04.28.13l.76.83c-.53.62-1.17,1.11-1.93,1.45-.76.34-1.67.51-2.74.51-.94,0-1.78-.16-2.54-.49-.76-.32-1.41-.78-1.94-1.36-.54-.58-.95-1.28-1.25-2.09-.29-.81-.44-1.7-.44-2.67s.15-1.86.46-2.67c.31-.81.74-1.51,1.3-2.09.56-.58,1.23-1.04,2-1.36.78-.32,1.64-.49,2.58-.49s1.73.15,2.45.45c.71.3,1.33.7,1.86,1.2l-.63.89c-.04.07-.09.12-.16.16s-.15.06-.25.06c-.11,0-.25-.06-.4-.17-.15-.11-.35-.24-.6-.38-.25-.14-.56-.27-.92-.38-.37-.11-.82-.17-1.37-.17-.64,0-1.23.11-1.76.34-.53.22-.99.55-1.38.97-.39.42-.69.94-.9,1.56-.21.62-.32,1.31-.32,2.08s.11,1.49.33,2.1c.22.61.53,1.13.92,1.56.39.43.85.75,1.38.97s1.1.33,1.71.33c.37,0,.71-.02,1-.07.3-.04.57-.11.82-.2.25-.09.48-.21.71-.35.22-.14.44-.31.66-.51.05-.04.1-.08.15-.1.05-.03.11-.04.17-.04Z"/>
    <path class="cls-1" d="M106.12,152.59c-.74,0-1.31-.21-1.71-.62-.4-.41-.6-1-.6-1.77v-5.47h-1.06c-.1,0-.19-.03-.26-.09-.07-.06-.1-.16-.1-.28v-.71l1.48-.21.4-2.73c.02-.1.07-.18.14-.24.07-.06.16-.09.27-.09h.89v3.07h2.59v1.28h-2.59v5.35c0,.36.09.63.27.81.18.18.4.27.68.27.16,0,.3-.02.42-.06.12-.04.22-.09.3-.14.08-.05.16-.1.22-.14.06-.04.11-.06.16-.06.06,0,.11.01.14.04.03.03.07.07.1.13l.52.85c-.29.26-.63.47-1.03.61-.4.14-.81.22-1.23.22Z"/>
    <path class="cls-1" d="M113.62,143.15c.67,0,1.28.11,1.82.33.54.22,1,.53,1.39.95s.67.91.88,1.49.31,1.23.31,1.95-.1,1.37-.31,1.95-.5,1.08-.88,1.49c-.38.41-.84.72-1.39.94-.54.22-1.15.33-1.82.33s-1.29-.11-1.83-.33c-.54-.22-1.01-.53-1.39-.94-.38-.41-.68-.9-.89-1.49s-.31-1.23-.31-1.95.1-1.37.31-1.95.5-1.07.89-1.49c.38-.41.85-.73,1.39-.95.54-.22,1.15-.33,1.83-.33ZM113.62,151.2c.86,0,1.51-.29,1.94-.87.43-.58.64-1.4.64-2.46s-.21-1.88-.64-2.46c-.43-.58-1.07-.88-1.94-.88s-1.53.29-1.96.88c-.43.58-.64,1.41-.64,2.46s.21,1.88.64,2.46c.43.58,1.08.87,1.96.87Z"/>
    <path class="cls-1" d="M130.92,145.01c-.05.07-.11.12-.16.16s-.12.06-.22.06-.2-.04-.3-.11c-.1-.08-.24-.16-.4-.24s-.35-.17-.58-.24c-.22-.08-.5-.11-.83-.11-.43,0-.81.08-1.14.23-.33.16-.6.38-.82.67s-.39.64-.5,1.05-.17.88-.17,1.39.06,1.01.18,1.43c.12.42.29.77.51,1.05s.49.5.81.65c.32.15.67.22,1.06.22s.69-.05.94-.14c.25-.09.45-.19.61-.3.16-.11.3-.21.41-.3s.22-.14.33-.14c.14,0,.25.05.33.16l.5.65c-.21.26-.45.48-.71.66-.26.18-.54.33-.83.44s-.6.2-.92.25c-.32.05-.65.08-.98.08-.57,0-1.1-.11-1.6-.32-.49-.21-.92-.52-1.29-.92-.36-.4-.65-.9-.86-1.48s-.31-1.25-.31-1.99c0-.68.09-1.3.28-1.88s.47-1.07.84-1.49.82-.74,1.36-.98,1.16-.36,1.85-.36c.65,0,1.23.11,1.73.32s.94.51,1.33.89l-.47.65Z"/>
    <path class="cls-1" d="M136.86,143.15c.67,0,1.28.11,1.82.33.54.22,1,.53,1.39.95s.67.91.88,1.49.31,1.23.31,1.95-.1,1.37-.31,1.95-.5,1.08-.88,1.49c-.38.41-.84.72-1.39.94-.54.22-1.15.33-1.82.33s-1.29-.11-1.83-.33c-.54-.22-1.01-.53-1.39-.94-.38-.41-.68-.9-.89-1.49s-.31-1.23-.31-1.95.1-1.37.31-1.95.5-1.07.89-1.49c.38-.41.85-.73,1.39-.95.54-.22,1.15-.33,1.83-.33ZM136.86,151.2c.86,0,1.51-.29,1.94-.87.43-.58.64-1.4.64-2.46s-.21-1.88-.64-2.46c-.43-.58-1.07-.88-1.94-.88s-1.53.29-1.96.88c-.43.58-.64,1.41-.64,2.46s.21,1.88.64,2.46c.43.58,1.08.87,1.96.87Z"/>
    <path class="cls-1" d="M144.86,145.05c.29-.6.65-1.07,1.06-1.41s.91-.51,1.49-.51c.2,0,.39.02.56.07.18.04.33.11.46.2l-.12,1.32c-.04.16-.14.24-.3.24-.08,0-.21-.02-.38-.05-.17-.03-.35-.05-.54-.05-.28,0-.53.04-.75.12-.22.08-.41.2-.58.36s-.32.35-.45.58c-.13.23-.25.49-.37.79v5.72h-1.75v-9.14h1.01c.19,0,.32.03.39.1.07.07.12.19.15.36l.11,1.29Z"/>
    <path class="cls-1" d="M156.96,151.14c-.22.25-.46.47-.75.65-.28.18-.58.33-.9.45-.32.11-.65.2-.99.25s-.67.08-1,.08c-.63,0-1.21-.11-1.75-.32s-1-.53-1.4-.94c-.39-.41-.7-.92-.92-1.53-.22-.61-.33-1.31-.33-2.1,0-.64.1-1.23.3-1.78.2-.55.48-1.03.85-1.44s.82-.73,1.35-.96c.53-.23,1.13-.35,1.8-.35.56,0,1.07.09,1.54.27.47.18.88.45,1.22.8.34.35.61.78.81,1.29.19.51.29,1.09.29,1.75,0,.27-.03.45-.09.54-.06.09-.17.14-.33.14h-5.99c.02.55.1,1.02.23,1.43.14.4.33.74.57,1.01.24.27.53.47.87.6s.71.2,1.12.2c.39,0,.73-.04,1.01-.13.28-.09.53-.19.74-.29.21-.1.38-.2.52-.29.14-.09.27-.13.37-.13.14,0,.25.05.33.16l.5.65ZM155.51,146.85c0-.35-.05-.67-.15-.96s-.24-.55-.44-.77c-.19-.22-.43-.38-.7-.5s-.59-.18-.95-.18c-.74,0-1.32.21-1.74.64-.42.43-.69,1.02-.81,1.77h4.79Z"/>
  </g>
  <g>
    <path class="cls-1" d="M52.11,199.55v5.04c-.65.47-1.35.82-2.09,1.05-.74.23-1.54.35-2.41.35-1.04,0-1.99-.16-2.83-.49-.84-.32-1.56-.78-2.16-1.36-.59-.58-1.05-1.28-1.37-2.09-.32-.81-.48-1.7-.48-2.67s.15-1.87.46-2.69c.31-.81.75-1.51,1.33-2.09.58-.58,1.27-1.03,2.09-1.35.82-.32,1.74-.48,2.76-.48.52,0,.99.04,1.44.12s.85.19,1.23.33c.38.14.73.32,1.05.52.32.2.62.43.9.68l-.55.86c-.08.14-.19.22-.33.26s-.29,0-.45-.1c-.16-.09-.33-.2-.52-.32s-.41-.23-.68-.33c-.26-.1-.57-.19-.91-.26-.35-.07-.76-.11-1.23-.11-.71,0-1.35.12-1.92.35s-1.06.56-1.46.99c-.4.43-.71.95-.93,1.56-.22.61-.32,1.29-.32,2.05s.11,1.5.34,2.13c.23.63.55,1.16.97,1.59.42.43.92.77,1.52.99.6.23,1.26.34,2,.34.29,0,.56-.02.81-.05.25-.03.49-.08.72-.14.23-.06.45-.13.66-.23.21-.09.42-.19.63-.3v-2.71h-1.91c-.12,0-.22-.04-.29-.11-.08-.07-.11-.16-.11-.27v-1.09h4.05Z"/>
    <path class="cls-1" d="M56.62,205.84h-1.93v-12.92h1.93v12.92Z"/>
    <path class="cls-1" d="M68.83,203.07c.11,0,.2.04.28.13l.76.83c-.53.62-1.17,1.11-1.93,1.45-.76.34-1.67.51-2.74.51-.94,0-1.78-.16-2.54-.49-.76-.32-1.41-.78-1.94-1.36-.54-.58-.95-1.28-1.25-2.09-.29-.81-.44-1.7-.44-2.67s.15-1.86.46-2.67c.31-.81.74-1.51,1.3-2.09.56-.58,1.23-1.04,2-1.36.78-.32,1.64-.49,2.58-.49s1.73.15,2.45.45c.71.3,1.33.7,1.86,1.2l-.63.89c-.04.07-.09.12-.16.16s-.15.06-.25.06c-.11,0-.25-.06-.4-.17-.15-.11-.35-.24-.6-.38-.25-.14-.56-.27-.92-.38-.37-.11-.82-.17-1.37-.17-.64,0-1.23.11-1.76.34-.53.22-.99.55-1.38.97-.39.42-.69.94-.9,1.56-.21.62-.32,1.31-.32,2.08s.11,1.49.33,2.1c.22.61.53,1.13.92,1.56.39.43.85.75,1.38.97s1.1.33,1.71.33c.37,0,.71-.02,1-.07.3-.04.57-.11.82-.2.25-.09.48-.21.71-.35.22-.14.44-.31.66-.51.05-.04.1-.08.15-.1.05-.03.11-.04.17-.04Z"/>
    <path class="cls-1" d="M81.37,198.27c-.05.08-.1.13-.15.17-.05.03-.12.05-.21.05-.1,0-.2-.03-.32-.1-.12-.07-.26-.14-.42-.22s-.36-.15-.58-.22c-.22-.07-.49-.1-.79-.1-.25,0-.48.03-.69.09-.21.06-.38.15-.53.26-.14.11-.26.24-.33.4-.08.15-.12.32-.12.49,0,.23.07.42.2.57.13.15.31.28.53.39.22.11.47.21.75.29.28.09.56.18.85.27s.58.21.85.33c.28.12.53.28.75.46.22.18.4.4.53.66.13.26.2.57.2.95,0,.43-.08.82-.23,1.18-.15.36-.38.68-.67.94-.3.26-.66.47-1.1.62-.44.15-.94.22-1.5.22-.63,0-1.21-.1-1.75-.31s-.98-.48-1.34-.8l.41-.68c.05-.08.11-.15.18-.19.07-.04.17-.07.29-.07.11,0,.23.04.35.13s.26.18.43.27c.17.1.37.19.61.27.24.08.54.12.9.12.3,0,.56-.04.78-.11.22-.08.41-.18.55-.31s.26-.28.33-.45c.07-.17.11-.34.11-.53,0-.24-.07-.44-.2-.6-.14-.16-.31-.3-.53-.41-.22-.11-.47-.21-.75-.3-.28-.08-.57-.17-.86-.27-.29-.1-.58-.21-.86-.33s-.53-.29-.75-.48c-.22-.19-.4-.43-.53-.7-.14-.28-.2-.61-.2-1.01,0-.35.07-.69.22-1.02s.36-.61.64-.85c.28-.25.62-.44,1.04-.59.41-.15.88-.22,1.41-.22.61,0,1.15.1,1.64.29.49.19.91.46,1.26.79l-.39.64Z"/>
    <path class="cls-1" d="M86.67,205.99c-.74,0-1.31-.21-1.71-.62-.4-.41-.6-1-.6-1.77v-5.47h-1.06c-.1,0-.19-.03-.26-.09-.07-.06-.1-.16-.1-.28v-.71l1.48-.21.4-2.73c.02-.1.07-.18.14-.24.07-.06.16-.09.27-.09h.89v3.07h2.59v1.28h-2.59v5.35c0,.36.09.63.27.81.18.18.4.27.68.27.16,0,.3-.02.42-.06.12-.04.22-.09.3-.14.08-.05.16-.1.22-.14.06-.04.11-.06.16-.06.06,0,.11.01.14.04.03.03.07.07.1.13l.52.85c-.29.26-.63.47-1.03.61-.4.14-.81.22-1.23.22Z"/>
    <path class="cls-1" d="M90.09,197.98c.51-.49,1.06-.85,1.66-1.09.6-.24,1.25-.36,1.97-.36.52,0,.98.09,1.39.26.4.17.74.41,1.02.72.28.31.48.67.63,1.1.14.43.21.9.21,1.41v5.83h-.78c-.17,0-.31-.03-.4-.09-.09-.06-.16-.16-.22-.32l-.19-.8c-.23.22-.47.41-.69.57s-.47.31-.72.42c-.25.12-.51.21-.8.27-.28.06-.59.09-.94.09-.36,0-.7-.05-1.01-.15-.31-.1-.59-.25-.82-.45-.23-.2-.42-.46-.55-.76-.13-.31-.2-.66-.2-1.07,0-.36.1-.71.29-1.04.2-.33.51-.63.95-.9.44-.26,1.02-.48,1.73-.65s1.59-.26,2.62-.29v-.67c0-.69-.15-1.21-.44-1.55s-.73-.51-1.3-.51c-.38,0-.71.05-.97.14-.26.1-.49.2-.67.32s-.35.22-.5.32c-.14.1-.29.14-.44.14-.12,0-.22-.03-.31-.1-.09-.07-.16-.14-.21-.23l-.31-.57ZM95.23,201.78c-.71.02-1.32.08-1.82.17s-.9.2-1.22.35c-.31.14-.54.31-.67.51-.14.19-.21.41-.21.65,0,.23.04.42.11.59.07.17.18.3.31.41.13.11.28.18.45.23.17.05.36.07.57.07.27,0,.52-.03.74-.08s.44-.13.63-.23c.2-.1.39-.22.57-.36.18-.14.36-.31.53-.5v-1.8Z"/>
    <path class="cls-1" d="M102.06,205.99c-.74,0-1.31-.21-1.71-.62-.4-.41-.6-1-.6-1.77v-5.47h-1.06c-.1,0-.19-.03-.26-.09-.07-.06-.1-.16-.1-.28v-.71l1.48-.21.4-2.73c.02-.1.07-.18.14-.24.07-.06.16-.09.27-.09h.89v3.07h2.59v1.28h-2.59v5.35c0,.36.09.63.27.81.18.18.4.27.68.27.16,0,.3-.02.42-.06.12-.04.22-.09.3-.14.08-.05.16-.1.22-.14.06-.04.11-.06.16-.06.06,0,.11.01.14.04.03.03.07.07.1.13l.52.85c-.29.26-.63.47-1.03.61-.4.14-.81.22-1.23.22Z"/>
    <path class="cls-1" d="M113.16,204.54c-.22.25-.46.47-.75.65-.28.18-.58.33-.9.45-.32.11-.65.2-.99.25s-.67.08-1,.08c-.63,0-1.21-.11-1.75-.32s-1-.53-1.4-.94c-.39-.41-.7-.92-.92-1.53-.22-.61-.33-1.31-.33-2.1,0-.64.1-1.23.3-1.78.2-.55.48-1.03.85-1.44s.82-.73,1.35-.96c.53-.23,1.13-.35,1.8-.35.56,0,1.07.09,1.54.27.47.18.88.45,1.22.8.34.35.61.78.81,1.29.19.51.29,1.09.29,1.75,0,.27-.03.45-.09.54-.06.09-.17.14-.33.14h-5.99c.02.55.1,1.02.23,1.43.14.4.33.74.57,1.01.24.27.53.47.87.6s.71.2,1.12.2c.39,0,.73-.04,1.01-.13.28-.09.53-.19.74-.29.21-.1.38-.2.52-.29.14-.09.27-.13.37-.13.14,0,.25.05.33.16l.5.65ZM111.71,200.25c0-.35-.05-.67-.15-.96s-.24-.55-.44-.77c-.19-.22-.43-.38-.7-.5s-.59-.18-.95-.18c-.74,0-1.32.21-1.74.64-.42.43-.69,1.02-.81,1.77h4.79Z"/>
    <path class="cls-1" d="M119.73,205.84v-9.14h1.05c.25,0,.4.12.46.35l.13.87c.34-.4.71-.73,1.12-.99.41-.25.89-.38,1.44-.38.61,0,1.1.17,1.48.5s.65.78.83,1.35c.13-.32.3-.6.51-.84.21-.23.44-.43.7-.58.26-.15.53-.26.82-.33.29-.07.59-.11.89-.11.49,0,.92.08,1.3.23.38.15.7.38.97.67.26.29.46.66.6,1.09.14.43.21.92.21,1.48v5.82h-1.76v-5.82c0-.68-.15-1.2-.45-1.55-.3-.35-.73-.52-1.3-.52-.25,0-.49.04-.72.13-.23.09-.43.22-.6.39s-.31.39-.41.65c-.1.26-.15.56-.15.9v5.82h-1.76v-5.82c0-.71-.14-1.23-.42-1.57-.28-.34-.7-.5-1.24-.5-.38,0-.73.1-1.05.3-.32.2-.62.47-.89.81v6.79h-1.75Z"/>
    <path class="cls-1" d="M134.37,197.98c.51-.49,1.06-.85,1.66-1.09.6-.24,1.25-.36,1.97-.36.52,0,.98.09,1.39.26.4.17.74.41,1.02.72.28.31.48.67.63,1.1.14.43.21.9.21,1.41v5.83h-.78c-.17,0-.31-.03-.4-.09-.09-.06-.16-.16-.22-.32l-.19-.8c-.23.22-.47.41-.69.57s-.47.31-.72.42c-.25.12-.51.21-.8.27-.28.06-.59.09-.94.09-.36,0-.7-.05-1.01-.15-.31-.1-.59-.25-.82-.45-.23-.2-.42-.46-.55-.76-.13-.31-.2-.66-.2-1.07,0-.36.1-.71.29-1.04.2-.33.51-.63.95-.9.44-.26,1.02-.48,1.73-.65s1.59-.26,2.62-.29v-.67c0-.69-.15-1.21-.44-1.55s-.73-.51-1.3-.51c-.38,0-.71.05-.97.14-.26.1-.49.2-.67.32s-.35.22-.5.32c-.14.1-.29.14-.44.14-.12,0-.22-.03-.31-.1-.09-.07-.16-.14-.21-.23l-.31-.57ZM139.52,201.78c-.71.02-1.32.08-1.82.17s-.9.2-1.22.35c-.31.14-.54.31-.67.51-.14.19-.21.41-.21.65,0,.23.04.42.11.59.07.17.18.3.31.41.13.11.28.18.45.23.17.05.36.07.57.07.27,0,.52-.03.74-.08s.44-.13.63-.23c.2-.1.39-.22.57-.36.18-.14.36-.31.53-.5v-1.8Z"/>
    <path class="cls-1" d="M150.01,198.41c-.05.07-.11.12-.16.16s-.12.06-.22.06-.2-.04-.3-.11c-.1-.08-.24-.16-.4-.24s-.35-.17-.58-.24c-.22-.08-.5-.11-.83-.11-.43,0-.81.08-1.14.23-.33.16-.6.38-.82.67s-.39.64-.5,1.05-.17.88-.17,1.39.06,1.01.18,1.43c.12.42.29.77.51,1.05s.49.5.81.65c.32.15.67.22,1.06.22s.69-.05.94-.14c.25-.09.45-.19.61-.3.16-.11.3-.21.41-.3s.22-.14.33-.14c.14,0,.25.05.33.16l.5.65c-.21.26-.45.48-.71.66-.26.18-.54.33-.83.44s-.6.2-.92.25c-.32.05-.65.08-.98.08-.57,0-1.1-.11-1.6-.32-.49-.21-.92-.52-1.29-.92-.36-.4-.65-.9-.86-1.48s-.31-1.25-.31-1.99c0-.68.09-1.3.28-1.88s.47-1.07.84-1.49.82-.74,1.36-.98,1.16-.36,1.85-.36c.65,0,1.23.11,1.73.32s.94.51,1.33.89l-.47.65Z"/>
    <path class="cls-1" d="M153.97,197.86c.38-.39.81-.7,1.27-.94.46-.24,1-.36,1.61-.36.5,0,.95.08,1.33.25.38.17.7.4.96.71.26.3.45.67.58,1.09.13.43.2.9.2,1.41v5.82h-1.76v-5.82c0-.65-.15-1.16-.45-1.53-.3-.36-.76-.54-1.38-.54-.45,0-.87.11-1.26.32s-.76.5-1.09.87v6.71h-1.75v-13.28h1.75v5.3Z"/>
    <path class="cls-1" d="M164.45,193.87c0,.16-.03.32-.1.46-.07.15-.15.28-.27.39-.11.11-.24.2-.39.26-.15.06-.31.09-.47.09s-.32-.03-.46-.09c-.14-.06-.27-.15-.38-.26-.11-.11-.2-.24-.26-.39-.06-.15-.09-.3-.09-.46s.03-.33.09-.47.15-.28.26-.39c.11-.11.24-.2.38-.26.14-.06.3-.09.46-.09s.32.03.47.09c.15.06.28.15.39.26.11.11.2.24.27.39.07.15.1.3.1.47ZM164.12,196.7v9.14h-1.75v-9.14h1.75Z"/>
    <path class="cls-1" d="M168.31,197.97c.2-.21.41-.4.62-.58s.45-.32.69-.45.5-.22.78-.29c.28-.07.58-.1.9-.1.5,0,.95.08,1.33.25.38.17.7.4.96.71.26.3.45.67.58,1.09.13.43.2.9.2,1.41v5.82h-1.76v-5.82c0-.65-.15-1.16-.45-1.53-.3-.36-.76-.54-1.38-.54-.45,0-.87.11-1.26.32s-.76.5-1.09.87v6.71h-1.75v-9.14h1.05c.25,0,.4.12.46.35l.13.92Z"/>
    <path class="cls-1" d="M184.24,204.54c-.22.25-.46.47-.75.65-.28.18-.58.33-.9.45-.32.11-.65.2-.99.25s-.67.08-1,.08c-.63,0-1.21-.11-1.75-.32s-1-.53-1.4-.94c-.39-.41-.7-.92-.92-1.53-.22-.61-.33-1.31-.33-2.1,0-.64.1-1.23.3-1.78.2-.55.48-1.03.85-1.44s.82-.73,1.35-.96c.53-.23,1.13-.35,1.8-.35.56,0,1.07.09,1.54.27.47.18.88.45,1.22.8.34.35.61.78.81,1.29.19.51.29,1.09.29,1.75,0,.27-.03.45-.09.54-.06.09-.17.14-.33.14h-5.99c.02.55.1,1.02.23,1.43.14.4.33.74.57,1.01.24.27.53.47.87.6s.71.2,1.12.2c.39,0,.73-.04,1.01-.13.28-.09.53-.19.74-.29.21-.1.38-.2.52-.29.14-.09.27-.13.37-.13.14,0,.25.05.33.16l.5.65ZM182.79,200.25c0-.35-.05-.67-.15-.96s-.24-.55-.44-.77c-.19-.22-.43-.38-.7-.5s-.59-.18-.95-.18c-.74,0-1.32.21-1.74.64-.42.43-.69,1.02-.81,1.77h4.79Z"/>
    <path class="cls-1" d="M50.42,227.44v-7.7l-.95-.12c-.14-.03-.25-.08-.34-.15-.09-.07-.13-.17-.13-.3v-.73h1.42v-.83c0-.52.08-.99.23-1.39s.36-.75.64-1.04c.28-.29.61-.5,1.01-.65.39-.15.84-.22,1.33-.22.41,0,.79.06,1.14.18l-.04.88c0,.08-.03.14-.07.18-.04.04-.1.07-.17.09-.07.02-.15.03-.25.03-.1,0-.21,0-.32,0-.27,0-.52.03-.74.1-.22.07-.41.18-.57.33-.16.16-.28.36-.36.62s-.13.57-.13.95v.77h2.56v1.28h-2.51v7.72h-1.76Z"/>
    <path class="cls-1" d="M59.78,218.15c.67,0,1.28.11,1.82.33.54.22,1,.53,1.39.95s.67.91.88,1.49.31,1.23.31,1.95-.1,1.37-.31,1.95-.5,1.08-.88,1.49c-.38.41-.84.72-1.39.94-.54.22-1.15.33-1.82.33s-1.29-.11-1.83-.33c-.54-.22-1.01-.53-1.39-.94-.38-.41-.68-.9-.89-1.49s-.31-1.23-.31-1.95.1-1.37.31-1.95.5-1.07.89-1.49c.38-.41.85-.73,1.39-.95.54-.22,1.15-.33,1.83-.33ZM59.78,226.2c.86,0,1.51-.29,1.94-.87.43-.58.64-1.4.64-2.46s-.21-1.88-.64-2.46c-.43-.58-1.07-.88-1.94-.88s-1.53.29-1.96.88c-.43.58-.64,1.41-.64,2.46s.21,1.88.64,2.46c.43.58,1.08.87,1.96.87Z"/>
    <path class="cls-1" d="M67.78,220.05c.29-.6.65-1.07,1.06-1.41s.91-.51,1.49-.51c.2,0,.39.02.56.07.18.04.33.11.46.2l-.12,1.32c-.04.16-.14.24-.3.24-.08,0-.21-.02-.38-.05-.17-.03-.35-.05-.54-.05-.28,0-.53.04-.75.12-.22.08-.41.2-.58.36s-.32.35-.45.58c-.13.23-.25.49-.37.79v5.72h-1.75v-9.14h1.01c.19,0,.32.03.39.1.07.07.12.19.15.36l.11,1.29Z"/>
    <path class="cls-1" d="M79.75,227.59c-.74,0-1.31-.21-1.71-.62-.4-.41-.6-1-.6-1.77v-5.47h-1.06c-.1,0-.19-.03-.26-.09-.07-.06-.1-.16-.1-.28v-.71l1.48-.21.4-2.73c.02-.1.07-.18.14-.24.07-.06.16-.09.27-.09h.89v3.07h2.59v1.28h-2.59v5.35c0,.36.09.63.27.81.18.18.4.27.68.27.16,0,.3-.02.42-.06.12-.04.22-.09.3-.14.08-.05.16-.1.22-.14.06-.04.11-.06.16-.06.06,0,.11.01.14.04.03.03.07.07.1.13l.52.85c-.29.26-.63.47-1.03.61-.4.14-.81.22-1.23.22Z"/>
    <path class="cls-1" d="M85.16,219.46c.38-.39.81-.7,1.27-.94.46-.24,1-.36,1.61-.36.5,0,.95.08,1.33.25.38.17.7.4.96.71.26.3.45.67.58,1.09.13.43.2.9.2,1.41v5.82h-1.76v-5.82c0-.65-.15-1.16-.45-1.53-.3-.36-.76-.54-1.38-.54-.45,0-.87.11-1.26.32s-.76.5-1.09.87v6.71h-1.75v-13.28h1.75v5.3Z"/>
    <path class="cls-1" d="M100.98,226.14c-.22.25-.46.47-.75.65-.28.18-.58.33-.9.45-.32.11-.65.2-.99.25s-.67.08-1,.08c-.63,0-1.21-.11-1.75-.32s-1-.53-1.4-.94c-.39-.41-.7-.92-.92-1.53-.22-.61-.33-1.31-.33-2.1,0-.64.1-1.23.3-1.78.2-.55.48-1.03.85-1.44s.82-.73,1.35-.96c.53-.23,1.13-.35,1.8-.35.56,0,1.07.09,1.54.27.47.18.88.45,1.22.8.34.35.61.78.81,1.29.19.51.29,1.09.29,1.75,0,.27-.03.45-.09.54-.06.09-.17.14-.33.14h-5.99c.02.55.1,1.02.23,1.43.14.4.33.74.57,1.01.24.27.53.47.87.6s.71.2,1.12.2c.39,0,.73-.04,1.01-.13.28-.09.53-.19.74-.29.21-.1.38-.2.52-.29.14-.09.27-.13.37-.13.14,0,.25.05.33.16l.5.65ZM99.53,221.85c0-.35-.05-.67-.15-.96s-.24-.55-.44-.77c-.19-.22-.43-.38-.7-.5s-.59-.18-.95-.18c-.74,0-1.32.21-1.74.64-.42.43-.69,1.02-.81,1.77h4.79Z"/>
    <path class="cls-1" d="M109.72,215.47c0,.16-.03.32-.1.46-.07.15-.15.28-.27.39-.11.11-.24.2-.39.26-.15.06-.31.09-.47.09s-.32-.03-.46-.09c-.14-.06-.27-.15-.38-.26-.11-.11-.2-.24-.26-.39-.06-.15-.09-.3-.09-.46s.03-.33.09-.47.15-.28.26-.39c.11-.11.24-.2.38-.26.14-.06.3-.09.46-.09s.32.03.47.09c.15.06.28.15.39.26.11.11.2.24.27.39.07.15.1.3.1.47ZM109.39,218.3v9.14h-1.75v-9.14h1.75Z"/>
    <path class="cls-1" d="M113.58,219.57c.2-.21.41-.4.62-.58s.45-.32.69-.45.5-.22.78-.29c.28-.07.58-.1.9-.1.5,0,.95.08,1.33.25.38.17.7.4.96.71.26.3.45.67.58,1.09.13.43.2.9.2,1.41v5.82h-1.76v-5.82c0-.65-.15-1.16-.45-1.53-.3-.36-.76-.54-1.38-.54-.45,0-.87.11-1.26.32s-.76.5-1.09.87v6.71h-1.75v-9.14h1.05c.25,0,.4.12.46.35l.13.92Z"/>
    <path class="cls-1" d="M124.74,227.59c-.74,0-1.31-.21-1.71-.62-.4-.41-.6-1-.6-1.77v-5.47h-1.06c-.1,0-.19-.03-.26-.09-.07-.06-.1-.16-.1-.28v-.71l1.48-.21.4-2.73c.02-.1.07-.18.14-.24.07-.06.16-.09.27-.09h.89v3.07h2.59v1.28h-2.59v5.35c0,.36.09.63.27.81.18.18.4.27.68.27.16,0,.3-.02.42-.06.12-.04.22-.09.3-.14.08-.05.16-.1.22-.14.06-.04.11-.06.16-.06.06,0,.11.01.14.04.03.03.07.07.1.13l.52.85c-.29.26-.63.47-1.03.61-.4.14-.81.22-1.23.22Z"/>
    <path class="cls-1" d="M135.85,226.14c-.22.25-.46.47-.75.65-.28.18-.58.33-.9.45-.32.11-.65.2-.99.25s-.67.08-1,.08c-.63,0-1.21-.11-1.75-.32s-1-.53-1.4-.94c-.39-.41-.7-.92-.92-1.53-.22-.61-.33-1.31-.33-2.1,0-.64.1-1.23.3-1.78.2-.55.48-1.03.85-1.44s.82-.73,1.35-.96c.53-.23,1.13-.35,1.8-.35.56,0,1.07.09,1.54.27.47.18.88.45,1.22.8.34.35.61.78.81,1.29.19.51.29,1.09.29,1.75,0,.27-.03.45-.09.54-.06.09-.17.14-.33.14h-5.99c.02.55.1,1.02.23,1.43.14.4.33.74.57,1.01.24.27.53.47.87.6s.71.2,1.12.2c.39,0,.73-.04,1.01-.13.28-.09.53-.19.74-.29.21-.1.38-.2.52-.29.14-.09.27-.13.37-.13.14,0,.25.05.33.16l.5.65ZM134.4,221.85c0-.35-.05-.67-.15-.96s-.24-.55-.44-.77c-.19-.22-.43-.38-.7-.5s-.59-.18-.95-.18c-.74,0-1.32.21-1.74.64-.42.43-.69,1.02-.81,1.77h4.79Z"/>
    <path class="cls-1" d="M139.53,220.05c.29-.6.65-1.07,1.06-1.41s.91-.51,1.49-.51c.2,0,.39.02.56.07.18.04.33.11.46.2l-.12,1.32c-.04.16-.14.24-.3.24-.08,0-.21-.02-.38-.05-.17-.03-.35-.05-.54-.05-.28,0-.53.04-.75.12-.22.08-.41.2-.58.36s-.32.35-.45.58c-.13.23-.25.49-.37.79v5.72h-1.75v-9.14h1.01c.19,0,.32.03.39.1.07.07.12.19.15.36l.11,1.29Z"/>
    <path class="cls-1" d="M146.12,220.05c.29-.6.65-1.07,1.06-1.41s.91-.51,1.49-.51c.2,0,.39.02.56.07.18.04.33.11.46.2l-.12,1.32c-.04.16-.14.24-.3.24-.08,0-.21-.02-.38-.05-.17-.03-.35-.05-.54-.05-.28,0-.53.04-.75.12-.22.08-.41.2-.58.36s-.32.35-.45.58c-.13.23-.25.49-.37.79v5.72h-1.75v-9.14h1.01c.19,0,.32.03.39.1.07.07.12.19.15.36l.11,1.29Z"/>
    <path class="cls-1" d="M158.67,218.3v9.14h-1.05c-.24,0-.4-.12-.47-.35l-.13-.92c-.2.21-.4.4-.62.58-.22.17-.45.32-.69.45s-.51.22-.78.29c-.28.07-.57.1-.89.1-.5,0-.95-.08-1.33-.25s-.7-.4-.96-.71-.45-.67-.58-1.09c-.13-.43-.2-.9-.2-1.41v-5.82h1.76v5.82c0,.65.15,1.16.45,1.53.3.36.76.54,1.38.54.45,0,.87-.11,1.26-.32s.76-.51,1.1-.88v-6.7h1.75Z"/>
    <path class="cls-1" d="M162.79,219.67c.19-.23.4-.44.62-.62.22-.19.45-.35.71-.49s.52-.24.81-.31.59-.11.91-.11c.52,0,.99.1,1.42.31s.78.5,1.08.9c.3.4.53.89.7,1.47s.25,1.25.25,2.01c0,.68-.09,1.31-.27,1.89s-.44,1.08-.78,1.51c-.34.43-.75.76-1.24,1-.49.24-1.04.36-1.65.36-.55,0-1.01-.09-1.4-.27-.39-.18-.74-.43-1.04-.76v3.97h-1.75v-12.21h1.05c.25,0,.4.12.46.35l.15,1.02ZM162.88,225.19c.29.38.6.64.93.79.33.15.71.22,1.12.22.8,0,1.43-.29,1.87-.87.44-.58.66-1.42.66-2.53,0-.58-.05-1.08-.15-1.49-.1-.41-.24-.75-.43-1.01-.19-.26-.42-.45-.7-.58-.28-.12-.59-.18-.94-.18-.51,0-.95.11-1.33.34-.38.23-.72.55-1.04.97v4.33Z"/>
    <path class="cls-1" d="M174,227.59c-.74,0-1.31-.21-1.71-.62-.4-.41-.6-1-.6-1.77v-5.47h-1.06c-.1,0-.19-.03-.26-.09-.07-.06-.1-.16-.1-.28v-.71l1.48-.21.4-2.73c.02-.1.07-.18.14-.24.07-.06.16-.09.27-.09h.89v3.07h2.59v1.28h-2.59v5.35c0,.36.09.63.27.81.18.18.4.27.68.27.16,0,.3-.02.42-.06.12-.04.22-.09.3-.14.08-.05.16-.1.22-.14.06-.04.11-.06.16-.06.06,0,.11.01.14.04.03.03.07.07.1.13l.52.85c-.29.26-.63.47-1.03.61-.4.14-.81.22-1.23.22Z"/>
  </g>
  <g>
    <path class="cls-1" d="M566.56,256.87c.56-.49,1.22-.74,2-.74.28,0,.52.04.74.13s.41.22.56.38.27.36.35.58c.08.23.12.47.12.74v2.94h-.57c-.12,0-.21-.02-.27-.05-.06-.04-.11-.11-.15-.22l-.1-.29c-.12.1-.24.19-.35.27-.11.08-.23.14-.34.2-.12.05-.24.09-.38.12-.13.03-.29.04-.45.04-.41,0-.75-.11-1-.32-.25-.22-.38-.54-.38-.96,0-.17.04-.34.13-.51.09-.17.24-.33.45-.47s.5-.26.85-.36.8-.15,1.34-.16v-.22c0-.29-.06-.5-.19-.63s-.3-.2-.53-.2c-.17,0-.32.02-.44.06-.12.04-.22.08-.31.13s-.17.09-.24.13c-.07.04-.16.06-.26.06-.08,0-.16-.02-.22-.07-.06-.04-.11-.1-.15-.17l-.22-.41ZM569.12,258.96c-.31.01-.56.04-.76.08-.2.04-.37.09-.49.14-.12.06-.21.12-.26.2-.05.08-.08.16-.08.25,0,.17.05.3.16.37s.24.11.42.11c.21,0,.39-.04.54-.11.15-.07.31-.19.46-.34v-.7Z"/>
    <path class="cls-1" d="M583.24,269.14h-1.48c-.17,0-.31-.04-.41-.13s-.19-.19-.23-.32l-1.14-3h-5.7l-1.14,3c-.04.11-.12.22-.23.31-.11.09-.25.14-.41.14h-1.48l5.15-12.92h1.94l5.15,12.92ZM579.45,264.33l-1.92-5.01c-.14-.34-.28-.77-.41-1.3-.07.26-.13.5-.2.72-.07.22-.14.42-.2.59l-1.91,4.99h4.64Z"/>
    <path class="cls-1" d="M590.65,261.71c-.05.07-.11.12-.16.16s-.12.06-.22.06-.2-.04-.3-.11c-.1-.08-.24-.16-.4-.24s-.35-.17-.58-.24c-.22-.08-.5-.11-.83-.11-.43,0-.81.08-1.14.23-.33.16-.6.38-.82.67s-.39.64-.5,1.05-.17.88-.17,1.39.06,1.01.18,1.43c.12.42.29.77.51,1.05s.49.5.81.65c.32.15.67.22,1.06.22s.69-.05.94-.14c.25-.09.45-.19.61-.3.16-.11.3-.21.41-.3s.22-.14.33-.14c.14,0,.25.05.33.16l.5.65c-.21.26-.45.48-.71.66-.26.18-.54.33-.83.44s-.6.2-.92.25c-.32.05-.65.08-.98.08-.57,0-1.1-.11-1.6-.32-.49-.21-.92-.52-1.29-.92-.36-.4-.65-.9-.86-1.48s-.31-1.25-.31-1.99c0-.68.09-1.3.28-1.88s.47-1.07.84-1.49.82-.74,1.36-.98,1.16-.36,1.85-.36c.65,0,1.23.11,1.73.32s.94.51,1.33.89l-.47.65Z"/>
    <path class="cls-1" d="M595.72,269.29c-.74,0-1.31-.21-1.71-.62-.4-.41-.6-1-.6-1.77v-5.47h-1.06c-.1,0-.19-.03-.26-.09-.07-.06-.1-.16-.1-.28v-.71l1.48-.21.4-2.73c.02-.1.07-.18.14-.24.07-.06.16-.09.27-.09h.89v3.07h2.59v1.28h-2.59v5.35c0,.36.09.63.27.81.18.18.4.27.68.27.16,0,.3-.02.42-.06.12-.04.22-.09.3-.14.08-.05.16-.1.22-.14.06-.04.11-.06.16-.06.06,0,.11.01.14.04.03.03.07.07.1.13l.52.85c-.29.26-.63.47-1.03.61-.4.14-.81.22-1.23.22Z"/>
    <path class="cls-1" d="M601.54,257.17c0,.16-.03.32-.1.46-.07.15-.15.28-.27.39-.11.11-.24.2-.39.26-.15.06-.31.09-.47.09s-.32-.03-.46-.09c-.14-.06-.27-.15-.38-.26-.11-.11-.2-.24-.26-.39-.06-.15-.09-.3-.09-.46s.03-.33.09-.47.15-.28.26-.39c.11-.11.24-.2.38-.26.14-.06.3-.09.46-.09s.32.03.47.09c.15.06.28.15.39.26.11.11.2.24.27.39.07.15.1.3.1.47ZM601.21,260v9.14h-1.75v-9.14h1.75Z"/>
    <path class="cls-1" d="M611.69,260l-3.71,9.14h-1.58l-3.71-9.14h1.45c.14,0,.25.03.34.1s.15.15.18.25l2.19,5.62c.08.23.15.47.2.7.06.23.11.46.16.69.05-.23.1-.46.16-.68.06-.23.13-.46.22-.7l2.21-5.62c.04-.1.1-.19.19-.25.09-.07.2-.1.32-.1h1.38Z"/>
    <path class="cls-1" d="M620.34,267.84c-.22.25-.46.47-.75.65-.28.18-.58.33-.9.45-.32.11-.65.2-.99.25s-.67.08-1,.08c-.63,0-1.21-.11-1.75-.32s-1-.53-1.4-.94c-.39-.41-.7-.92-.92-1.53-.22-.61-.33-1.31-.33-2.1,0-.64.1-1.23.3-1.78.2-.55.48-1.03.85-1.44s.82-.73,1.35-.96c.53-.23,1.13-.35,1.8-.35.56,0,1.07.09,1.54.27.47.18.88.45,1.22.8.34.35.61.78.81,1.29.19.51.29,1.09.29,1.75,0,.27-.03.45-.09.54-.06.09-.17.14-.33.14h-5.99c.02.55.1,1.02.23,1.43.14.4.33.74.57,1.01.24.27.53.47.87.6s.71.2,1.12.2c.39,0,.73-.04,1.01-.13.28-.09.53-.19.74-.29.21-.1.38-.2.52-.29.14-.09.27-.13.37-.13.14,0,.25.05.33.16l.5.65ZM618.89,263.55c0-.35-.05-.67-.15-.96s-.24-.55-.44-.77c-.19-.22-.43-.38-.7-.5s-.59-.18-.95-.18c-.74,0-1.32.21-1.74.64-.42.43-.69,1.02-.81,1.77h4.79Z"/>
    <path class="cls-1" d="M626.68,261.28c.51-.49,1.06-.85,1.66-1.09.6-.24,1.25-.36,1.97-.36.52,0,.98.09,1.39.26.4.17.74.41,1.02.72.28.31.48.67.63,1.1.14.43.21.9.21,1.41v5.83h-.78c-.17,0-.31-.03-.4-.09-.09-.06-.16-.16-.22-.32l-.19-.8c-.23.22-.47.41-.69.57s-.47.31-.72.42c-.25.12-.51.21-.8.27-.28.06-.59.09-.94.09-.36,0-.7-.05-1.01-.15-.31-.1-.59-.25-.82-.45-.23-.2-.42-.46-.55-.76-.13-.31-.2-.66-.2-1.07,0-.36.1-.71.29-1.04.2-.33.51-.63.95-.9.44-.26,1.02-.48,1.73-.65s1.59-.26,2.62-.29v-.67c0-.69-.15-1.21-.44-1.55s-.73-.51-1.3-.51c-.38,0-.71.05-.97.14-.26.1-.49.2-.67.32s-.35.22-.5.32c-.14.1-.29.14-.44.14-.12,0-.22-.03-.31-.1-.09-.07-.16-.14-.21-.23l-.31-.57ZM631.83,265.08c-.71.02-1.32.08-1.82.17s-.9.2-1.22.35c-.31.14-.54.31-.67.51-.14.19-.21.41-.21.65,0,.23.04.42.11.59.07.17.18.3.31.41.13.11.28.18.45.23.17.05.36.07.57.07.27,0,.52-.03.74-.08s.44-.13.63-.23c.2-.1.39-.22.57-.36.18-.14.36-.31.53-.5v-1.8Z"/>
    <path class="cls-1" d="M637.55,261.27c.2-.21.41-.4.62-.58s.45-.32.69-.45.5-.22.78-.29c.28-.07.58-.1.9-.1.5,0,.95.08,1.33.25.38.17.7.4.96.71.26.3.45.67.58,1.09.13.43.2.9.2,1.41v5.82h-1.76v-5.82c0-.65-.15-1.16-.45-1.53-.3-.36-.76-.54-1.38-.54-.45,0-.87.11-1.26.32s-.76.5-1.09.87v6.71h-1.75v-9.14h1.05c.25,0,.4.12.46.35l.13.92Z"/>
    <path class="cls-1" d="M653.63,255.86v13.28h-1.06c-.25,0-.4-.12-.46-.35l-.15-1.05c-.39.46-.83.83-1.33,1.11-.5.28-1.07.42-1.71.42-.52,0-.99-.1-1.42-.31-.42-.2-.78-.5-1.08-.9-.3-.39-.53-.88-.69-1.46s-.24-1.25-.24-2.01c0-.68.09-1.31.27-1.89.18-.58.44-1.09.78-1.51.34-.43.76-.76,1.24-1,.49-.24,1.03-.37,1.65-.37.55,0,1.02.09,1.41.27.39.18.73.43,1.04.76v-5h1.76ZM651.87,262.21c-.29-.38-.6-.64-.93-.79-.33-.15-.71-.23-1.12-.23-.8,0-1.43.29-1.87.87s-.66,1.42-.66,2.53c0,.58.05,1.08.15,1.49.1.41.24.75.43,1.01.19.26.42.45.7.58.28.12.59.18.94.18.51,0,.95-.11,1.32-.34.37-.23.72-.55,1.04-.96v-4.34Z"/>
    <path class="cls-1" d="M664.91,256.22c.83,0,1.55.1,2.16.29.61.19,1.12.46,1.52.81.4.35.7.78.9,1.27s.29,1.05.29,1.66-.1,1.16-.31,1.67-.52.94-.93,1.31c-.41.37-.92.65-1.53.85s-1.31.3-2.1.3h-2v4.76h-1.92v-12.92h3.92ZM664.91,262.87c.49,0,.91-.06,1.28-.19s.68-.3.93-.54c.25-.23.44-.51.56-.83.13-.32.19-.68.19-1.07,0-.79-.24-1.4-.73-1.85-.49-.45-1.23-.67-2.23-.67h-2v5.15h2Z"/>
    <path class="cls-1" d="M678.57,267.84c-.22.25-.46.47-.75.65-.28.18-.58.33-.9.45-.32.11-.65.2-.99.25s-.67.08-1,.08c-.63,0-1.21-.11-1.75-.32s-1-.53-1.4-.94c-.39-.41-.7-.92-.92-1.53-.22-.61-.33-1.31-.33-2.1,0-.64.1-1.23.3-1.78.2-.55.48-1.03.85-1.44s.82-.73,1.35-.96c.53-.23,1.13-.35,1.8-.35.56,0,1.07.09,1.54.27.47.18.88.45,1.22.8.34.35.61.78.81,1.29.19.51.29,1.09.29,1.75,0,.27-.03.45-.09.54-.06.09-.17.14-.33.14h-5.99c.02.55.1,1.02.23,1.43.14.4.33.74.57,1.01.24.27.53.47.87.6s.71.2,1.12.2c.39,0,.73-.04,1.01-.13.28-.09.53-.19.74-.29.21-.1.38-.2.52-.29.14-.09.27-.13.37-.13.14,0,.25.05.33.16l.5.65ZM677.12,263.55c0-.35-.05-.67-.15-.96s-.24-.55-.44-.77c-.19-.22-.43-.38-.7-.5s-.59-.18-.95-.18c-.74,0-1.32.21-1.74.64-.42.43-.69,1.02-.81,1.77h4.79Z"/>
    <path class="cls-1" d="M682.24,261.27c.2-.21.41-.4.62-.58s.45-.32.69-.45.5-.22.78-.29c.28-.07.58-.1.9-.1.5,0,.95.08,1.33.25.38.17.7.4.96.71.26.3.45.67.58,1.09.13.43.2.9.2,1.41v5.82h-1.76v-5.82c0-.65-.15-1.16-.45-1.53-.3-.36-.76-.54-1.38-.54-.45,0-.87.11-1.26.32s-.76.5-1.09.87v6.71h-1.75v-9.14h1.05c.25,0,.4.12.46.35l.13.92Z"/>
    <path class="cls-1" d="M698.33,255.86v13.28h-1.06c-.25,0-.4-.12-.46-.35l-.15-1.05c-.39.46-.83.83-1.33,1.11-.5.28-1.07.42-1.71.42-.52,0-.99-.1-1.42-.31-.42-.2-.78-.5-1.08-.9-.3-.39-.53-.88-.69-1.46s-.24-1.25-.24-2.01c0-.68.09-1.31.27-1.89.18-.58.44-1.09.78-1.51.34-.43.76-.76,1.24-1,.49-.24,1.03-.37,1.65-.37.55,0,1.02.09,1.41.27.39.18.73.43,1.04.76v-5h1.76ZM696.56,262.21c-.29-.38-.6-.64-.93-.79-.33-.15-.71-.23-1.12-.23-.8,0-1.43.29-1.87.87s-.66,1.42-.66,2.53c0,.58.05,1.08.15,1.49.1.41.24.75.43,1.01.19.26.42.45.7.58.28.12.59.18.94.18.51,0,.95-.11,1.32-.34.37-.23.72-.55,1.04-.96v-4.34Z"/>
    <path class="cls-1" d="M702.95,257.17c0,.16-.03.32-.1.46-.07.15-.15.28-.27.39-.11.11-.24.2-.39.26-.15.06-.31.09-.47.09s-.32-.03-.46-.09c-.14-.06-.27-.15-.38-.26-.11-.11-.2-.24-.26-.39-.06-.15-.09-.3-.09-.46s.03-.33.09-.47.15-.28.26-.39c.11-.11.24-.2.38-.26.14-.06.3-.09.46-.09s.32.03.47.09c.15.06.28.15.39.26.11.11.2.24.27.39.07.15.1.3.1.47ZM702.62,260v9.14h-1.75v-9.14h1.75Z"/>
    <path class="cls-1" d="M706.81,261.27c.2-.21.41-.4.62-.58s.45-.32.69-.45.5-.22.78-.29c.28-.07.58-.1.9-.1.5,0,.95.08,1.33.25.38.17.7.4.96.71.26.3.45.67.58,1.09.13.43.2.9.2,1.41v5.82h-1.76v-5.82c0-.65-.15-1.16-.45-1.53-.3-.36-.76-.54-1.38-.54-.45,0-.87.11-1.26.32s-.76.5-1.09.87v6.71h-1.75v-9.14h1.05c.25,0,.4.12.46.35l.13.92Z"/>
    <path class="cls-1" d="M723.03,260.34v.66c0,.22-.13.35-.4.4l-.98.14c.08.19.15.38.2.59s.07.42.07.65c0,.45-.09.86-.26,1.22-.17.36-.41.67-.72.93-.31.26-.67.46-1.09.59-.42.14-.89.21-1.39.21-.41,0-.8-.04-1.16-.13-.18.11-.32.23-.41.36-.09.13-.14.26-.14.38,0,.21.09.37.27.47.18.1.41.18.69.22.29.04.61.07.98.08.37.01.74.03,1.12.06.38.03.76.08,1.12.14.37.07.7.18.98.33.28.15.52.36.69.63.18.27.27.61.27,1.04,0,.4-.1.78-.29,1.15-.19.37-.48.7-.85.99-.37.29-.83.52-1.36.69-.53.17-1.14.26-1.82.26s-1.27-.07-1.77-.2-.92-.31-1.25-.53-.58-.48-.75-.77c-.17-.29-.25-.6-.25-.92,0-.44.14-.82.41-1.13s.66-.55,1.14-.72c-.26-.12-.47-.28-.63-.49-.16-.21-.23-.48-.23-.82,0-.13.02-.27.07-.41.05-.14.12-.28.22-.42s.22-.27.37-.4c.15-.13.32-.24.51-.34-.45-.25-.8-.59-1.06-1-.26-.42-.39-.9-.39-1.46,0-.45.09-.86.26-1.22.17-.36.42-.67.72-.93.31-.26.68-.46,1.11-.59.43-.14.9-.21,1.41-.21.79,0,1.47.17,2.04.5h2.54ZM721.25,269.62c0-.22-.06-.39-.18-.52-.12-.13-.28-.23-.49-.31s-.45-.13-.72-.16c-.28-.03-.57-.06-.87-.08-.3-.02-.61-.03-.93-.05-.32-.01-.62-.04-.92-.08-.31.16-.57.34-.77.57-.2.22-.3.48-.3.78,0,.19.05.37.15.54s.25.31.46.44.47.22.78.29.69.1,1.13.1.81-.04,1.14-.11c.33-.08.61-.18.83-.32s.4-.29.51-.48c.12-.19.18-.39.18-.61ZM718.45,264.58c.31,0,.59-.04.82-.13.24-.08.44-.2.59-.36.16-.15.28-.34.36-.55.08-.22.12-.45.12-.71,0-.53-.16-.95-.48-1.26-.32-.32-.79-.47-1.42-.47s-1.09.16-1.41.47c-.32.31-.48.74-.48,1.26,0,.26.04.49.12.71.08.21.2.4.36.55.16.15.36.27.59.36.24.09.51.13.81.13Z"/>
  </g>
  <g>
    <path class="cls-1" d="M639.94,216.64h-1.93v-12.92h1.93v12.92Z"/>
    <path class="cls-1" d="M644.28,208.77c.2-.21.41-.4.62-.58s.45-.32.69-.45.5-.22.78-.29c.28-.07.58-.1.9-.1.5,0,.95.08,1.33.25.38.17.7.4.96.71.26.3.45.67.58,1.09.13.43.2.9.2,1.41v5.82h-1.76v-5.82c0-.65-.15-1.16-.45-1.53-.3-.36-.76-.54-1.38-.54-.45,0-.87.11-1.26.32s-.76.5-1.09.87v6.71h-1.75v-9.14h1.05c.25,0,.4.12.46.35l.13.92Z"/>
    <path class="cls-1" d="M652.47,208.78c.51-.49,1.06-.85,1.66-1.09.6-.24,1.25-.36,1.97-.36.52,0,.98.09,1.39.26.4.17.74.41,1.02.72.28.31.48.67.63,1.1.14.43.21.9.21,1.41v5.83h-.78c-.17,0-.31-.03-.4-.09-.09-.06-.16-.16-.22-.32l-.19-.8c-.23.22-.47.41-.69.57s-.47.31-.72.42c-.25.12-.51.21-.8.27-.28.06-.59.09-.94.09-.36,0-.7-.05-1.01-.15-.31-.1-.59-.25-.82-.45-.23-.2-.42-.46-.55-.76-.13-.31-.2-.66-.2-1.07,0-.36.1-.71.29-1.04.2-.33.51-.63.95-.9.44-.26,1.02-.48,1.73-.65s1.59-.26,2.62-.29v-.67c0-.69-.15-1.21-.44-1.55s-.73-.51-1.3-.51c-.38,0-.71.05-.97.14-.26.1-.49.2-.67.32s-.35.22-.5.32c-.14.1-.29.14-.44.14-.12,0-.22-.03-.31-.1-.09-.07-.16-.14-.21-.23l-.31-.57ZM657.61,212.58c-.71.02-1.32.08-1.82.17s-.9.2-1.22.35c-.31.14-.54.31-.67.51-.14.19-.21.41-.21.65,0,.23.04.42.11.59.07.17.18.3.31.41.13.11.28.18.45.23.17.05.36.07.57.07.27,0,.52-.03.74-.08s.44-.13.63-.23c.2-.1.39-.22.57-.36.18-.14.36-.31.53-.5v-1.8Z"/>
    <path class="cls-1" d="M668.1,209.21c-.05.07-.11.12-.16.16s-.12.06-.22.06-.2-.04-.3-.11c-.1-.08-.24-.16-.4-.24s-.35-.17-.58-.24c-.22-.08-.5-.11-.83-.11-.43,0-.81.08-1.14.23-.33.16-.6.38-.82.67s-.39.64-.5,1.05-.17.88-.17,1.39.06,1.01.18,1.43c.12.42.29.77.51,1.05s.49.5.81.65c.32.15.67.22,1.06.22s.69-.05.94-.14c.25-.09.45-.19.61-.3.16-.11.3-.21.41-.3s.22-.14.33-.14c.14,0,.25.05.33.16l.5.65c-.21.26-.45.48-.71.66-.26.18-.54.33-.83.44s-.6.2-.92.25c-.32.05-.65.08-.98.08-.57,0-1.1-.11-1.6-.32-.49-.21-.92-.52-1.29-.92-.36-.4-.65-.9-.86-1.48s-.31-1.25-.31-1.99c0-.68.09-1.3.28-1.88s.47-1.07.84-1.49.82-.74,1.36-.98,1.16-.36,1.85-.36c.65,0,1.23.11,1.73.32s.94.51,1.33.89l-.47.65Z"/>
    <path class="cls-1" d="M673.17,216.79c-.74,0-1.31-.21-1.71-.62-.4-.41-.6-1-.6-1.77v-5.47h-1.06c-.1,0-.19-.03-.26-.09-.07-.06-.1-.16-.1-.28v-.71l1.48-.21.4-2.73c.02-.1.07-.18.14-.24.07-.06.16-.09.27-.09h.89v3.07h2.59v1.28h-2.59v5.35c0,.36.09.63.27.81.18.18.4.27.68.27.16,0,.3-.02.42-.06.12-.04.22-.09.3-.14.08-.05.16-.1.22-.14.06-.04.11-.06.16-.06.06,0,.11.01.14.04.03.03.07.07.1.13l.52.85c-.29.26-.63.47-1.03.61-.4.14-.81.22-1.23.22Z"/>
    <path class="cls-1" d="M678.99,204.67c0,.16-.03.32-.1.46-.07.15-.15.28-.27.39-.11.11-.24.2-.39.26-.15.06-.31.09-.47.09s-.32-.03-.46-.09c-.14-.06-.27-.15-.38-.26-.11-.11-.2-.24-.26-.39-.06-.15-.09-.3-.09-.46s.03-.33.09-.47.15-.28.26-.39c.11-.11.24-.2.38-.26.14-.06.3-.09.46-.09s.32.03.47.09c.15.06.28.15.39.26.11.11.2.24.27.39.07.15.1.3.1.47ZM678.66,207.5v9.14h-1.75v-9.14h1.75Z"/>
    <path class="cls-1" d="M689.14,207.5l-3.71,9.14h-1.58l-3.71-9.14h1.45c.14,0,.25.03.34.1s.15.15.18.25l2.19,5.62c.08.23.15.47.2.7.06.23.11.46.16.69.05-.23.1-.46.16-.68.06-.23.13-.46.22-.7l2.21-5.62c.04-.1.1-.19.19-.25.09-.07.2-.1.32-.1h1.38Z"/>
    <path class="cls-1" d="M697.79,215.34c-.22.25-.46.47-.75.65-.28.18-.58.33-.9.45-.32.11-.65.2-.99.25s-.67.08-1,.08c-.63,0-1.21-.11-1.75-.32s-1-.53-1.4-.94c-.39-.41-.7-.92-.92-1.53-.22-.61-.33-1.31-.33-2.1,0-.64.1-1.23.3-1.78.2-.55.48-1.03.85-1.44s.82-.73,1.35-.96c.53-.23,1.13-.35,1.8-.35.56,0,1.07.09,1.54.27.47.18.88.45,1.22.8.34.35.61.78.81,1.29.19.51.29,1.09.29,1.75,0,.27-.03.45-.09.54-.06.09-.17.14-.33.14h-5.99c.02.55.1,1.02.23,1.43.14.4.33.74.57,1.01.24.27.53.47.87.6s.71.2,1.12.2c.39,0,.73-.04,1.01-.13.28-.09.53-.19.74-.29.21-.1.38-.2.52-.29.14-.09.27-.13.37-.13.14,0,.25.05.33.16l.5.65ZM696.34,211.05c0-.35-.05-.67-.15-.96s-.24-.55-.44-.77c-.19-.22-.43-.38-.7-.5s-.59-.18-.95-.18c-.74,0-1.32.21-1.74.64-.42.43-.69,1.02-.81,1.77h4.79Z"/>
  </g>
  <g>
    <path class="cls-1" d="M249.94,216.64h-1.93v-12.92h1.93v12.92Z"/>
    <path class="cls-1" d="M254.28,208.77c.2-.21.41-.4.62-.58s.45-.32.69-.45.5-.22.78-.29c.28-.07.58-.1.9-.1.5,0,.95.08,1.33.25.38.17.7.4.96.71.26.3.45.67.58,1.09.13.43.2.9.2,1.41v5.82h-1.76v-5.82c0-.65-.15-1.16-.45-1.53-.3-.36-.76-.54-1.38-.54-.45,0-.87.11-1.26.32s-.76.5-1.09.87v6.71h-1.75v-9.14h1.05c.25,0,.4.12.46.35l.13.92Z"/>
    <path class="cls-1" d="M262.47,208.78c.51-.49,1.06-.85,1.66-1.09.6-.24,1.25-.36,1.97-.36.52,0,.98.09,1.39.26.4.17.74.41,1.02.72.28.31.48.67.63,1.1.14.43.21.9.21,1.41v5.83h-.78c-.17,0-.31-.03-.4-.09-.09-.06-.16-.16-.22-.32l-.19-.8c-.23.22-.47.41-.69.57s-.47.31-.72.42c-.25.12-.51.21-.8.27-.28.06-.59.09-.94.09-.36,0-.7-.05-1.01-.15-.31-.1-.59-.25-.82-.45-.23-.2-.42-.46-.55-.76-.13-.31-.2-.66-.2-1.07,0-.36.1-.71.29-1.04.2-.33.51-.63.95-.9.44-.26,1.02-.48,1.73-.65s1.59-.26,2.62-.29v-.67c0-.69-.15-1.21-.44-1.55s-.73-.51-1.3-.51c-.38,0-.71.05-.97.14-.26.1-.49.2-.67.32s-.35.22-.5.32c-.14.1-.29.14-.44.14-.12,0-.22-.03-.31-.1-.09-.07-.16-.14-.21-.23l-.31-.57ZM267.61,212.58c-.71.02-1.32.08-1.82.17s-.9.2-1.22.35c-.31.14-.54.31-.67.51-.14.19-.21.41-.21.65,0,.23.04.42.11.59.07.17.18.3.31.41.13.11.28.18.45.23.17.05.36.07.57.07.27,0,.52-.03.74-.08s.44-.13.63-.23c.2-.1.39-.22.57-.36.18-.14.36-.31.53-.5v-1.8Z"/>
    <path class="cls-1" d="M278.1,209.21c-.05.07-.11.12-.16.16s-.12.06-.22.06-.2-.04-.3-.11c-.1-.08-.24-.16-.4-.24s-.35-.17-.58-.24c-.22-.08-.5-.11-.83-.11-.43,0-.81.08-1.14.23-.33.16-.6.38-.82.67s-.39.64-.5,1.05-.17.88-.17,1.39.06,1.01.18,1.43c.12.42.29.77.51,1.05s.49.5.81.65c.32.15.67.22,1.06.22s.69-.05.94-.14c.25-.09.45-.19.61-.3.16-.11.3-.21.41-.3s.22-.14.33-.14c.14,0,.25.05.33.16l.5.65c-.21.26-.45.48-.71.66-.26.18-.54.33-.83.44s-.6.2-.92.25c-.32.05-.65.08-.98.08-.57,0-1.1-.11-1.6-.32-.49-.21-.92-.52-1.29-.92-.36-.4-.65-.9-.86-1.48s-.31-1.25-.31-1.99c0-.68.09-1.3.28-1.88s.47-1.07.84-1.49.82-.74,1.36-.98,1.16-.36,1.85-.36c.65,0,1.23.11,1.73.32s.94.51,1.33.89l-.47.65Z"/>
    <path class="cls-1" d="M283.17,216.79c-.74,0-1.31-.21-1.71-.62-.4-.41-.6-1-.6-1.77v-5.47h-1.06c-.1,0-.19-.03-.26-.09-.07-.06-.1-.16-.1-.28v-.71l1.48-.21.4-2.73c.02-.1.07-.18.14-.24.07-.06.16-.09.27-.09h.89v3.07h2.59v1.28h-2.59v5.35c0,.36.09.63.27.81.18.18.4.27.68.27.16,0,.3-.02.42-.06.12-.04.22-.09.3-.14.08-.05.16-.1.22-.14.06-.04.11-.06.16-.06.06,0,.11.01.14.04.03.03.07.07.1.13l.52.85c-.29.26-.63.47-1.03.61-.4.14-.81.22-1.23.22Z"/>
    <path class="cls-1" d="M288.99,204.67c0,.16-.03.32-.1.46-.07.15-.15.28-.27.39-.11.11-.24.2-.39.26-.15.06-.31.09-.47.09s-.32-.03-.46-.09c-.14-.06-.27-.15-.38-.26-.11-.11-.2-.24-.26-.39-.06-.15-.09-.3-.09-.46s.03-.33.09-.47.15-.28.26-.39c.11-.11.24-.2.38-.26.14-.06.3-.09.46-.09s.32.03.47.09c.15.06.28.15.39.26.11.11.2.24.27.39.07.15.1.3.1.47ZM288.66,207.5v9.14h-1.75v-9.14h1.75Z"/>
    <path class="cls-1" d="M299.14,207.5l-3.71,9.14h-1.58l-3.71-9.14h1.45c.14,0,.25.03.34.1s.15.15.18.25l2.19,5.62c.08.23.15.47.2.7.06.23.11.46.16.69.05-.23.1-.46.16-.68.06-.23.13-.46.22-.7l2.21-5.62c.04-.1.1-.19.19-.25.09-.07.2-.1.32-.1h1.38Z"/>
    <path class="cls-1" d="M307.79,215.34c-.22.25-.46.47-.75.65-.28.18-.58.33-.9.45-.32.11-.65.2-.99.25s-.67.08-1,.08c-.63,0-1.21-.11-1.75-.32s-1-.53-1.4-.94c-.39-.41-.7-.92-.92-1.53-.22-.61-.33-1.31-.33-2.1,0-.64.1-1.23.3-1.78.2-.55.48-1.03.85-1.44s.82-.73,1.35-.96c.53-.23,1.13-.35,1.8-.35.56,0,1.07.09,1.54.27.47.18.88.45,1.22.8.34.35.61.78.81,1.29.19.51.29,1.09.29,1.75,0,.27-.03.45-.09.54-.06.09-.17.14-.33.14h-5.99c.02.55.1,1.02.23,1.43.14.4.33.74.57,1.01.24.27.53.47.87.6s.71.2,1.12.2c.39,0,.73-.04,1.01-.13.28-.09.53-.19.74-.29.21-.1.38-.2.52-.29.14-.09.27-.13.37-.13.14,0,.25.05.33.16l.5.65ZM306.34,211.05c0-.35-.05-.67-.15-.96s-.24-.55-.44-.77c-.19-.22-.43-.38-.7-.5s-.59-.18-.95-.18c-.74,0-1.32.21-1.74.64-.42.43-.69,1.02-.81,1.77h4.79Z"/>
  </g>
  <g>
    <path class="cls-1" d="M549.68,216.64h-1.48c-.17,0-.31-.04-.41-.13s-.19-.19-.23-.32l-1.14-3h-5.7l-1.14,3c-.04.11-.12.22-.23.31-.11.09-.25.14-.41.14h-1.48l5.15-12.92h1.94l5.15,12.92ZM545.89,211.83l-1.92-5.01c-.14-.34-.28-.77-.41-1.3-.07.26-.13.5-.2.72-.07.22-.14.42-.2.59l-1.91,4.99h4.64Z"/>
    <path class="cls-1" d="M557.09,209.21c-.05.07-.11.12-.16.16s-.12.06-.22.06-.2-.04-.3-.11c-.1-.08-.24-.16-.4-.24s-.35-.17-.58-.24c-.22-.08-.5-.11-.83-.11-.43,0-.81.08-1.14.23-.33.16-.6.38-.82.67s-.39.64-.5,1.05-.17.88-.17,1.39.06,1.01.18,1.43c.12.42.29.77.51,1.05s.49.5.81.65c.32.15.67.22,1.06.22s.69-.05.94-.14c.25-.09.45-.19.61-.3.16-.11.3-.21.41-.3s.22-.14.33-.14c.14,0,.25.05.33.16l.5.65c-.21.26-.45.48-.71.66-.26.18-.54.33-.83.44s-.6.2-.92.25c-.32.05-.65.08-.98.08-.57,0-1.1-.11-1.6-.32-.49-.21-.92-.52-1.29-.92-.36-.4-.65-.9-.86-1.48s-.31-1.25-.31-1.99c0-.68.09-1.3.28-1.88s.47-1.07.84-1.49.82-.74,1.36-.98,1.16-.36,1.85-.36c.65,0,1.23.11,1.73.32s.94.51,1.33.89l-.47.65Z"/>
    <path class="cls-1" d="M562.16,216.79c-.74,0-1.31-.21-1.71-.62-.4-.41-.6-1-.6-1.77v-5.47h-1.06c-.1,0-.19-.03-.26-.09-.07-.06-.1-.16-.1-.28v-.71l1.48-.21.4-2.73c.02-.1.07-.18.14-.24.07-.06.16-.09.27-.09h.89v3.07h2.59v1.28h-2.59v5.35c0,.36.09.63.27.81.18.18.4.27.68.27.16,0,.3-.02.42-.06.12-.04.22-.09.3-.14.08-.05.16-.1.22-.14.06-.04.11-.06.16-.06.06,0,.11.01.14.04.03.03.07.07.1.13l.52.85c-.29.26-.63.47-1.03.61-.4.14-.81.22-1.23.22Z"/>
    <path class="cls-1" d="M567.98,204.67c0,.16-.03.32-.1.46-.07.15-.15.28-.27.39-.11.11-.24.2-.39.26-.15.06-.31.09-.47.09s-.32-.03-.46-.09c-.14-.06-.27-.15-.38-.26-.11-.11-.2-.24-.26-.39-.06-.15-.09-.3-.09-.46s.03-.33.09-.47.15-.28.26-.39c.11-.11.24-.2.38-.26.14-.06.3-.09.46-.09s.32.03.47.09c.15.06.28.15.39.26.11.11.2.24.27.39.07.15.1.3.1.47ZM567.65,207.5v9.14h-1.75v-9.14h1.75Z"/>
    <path class="cls-1" d="M578.13,207.5l-3.71,9.14h-1.58l-3.71-9.14h1.45c.14,0,.25.03.34.1s.15.15.18.25l2.19,5.62c.08.23.15.47.2.7.06.23.11.46.16.69.05-.23.1-.46.16-.68.06-.23.13-.46.22-.7l2.21-5.62c.04-.1.1-.19.19-.25.09-.07.2-.1.32-.1h1.38Z"/>
    <path class="cls-1" d="M586.78,215.34c-.22.25-.46.47-.75.65-.28.18-.58.33-.9.45-.32.11-.65.2-.99.25s-.67.08-1,.08c-.63,0-1.21-.11-1.75-.32s-1-.53-1.4-.94c-.39-.41-.7-.92-.92-1.53-.22-.61-.33-1.31-.33-2.1,0-.64.1-1.23.3-1.78.2-.55.48-1.03.85-1.44s.82-.73,1.35-.96c.53-.23,1.13-.35,1.8-.35.56,0,1.07.09,1.54.27.47.18.88.45,1.22.8.34.35.61.78.81,1.29.19.51.29,1.09.29,1.75,0,.27-.03.45-.09.54-.06.09-.17.14-.33.14h-5.99c.02.55.1,1.02.23,1.43.14.4.33.74.57,1.01.24.27.53.47.87.6s.71.2,1.12.2c.39,0,.73-.04,1.01-.13.28-.09.53-.19.74-.29.21-.1.38-.2.52-.29.14-.09.27-.13.37-.13.14,0,.25.05.33.16l.5.65ZM585.33,211.05c0-.35-.05-.67-.15-.96s-.24-.55-.44-.77c-.19-.22-.43-.38-.7-.5s-.59-.18-.95-.18c-.74,0-1.32.21-1.74.64-.42.43-.69,1.02-.81,1.77h4.79Z"/>
  </g>
  <g>
    <path class="cls-1" d="M485.67,216.64h-1.48c-.17,0-.31-.04-.41-.13s-.19-.19-.23-.32l-1.14-3h-5.7l-1.14,3c-.04.11-.12.22-.23.31-.11.09-.25.14-.41.14h-1.48l5.15-12.92h1.94l5.15,12.92ZM481.88,211.83l-1.92-5.01c-.14-.34-.28-.77-.41-1.3-.07.26-.13.5-.2.72-.07.22-.14.42-.2.59l-1.91,4.99h4.64Z"/>
    <path class="cls-1" d="M491.19,203.72c.83,0,1.55.1,2.16.29.61.19,1.12.46,1.52.81.4.35.7.78.9,1.27s.29,1.05.29,1.66-.1,1.16-.31,1.67-.52.94-.93,1.31c-.41.37-.92.65-1.53.85s-1.31.3-2.1.3h-2v4.76h-1.92v-12.92h3.92ZM491.19,210.37c.49,0,.91-.06,1.28-.19s.68-.3.93-.54c.25-.23.44-.51.56-.83.13-.32.19-.68.19-1.07,0-.79-.24-1.4-.73-1.85-.49-.45-1.23-.67-2.23-.67h-2v5.15h2Z"/>
    <path class="cls-1" d="M497.15,204.37c.56-.49,1.22-.74,2-.74.28,0,.52.04.74.13s.41.22.56.38.27.36.35.58c.08.23.12.47.12.74v2.94h-.57c-.12,0-.21-.02-.27-.05-.06-.04-.11-.11-.15-.22l-.1-.29c-.12.1-.24.19-.35.27-.11.08-.23.14-.34.2-.12.05-.24.09-.38.12-.13.03-.29.04-.45.04-.41,0-.75-.11-1-.32-.25-.22-.38-.54-.38-.96,0-.17.04-.34.13-.51.09-.17.24-.33.45-.47s.5-.26.85-.36.8-.15,1.34-.16v-.22c0-.29-.06-.5-.19-.63s-.3-.2-.53-.2c-.17,0-.32.02-.44.06-.12.04-.22.08-.31.13s-.17.09-.24.13c-.07.04-.16.06-.26.06-.08,0-.16-.02-.22-.07-.06-.04-.11-.1-.15-.17l-.22-.41ZM499.71,206.46c-.31.01-.56.04-.76.08-.2.04-.37.09-.49.14-.12.06-.21.12-.26.2-.05.08-.08.16-.08.25,0,.17.05.3.16.37s.24.11.42.11c.21,0,.39-.04.54-.11.15-.07.31-.19.46-.34v-.7Z"/>
  </g>
  <g>
    <path class="cls-1" d="M371.01,203.72c.83,0,1.55.1,2.16.29.61.19,1.12.46,1.52.81.4.35.7.78.9,1.27s.29,1.05.29,1.66-.1,1.16-.31,1.67-.52.94-.93,1.31c-.41.37-.92.65-1.53.85s-1.31.3-2.1.3h-2v4.76h-1.92v-12.92h3.92ZM371.01,210.37c.49,0,.91-.06,1.28-.19s.68-.3.93-.54c.25-.23.44-.51.56-.83.13-.32.19-.68.19-1.07,0-.79-.24-1.4-.73-1.85-.49-.45-1.23-.67-2.23-.67h-2v5.15h2Z"/>
    <path class="cls-1" d="M384.67,215.34c-.22.25-.46.47-.75.65-.28.18-.58.33-.9.45-.32.11-.65.2-.99.25s-.67.08-1,.08c-.63,0-1.21-.11-1.75-.32s-1-.53-1.4-.94c-.39-.41-.7-.92-.92-1.53-.22-.61-.33-1.31-.33-2.1,0-.64.1-1.23.3-1.78.2-.55.48-1.03.85-1.44s.82-.73,1.35-.96c.53-.23,1.13-.35,1.8-.35.56,0,1.07.09,1.54.27.47.18.88.45,1.22.8.34.35.61.78.81,1.29.19.51.29,1.09.29,1.75,0,.27-.03.45-.09.54-.06.09-.17.14-.33.14h-5.99c.02.55.1,1.02.23,1.43.14.4.33.74.57,1.01.24.27.53.47.87.6s.71.2,1.12.2c.39,0,.73-.04,1.01-.13.28-.09.53-.19.74-.29.21-.1.38-.2.52-.29.14-.09.27-.13.37-.13.14,0,.25.05.33.16l.5.65ZM383.22,211.05c0-.35-.05-.67-.15-.96s-.24-.55-.44-.77c-.19-.22-.43-.38-.7-.5s-.59-.18-.95-.18c-.74,0-1.32.21-1.74.64-.42.43-.69,1.02-.81,1.77h4.79Z"/>
    <path class="cls-1" d="M388.34,208.77c.2-.21.41-.4.62-.58s.45-.32.69-.45.5-.22.78-.29c.28-.07.58-.1.9-.1.5,0,.95.08,1.33.25.38.17.7.4.96.71.26.3.45.67.58,1.09.13.43.2.9.2,1.41v5.82h-1.76v-5.82c0-.65-.15-1.16-.45-1.53-.3-.36-.76-.54-1.38-.54-.45,0-.87.11-1.26.32s-.76.5-1.09.87v6.71h-1.75v-9.14h1.05c.25,0,.4.12.46.35l.13.92Z"/>
    <path class="cls-1" d="M404.43,203.36v13.28h-1.06c-.25,0-.4-.12-.46-.35l-.15-1.05c-.39.46-.83.83-1.33,1.11-.5.28-1.07.42-1.71.42-.52,0-.99-.1-1.42-.31-.42-.2-.78-.5-1.08-.9-.3-.39-.53-.88-.69-1.46s-.24-1.25-.24-2.01c0-.68.09-1.31.27-1.89.18-.58.44-1.09.78-1.51.34-.43.76-.76,1.24-1,.49-.24,1.03-.37,1.65-.37.55,0,1.02.09,1.41.27.39.18.73.43,1.04.76v-5h1.76ZM402.66,209.71c-.29-.38-.6-.64-.93-.79-.33-.15-.71-.23-1.12-.23-.8,0-1.43.29-1.87.87s-.66,1.42-.66,2.53c0,.58.05,1.08.15,1.49.1.41.24.75.43,1.01.19.26.42.45.7.58.28.12.59.18.94.18.51,0,.95-.11,1.32-.34.37-.23.72-.55,1.04-.96v-4.34Z"/>
    <path class="cls-1" d="M409.05,204.67c0,.16-.03.32-.1.46-.07.15-.15.28-.27.39-.11.11-.24.2-.39.26-.15.06-.31.09-.47.09s-.32-.03-.46-.09c-.14-.06-.27-.15-.38-.26-.11-.11-.2-.24-.26-.39-.06-.15-.09-.3-.09-.46s.03-.33.09-.47.15-.28.26-.39c.11-.11.24-.2.38-.26.14-.06.3-.09.46-.09s.32.03.47.09c.15.06.28.15.39.26.11.11.2.24.27.39.07.15.1.3.1.47ZM408.72,207.5v9.14h-1.75v-9.14h1.75Z"/>
    <path class="cls-1" d="M412.91,208.77c.2-.21.41-.4.62-.58s.45-.32.69-.45.5-.22.78-.29c.28-.07.58-.1.9-.1.5,0,.95.08,1.33.25.38.17.7.4.96.71.26.3.45.67.58,1.09.13.43.2.9.2,1.41v5.82h-1.76v-5.82c0-.65-.15-1.16-.45-1.53-.3-.36-.76-.54-1.38-.54-.45,0-.87.11-1.26.32s-.76.5-1.09.87v6.71h-1.75v-9.14h1.05c.25,0,.4.12.46.35l.13.92Z"/>
    <path class="cls-1" d="M429.13,207.84v.66c0,.22-.13.35-.4.4l-.98.14c.08.19.15.38.2.59s.07.42.07.65c0,.45-.09.86-.26,1.22-.17.36-.41.67-.72.93-.31.26-.67.46-1.09.59-.42.14-.89.21-1.39.21-.41,0-.8-.04-1.16-.13-.18.11-.32.23-.41.36-.09.13-.14.26-.14.38,0,.21.09.37.27.47.18.1.41.18.69.22.29.04.61.07.98.08.37.01.74.03,1.12.06.38.03.76.08,1.12.14.37.07.7.18.98.33.28.15.52.36.69.63.18.27.27.61.27,1.04,0,.4-.1.78-.29,1.15-.19.37-.48.7-.85.99-.37.29-.83.52-1.36.69-.53.17-1.14.26-1.82.26s-1.27-.07-1.77-.2-.92-.31-1.25-.53-.58-.48-.75-.77c-.17-.29-.25-.6-.25-.92,0-.44.14-.82.41-1.13s.66-.55,1.14-.72c-.26-.12-.47-.28-.63-.49-.16-.21-.23-.48-.23-.82,0-.13.02-.27.07-.41.05-.14.12-.28.22-.42s.22-.27.37-.4c.15-.13.32-.24.51-.34-.45-.25-.8-.59-1.06-1-.26-.42-.39-.9-.39-1.46,0-.45.09-.86.26-1.22.17-.36.42-.67.72-.93.31-.26.68-.46,1.11-.59.43-.14.9-.21,1.41-.21.79,0,1.47.17,2.04.5h2.54ZM427.35,217.12c0-.22-.06-.39-.18-.52-.12-.13-.28-.23-.49-.31s-.45-.13-.72-.16c-.28-.03-.57-.06-.87-.08-.3-.02-.61-.03-.93-.05-.32-.01-.62-.04-.92-.08-.31.16-.57.34-.77.57-.2.22-.3.48-.3.78,0,.19.05.37.15.54s.25.31.46.44.47.22.78.29.69.1,1.13.1.81-.04,1.14-.11c.33-.08.61-.18.83-.32s.4-.29.51-.48c.12-.19.18-.39.18-.61ZM424.55,212.08c.31,0,.59-.04.82-.13.24-.08.44-.2.59-.36.16-.15.28-.34.36-.55.08-.22.12-.45.12-.71,0-.53-.16-.95-.48-1.26-.32-.32-.79-.47-1.42-.47s-1.09.16-1.41.47c-.32.31-.48.74-.48,1.26,0,.26.04.49.12.71.08.21.2.4.36.55.16.15.36.27.59.36.24.09.51.13.81.13Z"/>
  </g>
  <rect class="cls-1" x="225" y="59.5" width="90" height="1"/>
  <rect class="cls-1" x="330" y="29.5" width="165" height="1"/>
  <rect class="cls-1" x="510" y="59.5" width="210" height="1"/>
  <g>
    <polygon class="cls-2" points="322 60 315.19 60 323.19 30 330 30 322 60"/>
    <path class="cls-1" d="M322.38,60.5h-7.84l8.27-31h7.84l-8.27,31ZM315.84,59.5h5.77l7.73-29h-5.77l-7.73,29Z"/>
  </g>
  <g>
    <polygon class="cls-2" points="503.39 60 510.19 60 502.19 30 495.39 30 503.39 60"/>
    <path class="cls-1" d="M510.84,60.5h-7.84l-8.27-31h7.84l8.27,31ZM503.77,59.5h5.77l-7.73-29h-5.77l7.73,29Z"/>
  </g>
  <rect class="cls-1" x="225" y="149.5" width="105" height="1"/>
  <rect class="cls-1" x="345" y="119.5" width="126.53" height="1"/>
  <rect class="cls-1" x="480" y="149.5" width="240" height="1"/>
  <g>
    <polygon class="cls-2" points="336.81 150 330 150 338 120 344.81 120 336.81 150"/>
    <path class="cls-1" d="M337.19,150.5h-7.84l8.27-31h7.84l-8.27,31ZM330.65,149.5h5.77l7.73-29h-5.77l-7.73,29Z"/>
  </g>
  <g>
    <polygon class="cls-2" points="472.39 150 479.19 150 471.19 120 464.39 120 472.39 150"/>
    <path class="cls-1" d="M479.84,150.5h-7.84l-8.27-31h7.84l8.27,31ZM472.77,149.5h5.77l-7.73-29h-5.77l7.73,29Z"/>
  </g>
  <path class="cls-1" d="M322.3,225.5h-89.6l-8.27-15.5,8.27-15.5h89.6l8.27,15.5-8.27,15.5ZM233.3,224.5h88.4l7.73-14.5-7.73-14.5h-88.4l-7.73,14.5,7.73,14.5Z"/>
  <path class="cls-1" d="M502.3,225.5h-29.6l-8.27-15.5,8.27-15.5h29.6l8.27,15.5-8.27,15.5ZM473.3,224.5h28.4l7.73-14.5-7.73-14.5h-28.4l-7.73,14.5,7.73,14.5Z"/>
  <path class="cls-1" d="M607.3,225.5h-89.6l-8.27-15.5,8.27-15.5h89.6l8.27,15.5-8.27,15.5ZM518.3,224.5h88.4l7.73-14.5-7.73-14.5h-88.4l-7.73,14.5,7.73,14.5Z"/>
  <path class="cls-1" d="M712.3,225.5h-89.6l-8.27-15.5,8.27-15.5h89.6l8.27,15.5-8.27,15.5ZM623.3,224.5h88.4l7.73-14.5-7.73-14.5h-88.4l-7.73,14.5,7.73,14.5Z"/>
  <path class="cls-1" d="M457.3,225.5h-119.6l-8.27-15.5,8.27-15.5h119.6l8.27,15.5-8.27,15.5ZM338.3,224.5h118.4l7.73-14.5-7.73-14.5h-118.4l-7.73,14.5,7.73,14.5Z"/>
</svg>