<svg xmlns="http://www.w3.org/2000/svg" id="Layer_1" viewBox="0 0 690 390" width="690" height="390">
  <defs>
    <style>
      .cls-1 {
        fill: #fff;
      }

      .cls-2 {
        fill: #333e48;
      }

      .cls-3 {
        fill: #e5eceb;
      }

      .cls-4 {
        fill: #ff6b00;
      }

      .Arm_Blue_Box_3 {
        fill: #0091bd;
      }
    </style>
  </defs>
  <g>
    <rect class="cls-2" x="420" y="119.5" width="84.26" height="1"/>
    <polygon class="cls-2" points="503.09 116.01 510 120 503.09 123.99 503.09 116.01"/>
  </g>
  <g>
    <rect class="cls-2" x="420" y="179.5" width="84.26" height="1"/>
    <polygon class="cls-2" points="503.09 176.01 510 180 503.09 183.99 503.09 176.01"/>
  </g>
  <rect class="Arm_Blue_Box_3" x="30" y="75" width="150" height="150"/>
  <rect class="Arm_Blue_Box_3" x="30" y="270" width="630" height="90"/>
  <rect class="Arm_Blue_Box_3" x="269.17" y="75" width="150.83" height="150"/>
  <rect class="Arm_Blue_Box_3" x="510" y="75" width="150" height="150"/>
  <g>
    <path class="cls-3" d="M70.3,143.72c.83,0,1.55.1,2.16.29.61.19,1.12.46,1.52.81.4.35.7.78.89,1.27.2.5.29,1.05.29,1.66s-.11,1.16-.31,1.67c-.21.51-.52.94-.93,1.31s-.92.65-1.53.85-1.31.3-2.1.3h-2v4.76h-1.92v-12.92h3.92ZM70.3,150.37c.49,0,.91-.06,1.28-.19s.68-.3.93-.54c.25-.23.44-.51.56-.83.13-.32.19-.68.19-1.07,0-.79-.24-1.4-.73-1.85s-1.23-.67-2.23-.67h-2v5.15h2Z"/>
    <path class="cls-3" d="M83.96,155.34c-.22.25-.46.47-.75.65-.28.18-.58.33-.9.45s-.65.2-.99.25c-.34.05-.67.08-1,.08-.63,0-1.21-.11-1.75-.32s-1-.53-1.39-.94c-.39-.41-.7-.92-.92-1.53-.22-.61-.33-1.31-.33-2.1,0-.64.1-1.23.3-1.78.2-.55.48-1.03.85-1.44s.82-.73,1.36-.96c.53-.23,1.13-.35,1.8-.35.56,0,1.07.09,1.54.27.47.18.88.45,1.22.8s.61.78.81,1.29c.19.51.29,1.09.29,1.75,0,.27-.03.45-.09.54-.06.09-.17.14-.33.14h-5.99c.02.55.1,1.02.23,1.43.14.4.33.74.57,1.01.24.27.53.47.87.6s.71.2,1.12.2c.39,0,.73-.04,1.01-.13.29-.09.53-.19.74-.29.21-.1.38-.2.52-.29.14-.09.27-.13.37-.13.14,0,.25.05.33.16l.5.65ZM82.51,151.05c0-.35-.05-.67-.15-.96-.1-.29-.24-.55-.44-.77-.19-.22-.43-.38-.7-.5-.28-.12-.59-.18-.95-.18-.74,0-1.32.21-1.74.64-.42.43-.69,1.02-.8,1.77h4.79Z"/>
    <path class="cls-3" d="M87.64,149.25c.29-.6.65-1.07,1.06-1.41s.91-.51,1.49-.51c.2,0,.39.02.56.07.18.04.33.11.46.2l-.12,1.32c-.04.16-.14.24-.3.24-.08,0-.21-.02-.38-.05s-.35-.05-.54-.05c-.28,0-.53.04-.75.12-.22.08-.41.2-.58.36s-.32.35-.46.58c-.13.23-.25.49-.37.79v5.72h-1.75v-9.14h1.01c.19,0,.32.03.39.1.07.07.12.19.15.36l.11,1.29Z"/>
    <path class="cls-3" d="M94.75,144.67c0,.16-.03.32-.1.46-.07.15-.15.28-.27.39-.11.11-.24.2-.39.26-.15.06-.31.09-.47.09s-.31-.03-.46-.09c-.14-.06-.27-.15-.38-.26-.11-.11-.2-.24-.26-.39-.06-.15-.1-.3-.1-.46s.03-.33.1-.47c.06-.15.15-.28.26-.39s.24-.2.38-.26c.14-.06.3-.09.46-.09s.32.03.47.09c.15.06.28.15.39.26.11.11.2.24.27.39s.1.3.1.47ZM94.42,147.5v9.14h-1.75v-9.14h1.75Z"/>
    <path class="cls-3" d="M98.63,148.87c.19-.23.4-.44.62-.62.22-.19.45-.35.71-.49s.52-.24.81-.31.59-.11.91-.11c.52,0,1,.1,1.42.31s.79.5,1.08.9c.3.4.53.89.7,1.47s.25,1.25.25,2.01c0,.68-.09,1.31-.27,1.89s-.44,1.08-.78,1.51c-.34.43-.75.76-1.24,1-.49.24-1.04.36-1.65.36-.54,0-1.01-.09-1.4-.27-.39-.18-.74-.43-1.04-.76v3.97h-1.76v-12.21h1.05c.25,0,.4.12.46.35l.15,1.02ZM98.72,154.39c.29.38.6.64.93.79.33.15.71.22,1.12.22.8,0,1.43-.29,1.87-.87.44-.58.66-1.42.66-2.53,0-.58-.05-1.08-.15-1.49-.1-.41-.24-.75-.43-1.01-.19-.26-.42-.45-.7-.58-.28-.12-.59-.18-.94-.18-.51,0-.95.11-1.33.34-.38.23-.72.55-1.04.97v4.33Z"/>
    <path class="cls-3" d="M108.85,148.66c.38-.39.81-.7,1.27-.94s1-.36,1.61-.36c.5,0,.95.08,1.33.25s.7.4.96.71c.26.3.45.67.58,1.09.13.43.2.9.2,1.41v5.82h-1.76v-5.82c0-.65-.15-1.16-.45-1.53-.3-.36-.76-.54-1.38-.54-.45,0-.87.11-1.26.32-.39.21-.76.5-1.09.87v6.71h-1.76v-13.28h1.76v5.3Z"/>
    <path class="cls-3" d="M124.67,155.34c-.22.25-.46.47-.75.65-.28.18-.58.33-.9.45-.32.11-.65.2-.98.25-.34.05-.67.08-1,.08-.63,0-1.21-.11-1.75-.32s-1-.53-1.4-.94c-.39-.41-.7-.92-.92-1.53-.22-.61-.33-1.31-.33-2.1,0-.64.1-1.23.3-1.78.2-.55.48-1.03.85-1.44s.82-.73,1.35-.96c.54-.23,1.13-.35,1.8-.35.56,0,1.07.09,1.54.27.47.18.88.45,1.22.8.34.35.61.78.81,1.29s.29,1.09.29,1.75c0,.27-.03.45-.09.54-.06.09-.17.14-.33.14h-5.99c.02.55.1,1.02.23,1.43.14.4.33.74.57,1.01.24.27.53.47.87.6s.71.2,1.12.2c.39,0,.73-.04,1.01-.13.28-.09.53-.19.74-.29.21-.1.38-.2.52-.29.14-.09.27-.13.37-.13.14,0,.25.05.33.16l.5.65ZM123.22,151.05c0-.35-.05-.67-.15-.96-.1-.29-.25-.55-.44-.77-.19-.22-.43-.38-.7-.5-.28-.12-.59-.18-.96-.18-.74,0-1.32.21-1.74.64-.42.43-.69,1.02-.81,1.77h4.79Z"/>
    <path class="cls-3" d="M128.35,149.25c.29-.6.65-1.07,1.06-1.41s.91-.51,1.49-.51c.2,0,.38.02.56.07.18.04.33.11.46.2l-.12,1.32c-.04.16-.14.24-.3.24-.08,0-.21-.02-.38-.05-.17-.03-.35-.05-.54-.05-.28,0-.53.04-.75.12-.22.08-.41.2-.58.36s-.32.35-.45.58c-.13.23-.26.49-.37.79v5.72h-1.76v-9.14h1.01c.19,0,.32.03.39.1s.12.19.15.36l.11,1.29Z"/>
    <path class="cls-3" d="M132.91,148.78c.51-.49,1.06-.85,1.66-1.09s1.25-.36,1.97-.36c.52,0,.98.09,1.39.26s.74.41,1.02.72c.28.31.49.67.63,1.1s.21.9.21,1.41v5.83h-.78c-.17,0-.31-.03-.4-.09-.09-.06-.16-.16-.22-.32l-.19-.8c-.23.22-.46.41-.69.57-.23.17-.47.31-.71.42-.25.12-.51.21-.8.27-.28.06-.59.09-.94.09-.36,0-.7-.05-1.01-.15-.32-.1-.59-.25-.82-.45s-.42-.46-.55-.76c-.13-.31-.2-.66-.2-1.07,0-.36.1-.71.29-1.04.2-.33.51-.63.95-.9.44-.26,1.02-.48,1.73-.65s1.58-.26,2.62-.29v-.67c0-.69-.15-1.21-.44-1.55-.29-.34-.73-.51-1.29-.51-.38,0-.71.05-.97.14-.26.1-.49.2-.67.32-.19.12-.35.22-.5.32-.14.1-.29.14-.44.14-.12,0-.22-.03-.31-.1-.09-.07-.16-.14-.21-.23l-.32-.57ZM138.06,152.58c-.71.02-1.32.08-1.82.17s-.9.2-1.21.35c-.31.14-.54.31-.67.51-.14.19-.21.41-.21.65,0,.23.04.42.11.59.08.17.18.3.31.41.13.11.28.18.45.23.17.05.36.07.57.07.27,0,.52-.03.74-.08s.44-.13.63-.23c.2-.1.39-.22.57-.36.18-.14.36-.31.53-.5v-1.8Z"/>
    <path class="cls-3" d="M143.94,143.36v13.28h-1.76v-13.28h1.76Z"/>
  </g>
  <g>
    <path class="cls-3" d="M312.34,145.84h-1.93v-12.92h1.93v12.92Z"/>
    <path class="cls-3" d="M316.68,137.97c.2-.21.41-.4.62-.58s.45-.32.69-.45.5-.22.78-.29c.28-.07.58-.1.9-.1.5,0,.95.08,1.33.25.38.17.7.4.96.71.26.3.45.67.59,1.09.13.43.2.9.2,1.41v5.82h-1.76v-5.82c0-.65-.15-1.16-.45-1.53-.3-.36-.76-.54-1.38-.54-.45,0-.87.11-1.27.32-.39.21-.76.5-1.09.87v6.71h-1.75v-9.14h1.05c.25,0,.4.12.46.35l.13.92Z"/>
    <path class="cls-3" d="M327.84,145.99c-.74,0-1.31-.21-1.71-.62-.4-.41-.6-1-.6-1.77v-5.47h-1.06c-.1,0-.19-.03-.26-.09-.07-.06-.1-.16-.1-.28v-.71l1.49-.21.4-2.73c.02-.1.07-.18.14-.24.07-.06.16-.09.26-.09h.89v3.07h2.59v1.28h-2.59v5.35c0,.36.09.63.27.81.18.18.4.27.68.27.16,0,.3-.02.42-.06s.22-.09.3-.14c.08-.05.16-.1.22-.14.06-.04.11-.06.16-.06.06,0,.11.01.14.04.03.03.07.07.1.13l.52.85c-.29.26-.63.47-1.03.61-.4.14-.81.22-1.23.22Z"/>
    <path class="cls-3" d="M338.94,144.54c-.21.25-.46.47-.75.65-.28.18-.58.33-.9.45s-.65.2-.99.25-.67.08-1,.08c-.63,0-1.21-.11-1.75-.32s-1-.53-1.4-.94c-.39-.41-.7-.92-.92-1.53-.22-.61-.33-1.31-.33-2.1,0-.64.1-1.23.3-1.78.2-.55.48-1.03.85-1.44s.82-.73,1.35-.96c.53-.23,1.13-.35,1.8-.35.56,0,1.07.09,1.54.27.47.18.88.45,1.22.8.34.35.61.78.81,1.29.19.51.29,1.09.29,1.75,0,.27-.03.45-.09.54s-.17.14-.33.14h-5.99c.02.55.1,1.02.23,1.43.14.4.33.74.57,1.01.24.27.53.47.87.6s.71.2,1.12.2c.39,0,.73-.04,1.01-.13.28-.09.53-.19.74-.29.21-.1.38-.2.52-.29.14-.09.27-.13.37-.13.14,0,.25.05.33.16l.5.65ZM337.49,140.25c0-.35-.05-.67-.15-.96s-.25-.55-.44-.77c-.19-.22-.43-.38-.7-.5s-.59-.18-.95-.18c-.74,0-1.32.21-1.74.64-.42.43-.69,1.02-.81,1.77h4.79Z"/>
    <path class="cls-3" d="M342.62,138.45c.29-.6.65-1.07,1.06-1.41s.91-.51,1.49-.51c.2,0,.39.02.56.07.18.04.33.11.46.2l-.12,1.32c-.04.16-.14.24-.3.24-.08,0-.21-.02-.38-.05-.17-.03-.35-.05-.54-.05-.28,0-.53.04-.75.12-.22.08-.41.2-.58.36-.17.16-.32.35-.45.58-.13.23-.25.49-.37.79v5.72h-1.75v-9.14h1.01c.19,0,.32.03.39.1.07.07.12.19.15.36l.11,1.29Z"/>
    <path class="cls-3" d="M349.22,138.45c.29-.6.65-1.07,1.06-1.41s.91-.51,1.49-.51c.2,0,.39.02.56.07.18.04.33.11.46.2l-.12,1.32c-.04.16-.14.24-.3.24-.08,0-.21-.02-.38-.05s-.35-.05-.54-.05c-.28,0-.53.04-.75.12-.22.08-.41.2-.58.36-.17.16-.32.35-.46.58-.13.23-.25.49-.37.79v5.72h-1.75v-9.14h1.01c.19,0,.32.03.39.1.07.07.12.19.15.36l.11,1.29Z"/>
    <path class="cls-3" d="M361.77,136.7v9.14h-1.05c-.24,0-.4-.12-.47-.35l-.13-.92c-.2.21-.41.4-.62.58-.22.17-.45.32-.69.45s-.51.22-.78.29c-.28.07-.57.1-.89.1-.5,0-.95-.08-1.33-.25s-.7-.4-.96-.71-.45-.67-.58-1.09c-.13-.43-.2-.9-.2-1.41v-5.82h1.76v5.82c0,.65.15,1.16.45,1.53.3.36.76.54,1.38.54.45,0,.87-.11,1.26-.32s.76-.51,1.1-.88v-6.7h1.76Z"/>
    <path class="cls-3" d="M365.89,138.07c.19-.23.4-.44.62-.62.22-.19.46-.35.71-.49s.52-.24.8-.31.59-.11.91-.11c.52,0,.99.1,1.42.31s.78.5,1.08.9c.3.4.53.89.7,1.47s.25,1.25.25,2.01c0,.68-.09,1.31-.28,1.89s-.44,1.08-.78,1.51c-.34.43-.75.76-1.24,1-.49.24-1.04.36-1.65.36-.55,0-1.01-.09-1.4-.27-.39-.18-.74-.43-1.04-.76v3.97h-1.75v-12.21h1.05c.25,0,.4.12.46.35l.15,1.02ZM365.98,143.59c.29.38.6.64.93.79.33.15.71.22,1.12.22.8,0,1.43-.29,1.87-.87s.66-1.42.66-2.53c0-.58-.05-1.08-.15-1.49-.1-.41-.24-.75-.43-1.01-.19-.26-.42-.45-.7-.58-.28-.12-.59-.18-.94-.18-.51,0-.95.11-1.33.34-.38.23-.72.55-1.04.97v4.33Z"/>
    <path class="cls-3" d="M377.09,145.99c-.74,0-1.31-.21-1.71-.62-.4-.41-.6-1-.6-1.77v-5.47h-1.06c-.1,0-.19-.03-.26-.09-.07-.06-.1-.16-.1-.28v-.71l1.48-.21.4-2.73c.02-.1.07-.18.14-.24.07-.06.16-.09.27-.09h.89v3.07h2.59v1.28h-2.59v5.35c0,.36.09.63.27.81.18.18.4.27.68.27.16,0,.3-.02.42-.06.12-.04.22-.09.3-.14.08-.05.16-.1.21-.14.06-.04.12-.06.16-.06.06,0,.11.01.14.04.03.03.07.07.1.13l.52.85c-.29.26-.63.47-1.03.61-.4.14-.81.22-1.23.22Z"/>
    <path class="cls-3" d="M314.91,164.67c.11,0,.2.04.28.13l.76.83c-.53.62-1.17,1.11-1.93,1.45-.76.34-1.67.51-2.74.51-.94,0-1.78-.16-2.54-.49-.76-.32-1.41-.78-1.94-1.36-.54-.58-.95-1.28-1.25-2.09-.29-.81-.44-1.7-.44-2.67s.15-1.86.46-2.67c.31-.81.74-1.51,1.3-2.09.56-.58,1.22-1.04,2-1.36s1.64-.49,2.58-.49,1.73.15,2.45.45,1.33.7,1.86,1.2l-.63.89c-.04.07-.09.12-.16.16-.06.04-.15.06-.25.06-.11,0-.25-.06-.4-.17-.15-.11-.35-.24-.6-.38-.25-.14-.56-.27-.92-.38-.37-.11-.82-.17-1.37-.17-.64,0-1.23.11-1.76.34-.54.22-1,.55-1.38.97-.39.42-.69.94-.9,1.56-.21.62-.32,1.31-.32,2.08s.11,1.49.33,2.1c.22.61.53,1.13.92,1.56.39.43.85.75,1.38.97s1.1.33,1.71.33c.37,0,.71-.02,1-.07s.57-.11.82-.2c.25-.09.48-.21.71-.35.22-.14.44-.31.66-.51.05-.04.1-.08.15-.1.05-.03.11-.04.17-.04Z"/>
    <path class="cls-3" d="M321.24,158.15c.67,0,1.28.11,1.82.33.54.22,1,.53,1.38.95s.67.91.88,1.49.31,1.23.31,1.95-.1,1.37-.31,1.95-.5,1.08-.88,1.49c-.38.41-.84.72-1.38.94-.54.22-1.15.33-1.82.33s-1.29-.11-1.83-.33c-.54-.22-1.01-.53-1.39-.94-.38-.41-.68-.9-.89-1.49s-.31-1.23-.31-1.95.1-1.37.31-1.95.5-1.07.89-1.49c.38-.41.85-.73,1.39-.95.54-.22,1.15-.33,1.83-.33ZM321.24,166.2c.86,0,1.51-.29,1.93-.87s.64-1.4.64-2.46-.21-1.88-.64-2.46-1.07-.88-1.93-.88-1.53.29-1.96.88c-.43.58-.64,1.41-.64,2.46s.21,1.88.64,2.46c.43.58,1.08.87,1.96.87Z"/>
    <path class="cls-3" d="M329.23,159.57c.2-.21.41-.4.62-.58.22-.17.45-.32.69-.45.24-.12.5-.22.78-.29.28-.07.58-.1.89-.1.5,0,.95.08,1.33.25s.7.4.96.71c.26.3.45.67.58,1.09.13.43.2.9.2,1.41v5.82h-1.76v-5.82c0-.65-.15-1.16-.45-1.53-.3-.36-.76-.54-1.38-.54-.45,0-.87.11-1.26.32s-.76.5-1.09.87v6.71h-1.75v-9.14h1.05c.25,0,.4.12.46.35l.13.92Z"/>
    <path class="cls-3" d="M340.39,167.59c-.74,0-1.31-.21-1.71-.62-.4-.41-.6-1-.6-1.77v-5.47h-1.06c-.1,0-.19-.03-.26-.09-.07-.06-.1-.16-.1-.28v-.71l1.49-.21.4-2.73c.02-.1.07-.18.14-.24.07-.06.16-.09.27-.09h.89v3.07h2.59v1.28h-2.59v5.35c0,.36.09.63.27.81.18.18.4.27.68.27.16,0,.3-.02.42-.06s.22-.09.3-.14c.08-.05.16-.1.22-.14.06-.04.11-.06.16-.06.06,0,.11.01.14.04.03.03.07.07.1.13l.52.85c-.29.26-.63.47-1.03.61-.4.14-.81.22-1.23.22Z"/>
    <path class="cls-3" d="M345.7,160.05c.29-.6.65-1.07,1.06-1.41s.91-.51,1.49-.51c.2,0,.39.02.56.07.18.04.33.11.46.2l-.12,1.32c-.04.16-.14.24-.3.24-.08,0-.21-.02-.38-.05-.17-.03-.35-.05-.54-.05-.28,0-.53.04-.75.12-.22.08-.41.2-.58.36-.17.16-.32.35-.45.58-.13.23-.25.49-.37.79v5.72h-1.75v-9.14h1.01c.19,0,.32.03.39.1.07.07.12.19.15.36l.11,1.29Z"/>
    <path class="cls-3" d="M354.2,158.15c.67,0,1.28.11,1.82.33.54.22,1,.53,1.39.95s.67.91.88,1.49c.2.58.31,1.23.31,1.95s-.1,1.37-.31,1.95c-.21.58-.5,1.08-.88,1.49-.38.41-.84.72-1.39.94-.54.22-1.15.33-1.82.33s-1.29-.11-1.83-.33c-.54-.22-1.01-.53-1.39-.94-.38-.41-.68-.9-.89-1.49s-.31-1.23-.31-1.95.1-1.37.31-1.95.5-1.07.89-1.49c.38-.41.85-.73,1.39-.95.54-.22,1.15-.33,1.83-.33ZM354.2,166.2c.86,0,1.51-.29,1.93-.87.43-.58.64-1.4.64-2.46s-.21-1.88-.64-2.46c-.43-.58-1.07-.88-1.93-.88s-1.53.29-1.96.88-.64,1.41-.64,2.46.21,1.88.64,2.46,1.08.87,1.96.87Z"/>
    <path class="cls-3" d="M362.34,154.16v13.28h-1.76v-13.28h1.76Z"/>
    <path class="cls-3" d="M366.64,154.16v13.28h-1.76v-13.28h1.76Z"/>
    <path class="cls-3" d="M376.65,166.14c-.21.25-.46.47-.75.65-.28.18-.58.33-.9.45s-.65.2-.99.25-.67.08-1,.08c-.63,0-1.21-.11-1.75-.32s-1-.53-1.4-.94c-.39-.41-.7-.92-.92-1.53-.22-.61-.33-1.31-.33-2.1,0-.64.1-1.23.3-1.78.2-.55.48-1.03.85-1.44s.82-.73,1.35-.96c.53-.23,1.13-.35,1.8-.35.56,0,1.07.09,1.54.27.47.18.88.45,1.22.8.34.35.61.78.81,1.29.19.51.29,1.09.29,1.75,0,.27-.03.45-.09.54s-.17.14-.33.14h-5.99c.02.55.1,1.02.23,1.43.14.4.33.74.57,1.01.24.27.53.47.87.6s.71.2,1.12.2c.39,0,.73-.04,1.01-.13.28-.09.53-.19.74-.29.21-.1.38-.2.52-.29.14-.09.27-.13.37-.13.14,0,.25.05.33.16l.5.65ZM375.2,161.85c0-.35-.05-.67-.15-.96s-.25-.55-.44-.77c-.19-.22-.43-.38-.7-.5s-.59-.18-.95-.18c-.74,0-1.32.21-1.74.64-.42.43-.69,1.02-.81,1.77h4.79Z"/>
    <path class="cls-3" d="M380.33,160.05c.29-.6.65-1.07,1.06-1.41s.91-.51,1.49-.51c.2,0,.39.02.56.07.18.04.33.11.46.2l-.12,1.32c-.04.16-.14.24-.3.24-.08,0-.21-.02-.38-.05-.17-.03-.35-.05-.54-.05-.28,0-.53.04-.75.12-.22.08-.41.2-.58.36-.17.16-.32.35-.45.58-.13.23-.25.49-.37.79v5.72h-1.75v-9.14h1.01c.19,0,.32.03.39.1.07.07.12.19.15.36l.11,1.29Z"/>
  </g>
  <g>
    <path class="cls-3" d="M579.87,143.72c.83,0,1.55.1,2.16.29.61.19,1.12.46,1.52.81.4.35.7.78.9,1.27.19.5.29,1.05.29,1.66s-.1,1.16-.32,1.67c-.21.51-.52.94-.93,1.31-.41.37-.92.65-1.53.85s-1.31.3-2.1.3h-2v4.76h-1.92v-12.92h3.92ZM579.87,150.37c.49,0,.91-.06,1.28-.19s.68-.3.93-.54c.25-.23.44-.51.56-.83.12-.32.19-.68.19-1.07,0-.79-.25-1.4-.73-1.85-.49-.45-1.23-.67-2.23-.67h-2v5.15h2Z"/>
    <path class="cls-3" d="M594.86,155.08v1.56h-8.02v-12.92h8.01v1.56h-6.08v4.09h4.9v1.5h-4.9v4.21h6.09Z"/>
  </g>
  <g>
    <rect class="cls-2" x="104.5" y="230.74" width="1" height="33.52"/>
    <polygon class="cls-2" points="108.99 263.09 105 270 101.01 263.09 108.99 263.09"/>
    <polygon class="cls-2" points="108.99 231.91 105 225 101.01 231.91 108.99 231.91"/>
  </g>
  <g>
    <rect class="cls-2" x="343.67" y="230.74" width="1" height="33.52"/>
    <polygon class="cls-2" points="348.16 263.09 344.17 270 340.18 263.09 348.16 263.09"/>
    <polygon class="cls-2" points="348.16 231.91 344.17 225 340.18 231.91 348.16 231.91"/>
  </g>
  <g>
    <rect class="cls-2" x="584.5" y="230.74" width="1" height="33.52"/>
    <polygon class="cls-2" points="588.99 263.09 585 270 581.01 263.09 588.99 263.09"/>
    <polygon class="cls-2" points="588.99 231.91 585 225 581.01 231.91 588.99 231.91"/>
  </g>
  <g>
    <path class="cls-2" d="M156.17,36.64h-1.93v-12.92h1.93v12.92Z"/>
    <path class="cls-2" d="M160.51,28.77c.2-.21.41-.4.62-.58s.45-.32.69-.45.5-.22.78-.29c.28-.07.58-.1.9-.1.5,0,.95.08,1.33.25s.7.4.96.71c.26.3.45.67.58,1.09.13.43.2.9.2,1.41v5.82h-1.76v-5.82c0-.65-.15-1.16-.45-1.53-.3-.36-.76-.54-1.38-.54-.45,0-.87.11-1.26.32-.39.21-.76.5-1.09.87v6.71h-1.76v-9.14h1.05c.25,0,.4.12.46.35l.13.92Z"/>
    <path class="cls-2" d="M171.67,36.79c-.74,0-1.31-.21-1.71-.62-.4-.41-.6-1-.6-1.77v-5.47h-1.06c-.1,0-.19-.03-.26-.09-.07-.06-.1-.16-.1-.28v-.71l1.48-.21.4-2.73c.02-.1.07-.18.14-.24.07-.06.16-.09.27-.09h.89v3.07h2.59v1.28h-2.59v5.35c0,.36.09.63.27.81.18.18.4.27.68.27.16,0,.3-.02.42-.06.12-.04.22-.09.3-.14.08-.05.16-.1.21-.14.06-.04.12-.06.16-.06.06,0,.11.01.14.04.03.03.07.07.1.13l.52.85c-.29.26-.63.47-1.03.61-.4.14-.81.22-1.23.22Z"/>
    <path class="cls-2" d="M182.78,35.34c-.22.25-.46.47-.75.65-.28.18-.58.33-.9.45-.32.11-.65.2-.99.25s-.67.08-1,.08c-.63,0-1.21-.11-1.75-.32s-1-.53-1.39-.94c-.39-.41-.7-.92-.92-1.53-.22-.61-.33-1.31-.33-2.1,0-.64.1-1.23.3-1.78.2-.55.48-1.03.85-1.44s.82-.73,1.35-.96c.53-.23,1.13-.35,1.8-.35.56,0,1.07.09,1.54.27.47.18.88.45,1.22.8s.61.78.8,1.29.29,1.09.29,1.75c0,.27-.03.45-.09.54-.06.09-.17.14-.33.14h-5.99c.02.55.1,1.02.23,1.43.14.4.33.74.57,1.01.24.27.53.47.87.6s.71.2,1.12.2c.39,0,.73-.04,1.01-.13.29-.09.53-.19.74-.29.21-.1.38-.2.52-.29.14-.09.27-.13.37-.13.14,0,.26.05.33.16l.5.65ZM181.33,31.05c0-.35-.05-.67-.15-.96s-.24-.55-.44-.77c-.19-.22-.43-.38-.7-.5s-.59-.18-.95-.18c-.74,0-1.32.21-1.74.64-.42.43-.69,1.02-.81,1.77h4.79Z"/>
    <path class="cls-2" d="M186.46,29.25c.29-.6.65-1.07,1.06-1.41s.91-.51,1.49-.51c.2,0,.39.02.56.07.18.04.33.11.46.2l-.12,1.32c-.04.16-.14.24-.3.24-.08,0-.21-.02-.38-.05s-.35-.05-.54-.05c-.28,0-.53.04-.75.12-.22.08-.41.2-.58.36-.17.16-.32.35-.46.58-.13.23-.25.49-.37.79v5.72h-1.75v-9.14h1.01c.19,0,.32.03.39.1.07.07.12.19.15.36l.11,1.29Z"/>
    <path class="cls-2" d="M193.05,29.25c.29-.6.65-1.07,1.06-1.41s.91-.51,1.49-.51c.2,0,.39.02.56.07.18.04.33.11.46.2l-.12,1.32c-.04.16-.14.24-.3.24-.08,0-.21-.02-.38-.05-.17-.03-.35-.05-.54-.05-.28,0-.53.04-.75.12-.22.08-.41.2-.58.36-.17.16-.32.35-.45.58-.13.23-.25.49-.37.79v5.72h-1.75v-9.14h1.01c.19,0,.32.03.39.1.07.07.12.19.15.36l.11,1.29Z"/>
    <path class="cls-2" d="M205.6,27.5v9.14h-1.05c-.24,0-.4-.12-.47-.35l-.13-.92c-.2.21-.4.4-.62.58-.22.17-.45.32-.69.45s-.51.22-.78.29c-.28.07-.57.1-.89.1-.5,0-.95-.08-1.33-.25s-.7-.4-.96-.71-.45-.67-.59-1.09c-.13-.43-.2-.9-.2-1.41v-5.82h1.76v5.82c0,.65.15,1.16.45,1.53.3.36.76.54,1.38.54.45,0,.87-.11,1.26-.32s.76-.51,1.1-.88v-6.7h1.75Z"/>
    <path class="cls-2" d="M209.72,28.87c.19-.23.4-.44.62-.62.22-.19.45-.35.71-.49s.52-.24.81-.31.59-.11.91-.11c.52,0,1,.1,1.42.31s.79.5,1.08.9c.3.4.53.89.7,1.47s.25,1.25.25,2.01c0,.68-.09,1.31-.27,1.89s-.44,1.08-.78,1.51c-.34.43-.75.76-1.24,1-.49.24-1.04.36-1.65.36-.54,0-1.01-.09-1.4-.27-.39-.18-.74-.43-1.04-.76v3.97h-1.76v-12.21h1.05c.25,0,.4.12.46.35l.15,1.02ZM209.81,34.39c.29.38.6.64.93.79.33.15.71.22,1.12.22.8,0,1.43-.29,1.87-.87.44-.58.66-1.42.66-2.53,0-.58-.05-1.08-.15-1.49-.1-.41-.24-.75-.43-1.01-.19-.26-.42-.45-.7-.58-.28-.12-.59-.18-.94-.18-.51,0-.95.11-1.33.34-.38.23-.72.55-1.04.97v4.33Z"/>
    <path class="cls-2" d="M220.93,36.79c-.74,0-1.31-.21-1.71-.62-.4-.41-.6-1-.6-1.77v-5.47h-1.06c-.1,0-.19-.03-.26-.09-.07-.06-.1-.16-.1-.28v-.71l1.49-.21.4-2.73c.02-.1.07-.18.14-.24.07-.06.16-.09.26-.09h.89v3.07h2.59v1.28h-2.59v5.35c0,.36.09.63.27.81.18.18.4.27.68.27.16,0,.3-.02.42-.06s.22-.09.3-.14c.08-.05.16-.1.22-.14.06-.04.11-.06.16-.06.06,0,.11.01.14.04.03.03.07.07.1.13l.52.85c-.29.26-.63.47-1.03.61-.4.14-.81.22-1.23.22Z"/>
    <path class="cls-2" d="M243.08,23.72v12.92h-1.67v-9.2c0-.14,0-.28.01-.44,0-.16.02-.32.03-.48l-4.3,7.89c-.15.29-.38.44-.69.44h-.27c-.31,0-.54-.15-.68-.44l-4.38-7.92c.04.34.05.65.05.94v9.2h-1.68v-12.92h1.42c.17,0,.3.02.39.05.09.03.18.12.26.27l4.32,7.74c.08.16.16.32.23.5.07.17.14.35.21.52.13-.35.27-.7.44-1.03l4.24-7.73c.08-.15.16-.24.26-.27.09-.03.22-.05.39-.05h1.42Z"/>
    <path class="cls-2" d="M253.14,35.34c-.22.25-.46.47-.75.65-.28.18-.58.33-.9.45s-.65.2-.99.25c-.34.05-.67.08-1,.08-.63,0-1.21-.11-1.75-.32s-1-.53-1.39-.94c-.39-.41-.7-.92-.92-1.53-.22-.61-.33-1.31-.33-2.1,0-.64.1-1.23.3-1.78.2-.55.48-1.03.85-1.44s.82-.73,1.36-.96c.53-.23,1.13-.35,1.8-.35.56,0,1.07.09,1.54.27.47.18.88.45,1.22.8s.61.78.81,1.29c.19.51.29,1.09.29,1.75,0,.27-.03.45-.09.54-.06.09-.17.14-.33.14h-5.99c.02.55.1,1.02.23,1.43.14.4.33.74.57,1.01.24.27.53.47.87.6s.71.2,1.12.2c.39,0,.73-.04,1.01-.13.29-.09.53-.19.74-.29.21-.1.38-.2.52-.29.14-.09.27-.13.37-.13.14,0,.25.05.33.16l.5.65ZM251.69,31.05c0-.35-.05-.67-.15-.96-.1-.29-.24-.55-.44-.77-.19-.22-.43-.38-.7-.5-.28-.12-.59-.18-.95-.18-.74,0-1.32.21-1.74.64-.42.43-.69,1.02-.8,1.77h4.79Z"/>
    <path class="cls-2" d="M260.55,29.07c-.05.08-.1.13-.15.17-.05.03-.12.05-.21.05-.1,0-.2-.03-.32-.1-.12-.07-.26-.14-.42-.22s-.36-.15-.58-.22c-.22-.07-.49-.1-.79-.1-.25,0-.48.03-.69.09-.21.06-.38.15-.53.26-.14.11-.26.24-.33.4s-.12.32-.12.49c0,.23.07.42.2.57.13.15.31.28.53.39.22.11.47.21.75.29.28.09.56.18.86.27s.58.21.86.33.53.28.75.46c.22.18.4.4.53.66.13.26.2.57.2.95,0,.43-.08.82-.23,1.18-.15.36-.38.68-.67.94-.3.26-.67.47-1.1.62-.44.15-.94.22-1.5.22-.63,0-1.21-.1-1.75-.31-.54-.21-.98-.48-1.34-.8l.41-.68c.05-.08.11-.15.18-.19.07-.04.17-.07.29-.07.11,0,.23.04.35.13s.26.18.43.27c.17.1.37.19.61.27s.54.12.9.12c.3,0,.56-.04.78-.11.22-.08.41-.18.55-.31s.26-.28.33-.45c.07-.17.11-.34.11-.53,0-.24-.07-.44-.2-.6s-.31-.3-.53-.41c-.22-.11-.47-.21-.75-.3-.28-.08-.57-.17-.86-.27-.29-.1-.58-.21-.86-.33s-.53-.29-.75-.48c-.22-.19-.4-.43-.53-.7-.13-.28-.2-.61-.2-1.01,0-.35.07-.69.22-1.02s.36-.61.64-.85c.28-.25.62-.44,1.04-.59.41-.15.88-.22,1.41-.22.61,0,1.15.1,1.64.29.49.19.91.46,1.26.79l-.39.64Z"/>
    <path class="cls-2" d="M268.38,29.07c-.05.08-.1.13-.15.17-.05.03-.12.05-.21.05-.1,0-.2-.03-.32-.1-.12-.07-.26-.14-.42-.22-.17-.08-.36-.15-.58-.22-.22-.07-.49-.1-.79-.1-.25,0-.48.03-.69.09-.21.06-.38.15-.53.26-.14.11-.26.24-.33.4-.08.15-.12.32-.12.49,0,.23.07.42.2.57.13.15.31.28.53.39.22.11.47.21.75.29.28.09.56.18.85.27s.58.21.86.33.53.28.75.46c.22.18.4.4.53.66.13.26.2.57.2.95,0,.43-.08.82-.23,1.18s-.38.68-.67.94c-.3.26-.66.47-1.1.62-.44.15-.94.22-1.5.22-.63,0-1.21-.1-1.75-.31s-.98-.48-1.34-.8l.41-.68c.05-.08.11-.15.18-.19.07-.04.17-.07.29-.07.11,0,.23.04.35.13.12.08.26.18.43.27.17.1.37.19.61.27s.54.12.9.12c.3,0,.56-.04.78-.11.22-.08.41-.18.55-.31.15-.13.26-.28.33-.45.07-.17.11-.34.11-.53,0-.24-.07-.44-.2-.6s-.31-.3-.53-.41c-.22-.11-.47-.21-.75-.3-.28-.08-.57-.17-.86-.27-.29-.1-.58-.21-.86-.33-.28-.13-.53-.29-.75-.48-.22-.19-.4-.43-.53-.7-.13-.28-.2-.61-.2-1.01,0-.35.07-.69.22-1.02.15-.32.36-.61.64-.85.28-.25.62-.44,1.04-.59s.88-.22,1.41-.22c.61,0,1.15.1,1.64.29s.91.46,1.26.79l-.39.64Z"/>
    <path class="cls-2" d="M270.57,28.78c.51-.49,1.06-.85,1.66-1.09.6-.24,1.25-.36,1.97-.36.52,0,.98.09,1.39.26s.74.41,1.02.72c.28.31.48.67.62,1.1s.21.9.21,1.41v5.83h-.78c-.17,0-.31-.03-.4-.09-.09-.06-.16-.16-.22-.32l-.19-.8c-.23.22-.47.41-.69.57s-.47.31-.72.42c-.25.12-.51.21-.8.27-.28.06-.59.09-.94.09-.36,0-.7-.05-1.01-.15-.32-.1-.59-.25-.82-.45s-.42-.46-.55-.76c-.13-.31-.2-.66-.2-1.07,0-.36.1-.71.29-1.04s.51-.63.95-.9c.44-.26,1.02-.48,1.73-.65s1.59-.26,2.62-.29v-.67c0-.69-.15-1.21-.44-1.55s-.73-.51-1.3-.51c-.38,0-.71.05-.97.14s-.49.2-.67.32-.35.22-.5.32c-.14.1-.29.14-.44.14-.12,0-.22-.03-.31-.1-.09-.07-.16-.14-.21-.23l-.32-.57ZM275.72,32.58c-.71.02-1.32.08-1.82.17s-.9.2-1.22.35c-.31.14-.54.31-.67.51-.14.19-.21.41-.21.65,0,.23.04.42.11.59s.18.3.31.41c.13.11.28.18.46.23.17.05.36.07.57.07.27,0,.52-.03.74-.08.23-.05.44-.13.63-.23.2-.1.39-.22.57-.36.18-.14.36-.31.53-.5v-1.8Z"/>
    <path class="cls-2" d="M287.59,27.84v.66c0,.22-.13.35-.4.4l-.98.14c.08.19.15.38.2.59.05.21.07.42.07.65,0,.45-.09.86-.26,1.22-.17.36-.41.67-.72.93s-.67.46-1.09.59c-.42.14-.89.21-1.39.21-.41,0-.8-.04-1.16-.13-.18.11-.32.23-.41.36s-.14.26-.14.38c0,.21.09.37.27.47.18.1.41.18.69.22s.61.07.98.08c.37.01.74.03,1.12.06.38.03.76.08,1.12.14.37.07.7.18.98.33.28.15.52.36.69.63.18.27.27.61.27,1.04,0,.4-.1.78-.29,1.15-.19.37-.48.7-.85.99-.37.29-.83.52-1.36.69-.53.17-1.14.26-1.82.26s-1.27-.07-1.77-.2c-.5-.13-.92-.31-1.25-.53-.33-.22-.58-.48-.75-.77-.17-.29-.25-.6-.25-.92,0-.44.14-.82.41-1.13s.66-.55,1.14-.72c-.26-.12-.47-.28-.63-.49-.16-.21-.23-.48-.23-.82,0-.13.02-.27.07-.41.05-.14.12-.28.22-.42.1-.14.22-.27.37-.4.15-.13.32-.24.51-.34-.45-.25-.8-.59-1.06-1s-.39-.9-.39-1.46c0-.45.09-.86.26-1.22.17-.36.42-.67.72-.93.31-.26.68-.46,1.11-.59s.9-.21,1.41-.21c.79,0,1.47.17,2.04.5h2.54ZM285.81,37.12c0-.22-.06-.39-.18-.52-.12-.13-.28-.23-.49-.31s-.45-.13-.72-.16c-.28-.03-.57-.06-.87-.08-.3-.02-.61-.03-.93-.05-.32-.01-.62-.04-.92-.08-.31.16-.57.34-.77.57-.2.22-.3.48-.3.78,0,.19.05.37.15.54s.25.31.46.44.47.22.78.29.69.1,1.13.1.81-.04,1.14-.11.61-.18.83-.32c.23-.13.4-.29.51-.48.12-.19.18-.39.18-.61ZM283.01,32.08c.31,0,.59-.04.82-.13.24-.08.44-.2.59-.36.16-.15.28-.34.36-.55.08-.22.12-.45.12-.71,0-.53-.16-.95-.48-1.26-.32-.32-.79-.47-1.42-.47s-1.09.16-1.41.47c-.32.31-.48.74-.48,1.26,0,.26.04.49.12.71.08.21.2.4.36.55.16.15.36.27.59.36s.51.13.81.13Z"/>
    <path class="cls-2" d="M296.55,35.34c-.22.25-.46.47-.75.65-.28.18-.58.33-.9.45-.32.11-.65.2-.98.25-.34.05-.67.08-1,.08-.63,0-1.21-.11-1.75-.32s-1-.53-1.4-.94c-.39-.41-.7-.92-.92-1.53-.22-.61-.33-1.31-.33-2.1,0-.64.1-1.23.3-1.78.2-.55.48-1.03.85-1.44s.82-.73,1.35-.96c.54-.23,1.13-.35,1.8-.35.56,0,1.07.09,1.54.27.47.18.88.45,1.22.8.34.35.61.78.81,1.29s.29,1.09.29,1.75c0,.27-.03.45-.09.54-.06.09-.17.14-.33.14h-5.99c.02.55.1,1.02.23,1.43.14.4.33.74.57,1.01.24.27.53.47.87.6s.71.2,1.12.2c.39,0,.73-.04,1.01-.13.28-.09.53-.19.74-.29.21-.1.38-.2.52-.29.14-.09.27-.13.37-.13.14,0,.25.05.33.16l.5.65ZM295.11,31.05c0-.35-.05-.67-.15-.96-.1-.29-.25-.55-.44-.77-.19-.22-.43-.38-.7-.5-.28-.12-.59-.18-.96-.18-.74,0-1.32.21-1.74.64-.42.43-.69,1.02-.81,1.77h4.79Z"/>
  </g>
  <g>
    <path class="cls-1" d="M298.19,321.64h-1.93v-12.92h1.93v12.92Z"/>
    <path class="cls-1" d="M302.53,313.77c.2-.21.4-.4.62-.58.21-.17.45-.32.69-.45.24-.12.5-.22.78-.29.28-.07.58-.1.9-.1.5,0,.95.08,1.33.25.38.17.7.4.96.71.26.3.45.67.58,1.09.13.43.2.9.2,1.41v5.82h-1.76v-5.82c0-.65-.15-1.16-.45-1.53s-.76-.54-1.38-.54c-.45,0-.87.11-1.26.32s-.76.5-1.09.87v6.71h-1.75v-9.14h1.05c.25,0,.4.12.46.35l.13.92Z"/>
    <path class="cls-1" d="M313.69,321.79c-.74,0-1.31-.21-1.71-.62-.4-.41-.6-1-.6-1.77v-5.47h-1.06c-.1,0-.19-.03-.26-.09-.07-.06-.1-.16-.1-.28v-.71l1.48-.21.4-2.73c.02-.1.07-.18.14-.24s.16-.09.26-.09h.89v3.07h2.59v1.28h-2.59v5.35c0,.36.09.63.27.81s.4.27.68.27c.16,0,.3-.02.42-.06.12-.04.22-.09.3-.14.08-.05.16-.1.22-.14s.11-.06.16-.06c.06,0,.11.01.14.04.03.03.07.07.1.13l.52.85c-.29.26-.63.47-1.03.61-.4.14-.81.22-1.23.22Z"/>
    <path class="cls-1" d="M324.79,320.34c-.22.25-.46.47-.75.65-.28.18-.58.33-.9.45s-.65.2-.99.25c-.34.05-.67.08-1,.08-.63,0-1.21-.11-1.75-.32s-1-.53-1.39-.94c-.39-.41-.7-.92-.92-1.53-.22-.61-.33-1.31-.33-2.1,0-.64.1-1.23.3-1.78.2-.55.48-1.03.85-1.44s.82-.73,1.36-.96c.53-.23,1.13-.35,1.8-.35.56,0,1.07.09,1.54.27.47.18.88.45,1.22.8s.61.78.81,1.29c.19.51.29,1.09.29,1.75,0,.27-.03.45-.09.54-.06.09-.17.14-.33.14h-5.99c.02.55.1,1.02.23,1.43.14.4.33.74.57,1.01.24.27.53.47.87.6s.71.2,1.12.2c.39,0,.73-.04,1.01-.13.29-.09.53-.19.74-.29.21-.1.38-.2.52-.29.14-.09.27-.13.37-.13.14,0,.25.05.33.16l.5.65ZM323.34,316.05c0-.35-.05-.67-.15-.96-.1-.29-.24-.55-.44-.77-.19-.22-.43-.38-.7-.5-.28-.12-.59-.18-.95-.18-.74,0-1.32.21-1.74.64-.42.43-.69,1.02-.8,1.77h4.79Z"/>
    <path class="cls-1" d="M328.47,314.25c.29-.6.65-1.07,1.06-1.41s.91-.51,1.49-.51c.2,0,.39.02.56.07.18.04.33.11.46.2l-.12,1.32c-.04.16-.14.24-.3.24-.08,0-.21-.02-.38-.05s-.35-.05-.54-.05c-.28,0-.53.04-.75.12-.22.08-.41.2-.58.36s-.32.35-.46.58c-.13.23-.25.49-.37.79v5.72h-1.75v-9.14h1.01c.19,0,.32.03.39.1.07.07.12.19.15.36l.11,1.29Z"/>
    <path class="cls-1" d="M339.48,314.21c-.05.07-.11.12-.16.16s-.12.06-.22.06-.2-.04-.3-.11c-.1-.08-.24-.16-.4-.24s-.35-.17-.58-.24c-.22-.08-.5-.11-.83-.11-.43,0-.81.08-1.14.23-.33.16-.6.38-.82.67s-.39.64-.5,1.05c-.11.41-.17.88-.17,1.39s.06,1.01.18,1.43.29.77.51,1.05.49.5.81.65c.32.15.67.22,1.06.22s.69-.05.94-.14c.25-.09.45-.19.61-.3.16-.11.3-.21.41-.3s.22-.14.33-.14c.14,0,.25.05.33.16l.5.65c-.21.26-.45.48-.71.66-.26.18-.54.33-.83.44s-.6.2-.92.25c-.32.05-.65.08-.98.08-.57,0-1.1-.11-1.6-.32-.49-.21-.92-.52-1.29-.92-.36-.4-.65-.9-.86-1.48-.21-.58-.31-1.25-.31-1.99,0-.68.09-1.3.28-1.88.19-.58.47-1.07.84-1.49s.82-.74,1.36-.98c.54-.24,1.16-.36,1.85-.36.65,0,1.23.11,1.73.32s.94.51,1.33.89l-.47.65Z"/>
    <path class="cls-1" d="M345.42,312.35c.67,0,1.28.11,1.82.33.54.22,1,.53,1.39.95s.67.91.88,1.49c.21.58.31,1.23.31,1.95s-.1,1.37-.31,1.95c-.2.58-.5,1.08-.88,1.49-.38.41-.84.72-1.39.94-.54.22-1.15.33-1.82.33s-1.29-.11-1.83-.33c-.54-.22-1.01-.53-1.39-.94-.38-.41-.68-.9-.89-1.49s-.31-1.23-.31-1.95.1-1.37.31-1.95.5-1.07.89-1.49c.38-.41.85-.73,1.39-.95.54-.22,1.15-.33,1.83-.33ZM345.42,320.4c.87,0,1.51-.29,1.94-.87s.64-1.4.64-2.46-.21-1.88-.64-2.46-1.07-.88-1.94-.88-1.53.29-1.96.88c-.43.58-.64,1.41-.64,2.46s.21,1.88.64,2.46c.43.58,1.08.87,1.96.87Z"/>
    <path class="cls-1" d="M353.41,313.77c.2-.21.41-.4.62-.58s.45-.32.69-.45.5-.22.78-.29c.28-.07.58-.1.9-.1.5,0,.95.08,1.33.25.38.17.7.4.96.71.26.3.45.67.59,1.09.13.43.2.9.2,1.41v5.82h-1.76v-5.82c0-.65-.15-1.16-.45-1.53-.3-.36-.76-.54-1.38-.54-.45,0-.87.11-1.27.32-.39.21-.76.5-1.09.87v6.71h-1.75v-9.14h1.05c.25,0,.4.12.46.35l.13.92Z"/>
    <path class="cls-1" d="M363.48,313.77c.2-.21.41-.4.62-.58.22-.17.45-.32.69-.45.24-.12.5-.22.78-.29.28-.07.58-.1.89-.1.5,0,.95.08,1.33.25s.7.4.96.71c.26.3.45.67.58,1.09.13.43.2.9.2,1.41v5.82h-1.76v-5.82c0-.65-.15-1.16-.45-1.53-.3-.36-.76-.54-1.38-.54-.45,0-.87.11-1.26.32s-.76.5-1.09.87v6.71h-1.75v-9.14h1.05c.25,0,.4.12.46.35l.13.92Z"/>
    <path class="cls-1" d="M379.41,320.34c-.21.25-.46.47-.75.65-.28.18-.58.33-.9.45s-.65.2-.99.25-.67.08-1,.08c-.63,0-1.21-.11-1.75-.32s-1-.53-1.4-.94c-.39-.41-.7-.92-.92-1.53-.22-.61-.33-1.31-.33-2.1,0-.64.1-1.23.3-1.78.2-.55.48-1.03.85-1.44s.82-.73,1.35-.96c.53-.23,1.13-.35,1.8-.35.56,0,1.07.09,1.54.27.47.18.88.45,1.22.8.34.35.61.78.81,1.29.19.51.29,1.09.29,1.75,0,.27-.03.45-.09.54s-.17.14-.33.14h-5.99c.02.55.1,1.02.23,1.43.14.4.33.74.57,1.01.24.27.53.47.87.6s.71.2,1.12.2c.39,0,.73-.04,1.01-.13.28-.09.53-.19.74-.29.21-.1.38-.2.52-.29.14-.09.27-.13.37-.13.14,0,.25.05.33.16l.5.65ZM377.96,316.05c0-.35-.05-.67-.15-.96s-.25-.55-.44-.77c-.19-.22-.43-.38-.7-.5s-.59-.18-.95-.18c-.74,0-1.32.21-1.74.64-.42.43-.69,1.02-.81,1.77h4.79Z"/>
    <path class="cls-1" d="M387.84,314.21c-.05.07-.11.12-.16.16s-.12.06-.22.06-.2-.04-.3-.11c-.11-.08-.24-.16-.4-.24-.16-.09-.35-.17-.58-.24-.22-.08-.5-.11-.83-.11-.43,0-.81.08-1.14.23-.33.16-.6.38-.82.67-.22.29-.38.64-.5,1.05s-.17.88-.17,1.39.06,1.01.18,1.43c.12.42.29.77.51,1.05.22.29.49.5.81.65.32.15.67.22,1.06.22s.69-.05.94-.14c.25-.09.45-.19.61-.3.16-.11.3-.21.4-.3.11-.09.22-.14.33-.14.14,0,.25.05.33.16l.5.65c-.21.26-.45.48-.71.66-.26.18-.54.33-.83.44-.29.11-.6.2-.92.25-.32.05-.65.08-.98.08-.57,0-1.1-.11-1.6-.32-.49-.21-.92-.52-1.29-.92-.36-.4-.65-.9-.86-1.48s-.31-1.25-.31-1.99c0-.68.09-1.3.28-1.88s.47-1.07.84-1.49.82-.74,1.36-.98,1.16-.36,1.85-.36c.65,0,1.23.11,1.73.32s.94.51,1.33.89l-.47.65Z"/>
    <path class="cls-1" d="M392.91,321.79c-.74,0-1.31-.21-1.71-.62-.4-.41-.6-1-.6-1.77v-5.47h-1.06c-.1,0-.19-.03-.26-.09-.07-.06-.1-.16-.1-.28v-.71l1.49-.21.4-2.73c.02-.1.07-.18.14-.24.07-.06.16-.09.27-.09h.89v3.07h2.59v1.28h-2.59v5.35c0,.36.09.63.27.81.18.18.4.27.68.27.16,0,.3-.02.42-.06s.22-.09.3-.14c.08-.05.16-.1.22-.14.06-.04.11-.06.16-.06.06,0,.11.01.14.04.03.03.07.07.1.13l.52.85c-.29.26-.63.47-1.03.61-.4.14-.81.22-1.23.22Z"/>
  </g>
  <g>
    <path class="cls-2" d="M453.14,111.64h-1.93v-12.92h1.93v12.92Z"/>
    <path class="cls-2" d="M466.02,111.64h-1.71c-.34,0-.59-.13-.75-.41l-3.2-4.48c-.1-.15-.21-.26-.33-.32-.12-.06-.3-.09-.54-.09h-1.25v5.3h-1.92v-12.92h3.73c.83,0,1.55.08,2.16.26.6.17,1.1.41,1.49.73s.68.69.87,1.14.28.94.28,1.49c0,.45-.07.87-.21,1.27-.14.4-.34.75-.61,1.07-.27.32-.59.59-.98.81-.38.23-.82.4-1.3.52.24.14.45.34.62.6l3.64,5.03ZM459.99,104.95c.49,0,.93-.06,1.3-.18s.69-.29.94-.51c.25-.22.44-.48.57-.78.13-.3.19-.64.19-1,0-.74-.25-1.3-.73-1.68-.49-.38-1.22-.57-2.2-.57h-1.81v4.72h1.75Z"/>
    <path class="cls-2" d="M480.2,114.27h-1.58c-.23,0-.44-.03-.62-.09-.18-.06-.35-.18-.5-.35l-2.18-2.38c-.66.22-1.38.32-2.15.32-.95,0-1.83-.16-2.61-.49-.79-.32-1.46-.78-2.02-1.36-.56-.58-1-1.28-1.31-2.09-.31-.81-.47-1.69-.47-2.66s.16-1.84.47-2.66c.31-.81.75-1.51,1.31-2.09.56-.58,1.24-1.04,2.02-1.37s1.66-.49,2.61-.49,1.83.16,2.62.49c.79.33,1.46.78,2.03,1.37.56.59,1,1.28,1.31,2.09.31.81.46,1.7.46,2.66,0,.6-.06,1.17-.19,1.71s-.3,1.05-.53,1.52c-.23.47-.51.89-.84,1.28-.33.38-.71.72-1.13,1.01l3.3,3.57ZM468.7,105.18c0,.77.1,1.47.31,2.07.21.61.51,1.13.9,1.55.39.43.86.75,1.41.98.55.22,1.16.34,1.84.34s1.29-.11,1.84-.34c.55-.23,1.02-.55,1.4-.98.39-.43.68-.94.9-1.55.21-.61.31-1.3.31-2.07s-.1-1.46-.31-2.07c-.21-.61-.51-1.13-.9-1.56-.39-.43-.85-.75-1.4-.98-.55-.23-1.16-.34-1.84-.34s-1.29.11-1.84.34c-.55.23-1.02.56-1.41.98-.39.43-.69.95-.9,1.56-.21.61-.31,1.3-.31,2.07Z"/>
  </g>
  <g>
    <path class="cls-2" d="M453.65,160.27v4.33h5.18v1.56h-5.18v5.48h-1.93v-12.92h8.01v1.56h-6.08Z"/>
    <path class="cls-2" d="M463.83,171.64h-1.93v-12.92h1.93v12.92Z"/>
    <path class="cls-2" d="M479.69,174.27h-1.58c-.23,0-.44-.03-.62-.09-.18-.06-.35-.18-.5-.35l-2.18-2.38c-.66.22-1.38.32-2.15.32-.96,0-1.83-.16-2.62-.49-.79-.32-1.46-.78-2.03-1.36-.56-.58-1-1.28-1.31-2.09-.31-.81-.47-1.69-.47-2.66s.16-1.84.47-2.66c.31-.81.75-1.51,1.31-2.09.56-.58,1.24-1.04,2.03-1.37s1.66-.49,2.62-.49,1.83.16,2.62.49c.79.33,1.46.78,2.02,1.37.56.59,1,1.28,1.31,2.09.31.81.46,1.7.46,2.66,0,.6-.06,1.17-.18,1.71s-.3,1.05-.53,1.52c-.23.47-.51.89-.84,1.28-.33.38-.71.72-1.13,1.01l3.3,3.57ZM468.19,165.18c0,.77.11,1.47.32,2.07.21.61.51,1.13.9,1.55.39.43.86.75,1.41.98.55.22,1.16.34,1.84.34s1.29-.11,1.84-.34c.55-.23,1.02-.55,1.4-.98s.69-.94.9-1.55c.21-.61.32-1.3.32-2.07s-.11-1.46-.32-2.07c-.21-.61-.51-1.13-.9-1.56s-.86-.75-1.4-.98c-.55-.23-1.16-.34-1.84-.34s-1.29.11-1.84.34c-.55.23-1.02.56-1.41.98-.39.43-.69.95-.9,1.56-.21.61-.32,1.3-.32,2.07Z"/>
  </g>
  <g>
    <path class="cls-4" d="M105.5,75h-1v-30.49h.5s60-.01,120-.01h1.52c29.49,0,58.86,0,80.98.01,11.25,0,20.62,0,27.19.02,3.28,0,5.86,0,7.62.01q3.19,0,3.19.51v24.2h-1v-23.71c-11.49-.07-227.04-.04-239-.04v29.49Z"/>
    <polygon class="cls-4" points="341.01 68.09 345 74.99 348.99 68.09 341.01 68.09"/>
  </g>
</svg>